<svg width="637" height="568" viewBox="0 0 637 568" fill="none" xmlns="http://www.w3.org/2000/svg">
<path d="M226.838 358.788C226.365 356.346 222.223 343.686 218.85 324.798C215.055 303.546 227.636 285.439 233.129 277.903C240.617 267.629 247.771 261.421 268.622 244.251C277.257 237.14 278.531 232.247 278.643 230.699C279.257 222.274 256.024 231.874 250.288 233.082C243.541 234.502 236.272 236.71 231.357 239.157C225.279 242.182 219.397 250.774 214.685 261.163C204.895 282.746 208.469 288.311 209.184 293.43C209.988 299.184 212.721 303.442 213.994 306.923C214.425 308.101 210.582 302.311 204.282 289.096C199.454 278.969 191.117 261.988 185.763 249.098C177.152 228.37 175.92 215.521 176.316 207.62C177.195 190.099 194.265 175.361 202.75 168.107C206.648 164.775 211.343 163.715 215.925 162.217C221.71 160.326 228.653 156.612 237.476 147.965C250.597 135.106 261.824 118.353 264.142 111.326C267.36 101.569 236.471 113.622 227.248 115.617C219.359 117.322 211.505 123.181 198.868 137.59C187.602 150.438 187.213 158.488 183.177 170.077C175.968 190.775 172.058 204.08 170.853 202.02C164.116 190.499 145.101 176.93 139.957 170.386C134.564 163.525 129.249 155.288 128.498 152.712C125.82 143.532 123.333 166.697 120.13 178.262C118.274 184.964 123.998 192.592 127.094 197.408C132.095 205.188 143.324 210.18 159.149 215.198C166.076 217.394 169.166 212.763 170.86 212.271C174.64 211.171 175.765 223.786 178.715 232.16C181.495 240.049 183.034 247.703 184.429 252.944C185.136 255.599 185.56 259.822 185.163 263.568C184.401 270.756 171.9 265.351 156.015 266.097C144.273 266.648 131.283 260.738 121.639 256.312C116.684 254.037 113.872 247.784 111.289 244.055C108.618 240.196 104.167 251.259 102.373 258.062C101.07 263.006 106.184 267.81 110.912 273.699C118.812 283.539 124.617 284.811 138.193 288.514C148.313 291.274 156.151 287.488 162.488 284.592C167.15 282.461 171.773 277.967 175.997 274.066C179.551 270.783 184.341 269.751 189.222 269.971C190.739 270.039 192.549 270.787 193.831 271.589C199.344 275.037 200.051 287.015 204.498 297.916C206.892 303.786 209.209 310.422 212.519 318.867C220.111 338.243 220.554 342.87 222.033 346.79C226.039 357.41 217.367 313.439 217.191 301.72C216.989 288.319 224.825 276.173 229.926 266.252C236.15 253.787 240.818 245.354 243.765 243.131C245.523 242.297 247.813 242.062 250.172 241.82" stroke="white" stroke-width="3" stroke-linecap="round"/>
<path d="M189.734 269.527C186.599 268.694 175.315 267.758 161.696 269.74C155.075 270.703 150.522 272.26 145.621 272.505C139.841 272.794 132.04 272.874 122.19 270.38C116.284 267.045 110.823 261.735 107.78 256.902C107.433 255.831 107.304 254.743 107.159 253.068" stroke="white" stroke-width="3" stroke-linecap="round"/>
<path d="M181.297 194.288C184.244 183.997 191.682 160.405 195.198 155.322C198.286 150.856 204.466 149.05 217.869 143.887C227.947 140.005 234.832 133.701 238.284 129.788C241.425 125.545 244.022 122.037 245.479 120.399C246.226 119.562 246.988 118.715 248.03 117.456" stroke="white" stroke-width="3" stroke-linecap="round"/>
<path d="M172.148 212.55C167.095 211.102 155.128 206.96 149.554 201.095C138.096 189.039 135.688 181.444 133.221 176.796C131.182 172.016 129.887 167.791 129.166 164.301C128.814 162.731 128.492 161.569 128.172 159.556" stroke="white" stroke-width="3" stroke-linecap="round"/>
<path d="M256.8 179.376C259.286 179.397 272.517 177.847 291.698 178.285C313.281 178.778 328.534 194.699 334.832 201.577C343.417 210.953 348.084 219.195 360.78 243.037C366.038 252.911 370.581 255.128 372.076 255.546C380.212 257.817 375.408 233.142 375.362 227.28C375.307 220.387 374.584 212.824 373.16 207.521C371.4 200.964 364.145 193.496 354.896 186.817C335.682 172.943 329.518 175.343 324.359 175.029C318.561 174.676 313.845 176.511 310.181 177.069C308.941 177.258 315.378 174.639 329.579 171.084C340.463 168.359 358.759 163.554 372.455 160.861C394.479 156.53 407.317 157.87 414.982 159.824C431.981 164.159 443.043 183.812 448.471 193.567C450.964 198.048 451.072 202.86 451.632 207.648C452.339 213.693 454.603 221.235 461.329 231.597C471.332 247.007 485.526 261.332 491.955 264.997C500.88 270.085 495.189 237.42 495.063 227.984C494.955 219.914 490.77 211.054 479.151 195.812C468.792 182.223 460.979 180.245 450.421 173.992C431.562 162.823 419.296 156.353 421.554 155.581C434.182 151.26 451.251 135.313 458.685 131.569C466.48 127.643 475.606 124.066 478.28 123.84C487.809 123.036 465.597 116.006 454.896 110.574C448.695 107.426 440.084 111.524 434.75 113.604C426.133 116.963 419.014 126.98 410.958 141.496C407.433 147.85 411.359 151.797 411.506 153.555C411.834 157.478 399.247 156.079 390.453 157.311C382.17 158.472 374.363 158.463 368.949 158.792C366.207 158.958 361.984 158.537 358.391 157.404C351.497 155.233 359.273 144.051 361.691 128.334C363.478 116.716 371.846 105.155 378.097 96.5797C381.308 92.1743 387.994 90.6576 392.162 88.8657C396.473 87.012 386.513 80.4562 380.2 77.3494C375.613 75.0919 369.89 79.1524 363.18 82.6191C351.97 88.4113 349.572 93.8495 343.252 106.421C338.541 115.793 340.697 124.227 342.28 131.012C343.444 136.004 346.932 141.427 349.919 146.339C352.432 150.474 352.494 155.374 351.31 160.114C350.943 161.587 349.851 163.213 348.811 164.31C344.338 169.03 332.458 167.349 320.891 169.546C314.664 170.73 307.7 171.686 298.766 173.255C278.27 176.856 273.647 176.372 269.511 177.045C258.309 178.866 303.125 179.083 314.647 181.233C327.822 183.692 338.174 193.781 346.886 200.747C357.87 209.319 365.21 215.566 366.805 218.895C367.274 220.783 367.05 223.075 366.82 225.435" stroke="white" stroke-width="3" stroke-linecap="round"/>
<path d="M351.646 160.706C353.084 157.798 356.238 146.923 356.995 133.182C357.363 126.501 356.74 121.73 357.471 116.877C358.334 111.155 359.802 103.493 364.199 94.3331C368.639 89.2054 374.926 84.9054 380.266 82.8809C381.385 82.7529 382.477 82.8426 384.147 83.032" stroke="white" stroke-width="3" stroke-linecap="round"/>
<path d="M427.064 167.35C436.567 172.279 458.216 184.246 462.501 188.7C466.266 192.612 466.811 199.028 469.215 213.188C471.022 223.836 475.836 231.834 478.987 235.993C482.524 239.913 485.447 243.153 486.764 244.906C487.436 245.804 488.115 246.719 489.143 247.99" stroke="white" stroke-width="3" stroke-linecap="round"/>
<path d="M410.979 154.765C413.399 150.098 419.832 139.191 426.686 134.889C440.773 126.049 448.695 125.195 453.74 123.698C458.83 122.647 463.227 122.215 466.791 122.201C468.4 122.167 469.603 122.081 471.639 122.167" stroke="white" stroke-width="3" stroke-linecap="round"/>
<path d="M410.053 212.875C410.526 215.317 414.667 227.977 418.04 246.865C421.836 268.117 409.255 286.224 403.762 293.76C396.273 304.033 389.12 310.242 368.269 327.412C359.633 334.523 358.36 339.416 358.247 340.964C357.634 349.389 380.867 339.789 386.603 338.581C393.349 337.161 400.618 334.953 405.534 332.506C411.612 329.481 417.494 320.889 422.206 310.5C431.995 288.917 428.421 283.352 427.706 278.233C426.903 272.479 424.17 268.221 422.896 264.74C422.465 263.562 426.308 269.352 432.608 282.567C437.436 292.694 445.773 309.675 451.128 322.565C459.739 343.293 460.971 356.142 460.575 364.043C459.696 381.564 442.626 396.301 434.14 403.556C430.243 406.888 425.547 407.948 420.966 409.446C415.181 411.337 408.237 415.051 399.414 423.698C386.294 436.557 375.066 453.31 372.749 460.337C369.531 470.094 400.42 458.04 409.643 456.046C417.532 454.341 425.386 448.482 438.022 434.073C449.288 421.225 449.677 413.175 453.714 401.586C460.922 380.888 464.832 367.583 466.037 369.643C472.775 381.164 491.79 394.733 496.933 401.277C502.327 408.138 507.642 416.375 508.393 418.951C511.07 428.131 513.558 404.966 516.76 393.401C518.616 386.699 512.892 379.071 509.797 374.255C504.796 366.475 493.567 361.483 477.741 356.465C470.815 354.269 467.725 358.9 466.031 359.392C462.25 360.492 461.126 347.877 458.175 339.503C455.396 331.614 453.857 323.96 452.461 318.718C451.754 316.064 451.331 311.841 451.728 308.095C452.49 300.907 464.991 306.312 480.875 305.566C492.617 305.015 505.608 310.925 515.252 315.351C520.207 317.626 523.019 323.879 525.601 327.608C528.273 331.466 532.724 320.404 534.518 313.601C535.821 308.657 530.707 303.853 525.979 297.964C518.079 288.124 512.273 286.852 498.698 283.149C488.578 280.389 480.739 284.175 474.402 287.071C469.741 289.202 465.117 293.696 460.894 297.597C457.34 300.88 452.549 301.912 447.668 301.692C446.151 301.624 444.342 300.876 443.06 300.074C437.547 296.626 436.84 284.648 432.393 273.747C429.999 267.877 427.681 261.241 424.372 252.796C416.779 233.42 416.337 228.793 414.858 224.872C410.852 214.253 419.524 258.224 419.7 269.943C419.902 283.344 412.065 295.49 406.965 305.411C400.74 317.876 396.073 326.309 393.125 328.532C391.368 329.365 389.078 329.601 386.718 329.843" stroke="white" stroke-width="3" stroke-linecap="round"/>
<path d="M447.156 302.135C450.292 302.968 461.576 303.904 475.194 301.922C481.815 300.959 486.368 299.402 491.27 299.157C497.049 298.868 504.851 298.788 514.7 301.282C520.606 304.617 526.067 309.927 529.11 314.759C529.458 315.831 529.586 316.919 529.732 318.594" stroke="white" stroke-width="3" stroke-linecap="round"/>
<path d="M455.594 377.375C452.646 387.666 445.209 411.258 441.693 416.341C438.605 420.807 432.424 422.613 419.021 427.776C408.944 431.658 402.059 437.962 398.606 441.875C395.465 446.118 392.869 449.626 391.412 451.264C390.665 452.101 389.903 452.948 388.86 454.207" stroke="white" stroke-width="3" stroke-linecap="round"/>
<path d="M464.743 359.114C469.796 360.562 481.763 364.704 487.338 370.569C498.795 382.625 501.203 390.22 503.67 394.868C505.709 399.648 507.004 403.873 507.725 407.363C508.077 408.933 508.4 410.095 508.719 412.108" stroke="white" stroke-width="3" stroke-linecap="round"/>
<path d="M363.5 387.889C361.013 387.868 347.783 389.418 328.602 388.979C307.019 388.486 291.765 372.565 285.468 365.688C276.882 356.311 272.216 348.069 259.519 324.228C254.262 314.354 249.718 312.136 248.223 311.719C240.087 309.448 244.891 334.122 244.938 339.984C244.992 346.878 245.716 354.441 247.139 359.744C248.899 366.3 256.154 373.769 265.404 380.447C284.618 394.321 290.781 391.921 295.94 392.235C301.739 392.588 306.454 390.754 310.118 390.195C311.358 390.006 304.921 392.625 290.72 396.181C279.836 398.905 261.54 403.711 247.845 406.404C225.821 410.735 212.983 409.395 205.317 407.44C188.318 403.105 177.257 383.452 171.829 373.698C169.335 369.217 169.227 364.404 168.667 359.616C167.96 353.572 165.697 346.03 158.97 335.667C148.967 320.258 134.773 305.932 128.344 302.268C119.419 297.179 125.11 329.845 125.236 339.28C125.344 347.351 129.529 356.21 141.148 371.452C151.507 385.042 159.32 387.019 169.879 393.273C188.737 404.442 201.003 410.911 198.745 411.684C186.117 416.004 169.048 431.952 161.614 435.696C153.819 439.622 144.693 443.199 142.019 443.424C132.49 444.229 154.702 451.259 165.403 456.691C171.605 459.839 180.215 455.74 185.55 453.661C194.167 450.301 201.286 440.285 209.341 425.768C212.867 419.415 208.94 415.468 208.793 413.71C208.465 409.786 221.052 411.185 229.846 409.953C238.129 408.793 245.936 408.802 251.35 408.473C254.092 408.306 258.315 408.728 261.909 409.86C268.802 412.032 261.026 423.213 258.608 438.93C256.821 450.548 248.454 462.11 242.203 470.685C238.991 475.09 232.305 476.607 228.137 478.399C223.826 480.253 233.786 486.808 240.099 489.915C244.686 492.173 250.409 488.112 257.119 484.646C268.329 478.853 270.727 473.415 277.047 460.843C281.759 451.471 279.602 443.038 278.02 436.252C276.855 431.261 273.367 425.838 270.38 420.925C267.867 416.791 267.806 411.891 268.989 407.15C269.357 405.677 270.448 404.052 271.488 402.954C275.961 398.234 287.842 399.916 299.408 397.718C305.635 396.535 312.599 395.579 321.533 394.01C342.03 390.409 346.652 390.892 350.788 390.22C361.991 388.399 317.174 388.182 305.652 386.031C292.477 383.572 282.126 373.483 273.413 366.518C262.429 357.946 255.089 351.699 253.494 348.369C253.026 346.481 253.249 344.19 253.479 341.83" stroke="white" stroke-width="3" stroke-linecap="round"/>
<path d="M268.654 406.559C267.216 409.467 264.061 420.341 263.304 434.083C262.936 440.763 263.559 445.534 262.828 450.387C261.965 456.109 260.497 463.772 256.1 472.931C251.66 478.059 245.374 482.359 240.033 484.384C238.914 484.512 237.823 484.422 236.152 484.233" stroke="white" stroke-width="3" stroke-linecap="round"/>
<path d="M193.235 399.915C183.732 394.985 162.083 383.019 157.798 378.565C154.033 374.653 153.488 368.237 151.084 354.076C149.277 343.429 144.463 335.431 141.313 331.272C137.776 327.352 134.852 324.111 133.536 322.359C132.864 321.461 132.185 320.545 131.157 319.274" stroke="white" stroke-width="3" stroke-linecap="round"/>
<path d="M209.32 412.501C206.9 417.167 200.467 428.075 193.613 432.376C179.526 441.216 171.604 442.071 166.559 443.568C161.47 444.618 157.072 445.05 153.508 445.065C151.899 445.098 150.697 445.185 148.66 445.099" stroke="white" stroke-width="3" stroke-linecap="round"/>
</svg>
