<svg width="73" height="81" viewBox="0 0 73 81" fill="none" xmlns="http://www.w3.org/2000/svg">
<path d="M47.3043 30.261C47.3476 30.3001 47.7555 30.6681 48.5792 31.2922C51.8816 33.7944 60.4918 31.3299 63.193 30.6591C63.8536 30.4951 64.6566 30.0175 64.9362 29.6461C65.2158 29.2747 64.9187 28.9342 63.9642 28.6912C59.3534 27.5172 57.1798 27.9271 54.904 28.0414C50.8754 28.2437 48.3882 28.2111 47.8186 28.0533C47.6089 27.9951 47.9042 27.4932 47.8911 27.1117C47.864 26.3186 46.7167 25.3738 45.3911 24.4756C44.795 24.0717 44.1117 24.2138 43.6291 24.3638C42.7626 24.6329 42.2091 25.3954 41.9168 26.1437C41.5885 26.984 42.864 27.892 43.7744 28.5009C45.4614 29.6293 47.6578 27.6246 49.5285 26.4034C52.1786 24.6734 53.5519 22.9224 55.6862 20.3943C56.122 19.8781 55.9097 19.3885 55.7162 19.032C55.5228 18.6755 55.2274 18.3809 54.717 18.2547C52.3997 17.6821 49.6411 21.0676 47.0511 23.777C46.5489 24.3024 46.08 24.742 46.0464 24.1836C45.7432 19.1515 46.7141 15.5108 46.1749 13.6009C45.942 12.7761 45.2478 12.1861 44.518 11.9293C43.8013 11.6771 43.0328 12.8743 42.3339 13.898C40.9391 15.9411 42.2421 18.566 43.2192 20.3896C43.6572 21.2071 44.3242 21.8784 44.4454 22.3204C45.0538 24.5391 40.0099 19.2212 37.2799 18.5246C35.0077 17.9449 33.5364 18.633 33.0053 19.0087C32.4942 19.3702 33.6519 20.327 34.4204 20.8934C36.0485 22.0933 38.0964 22.2083 39.8104 22.9439C41.4234 23.6362 42.403 24.5523 42.6947 24.9028C43.7652 26.1893 38.4997 24.7899 34.6886 25.1482C31.608 25.4379 29.7677 26.6102 28.432 27.6728C28.1484 27.8984 28.4422 28.4226 28.7282 28.6154C30.4515 29.7772 34.0464 27.5719 36.4582 27.354C37.4484 27.2646 38.364 27.4377 39.3488 28.034C39.9296 28.3856 40.5536 29.0213 40.7245 29.4558C41.3508 31.048 37.086 31.856 34.4503 34.8377C33.9069 35.4525 34.0535 35.9676 34.3417 36.4614C34.6298 36.9552 35.1775 37.5028 35.6631 37.678C38.0167 38.5269 40.1315 33.459 42.662 30.5862C43.191 29.9857 43.7047 30.0398 44.0075 30.2692C45.5659 31.4497 45.6114 33.9231 46.9009 35.5933C48.2494 37.3398 49.5235 39.0542 51.2425 40.4789C51.6308 40.8008 52.1344 40.689 52.5274 40.5561C52.9205 40.4233 53.2579 40.1611 53.3768 39.797C54.0644 37.6927 49.9164 35.7314 43.8901 30.8465C42.8309 29.9879 42.8162 30.4845 42.7615 30.9569C42.5329 32.9312 41.7612 34.7417 41.2142 36.6566C40.6563 38.6097 39.0637 40.2109 32.7214 47.2703C30.4017 49.8522 28.5559 50.3826 23.7258 52.5822C21.4411 53.6227 19.2395 53.9144 16.8415 54.3911C14.5967 54.8374 12.1857 54.767 9.74893 54.7131C8.31902 54.6814 7.19044 54.2076 6.75652 54.0026C6.61762 53.9369 7.135 53.598 7.5686 53.4645C10.4804 52.5677 15.1639 54.133 17.9934 54.4622C20.59 54.7643 22.8479 53.3272 25.1939 51.4592C27.7659 49.4113 29.1807 46.9414 29.5493 45.6592C30.2494 43.224 29.4871 40.26 28.4983 37.5687C28.0156 36.2548 27.3024 35.3682 26.7172 34.6425C26.3931 34.2405 25.8168 33.9519 25.2977 34.3239C22.4026 36.3989 23.4035 39.6798 23.6539 41.7902C23.8733 43.6395 24.0638 45.6273 24.4455 47.452C24.6601 48.3027 24.9971 49.0916 25.6601 49.94C26.0942 50.4276 26.7265 51.0312 27.8721 51.752" stroke="#24352D" stroke-linecap="round"/>
<path d="M17.568 55.1467C18.0366 54.7495 20.5433 53.3282 23.8761 52.3507C27.6682 51.2384 32.1771 49.9773 34.4093 49.5188C36.5433 49.0804 38.2251 48.5732 40.4304 48.2751C42.1323 48.0451 43.6531 48.2297 44.6155 48.3387C46.4692 48.5485 47.4968 50.4323 48.3966 51.3654C48.7924 51.7758 48.7711 52.2985 48.7186 52.7337C48.6161 53.5831 48.0635 54.2816 47.4303 54.7423C47.1222 54.9665 46.6652 54.8587 46.4215 54.6289C45.8938 54.1313 46.1346 53.1095 46.3434 52.2794C46.5514 51.4525 47.2823 50.5609 48.203 49.7342C48.6112 49.3676 49.0868 49.3493 49.4336 49.4813C50.1475 49.7528 50.4898 50.6818 51.0369 51.1498C52.4072 52.3222 54.2859 49.6445 56.3079 47.861C57.1098 47.1536 58.1001 45.9415 58.4676 45.1944C58.8351 44.4474 58.4959 44.145 58.0653 44.1693C55.7257 44.3014 53.0561 47.8809 51.0386 49.4638C50.6987 49.7305 50.3582 49.9787 50.127 49.8821C49.5352 49.6349 50.0605 47.9895 50.5063 46.2297C50.6147 45.8018 50.4367 45.3486 50.1636 45.1012C49.8905 44.8537 49.4327 44.8116 48.9787 44.8818C48.0634 45.0235 46.8934 46.0988 45.8832 47.4406C45.5064 47.9411 45.8573 48.349 46.15 48.6772C46.4428 49.0054 46.7822 49.3116 46.7583 49.29C45.5455 48.1962 42.8578 47.8112 40.4503 47.8896C38.3833 47.9569 37.3975 49.6027 37.1585 50.2767C37.0371 50.6192 37.6252 51.0338 38.0539 51.2315C39.6845 51.9832 41.7825 50.5015 43.7952 50.3541C44.7023 50.2877 45.4514 50.9993 45.8263 51.5015C46.9821 53.0496 42.6697 54.0634 39.9503 57.0468C39.3191 57.7394 39.2454 58.3815 39.2731 58.8581C39.3007 59.3347 39.5337 59.7079 39.8529 59.7921C40.5596 59.9786 42.6408 57.6256 45.0715 55.1064C45.7977 54.3538 45.6728 54.8532 45.6687 55.411C45.6518 57.7092 47.6925 59.1324 49.192 60.1994C49.7417 60.5906 50.1341 60.1929 50.1738 59.8767C49.4608 58.5102 48.468 57.1238 47.8506 55.4748C47.795 55.0413 47.8357 54.6194 47.8776 54.1848" stroke="#24352D" stroke-linecap="round"/>
<path d="M48.7211 34.2884C49.0591 34.6779 50.7861 35.677 52.6268 35.8182C53.5573 35.8896 54.5549 35.7769 55.4633 35.5158C55.8925 35.3924 56.1579 35.0235 56.0487 34.6147C54.253 33.0032 51.9244 32.3521 50.0037 32.2024C49.5435 32.1818 49.1004 32.1298 48.6437 32.0762" stroke="#24352D" stroke-linecap="round"/>
</svg>
