<svg width="739" height="739" viewBox="0 0 739 739" fill="none" xmlns="http://www.w3.org/2000/svg">
<rect x="315.566" width="109.014" height="109.014" rx="24" fill="#DDE2CC"/>
<rect x="315.566" y="629.985" width="109.014" height="109.014" rx="24" fill="#DDE2CC"/>
<rect y="314.42" width="109.014" height="109.014" rx="24" fill="#DDE2CC"/>
<rect x="629.986" y="314.42" width="109.014" height="109.014" rx="24" fill="#DDE2CC"/>
<rect x="415.401" y="629.776" width="109.014" height="109.014" rx="24" transform="rotate(-21.4989 415.401 629.776)" fill="#DDE2CC"/>
<rect width="109.014" height="109.014" rx="24" transform="matrix(0.930425 0.366483 0.366483 -0.930425 414.253 108.315)" fill="#DDE2CC"/>
<rect x="109.274" y="413.789" width="109.014" height="109.014" rx="24" transform="rotate(68.0746 109.274 413.789)" fill="#DDE2CC"/>
<rect width="109.014" height="109.014" rx="24" transform="matrix(-0.3734 0.927671 0.927671 0.3734 629.381 413.789)" fill="#DDE2CC"/>
<rect width="109.014" height="109.014" rx="24" transform="matrix(-0.930425 -0.366483 -0.366483 0.930425 326.131 629.776)" fill="#DDE2CC"/>
<rect x="324.983" y="108.315" width="109.014" height="109.014" rx="24" transform="rotate(158.501 324.983 108.315)" fill="#DDE2CC"/>
<rect width="109.014" height="109.014" rx="24" transform="matrix(0.359545 -0.933128 -0.933128 -0.359545 108.609 324.523)" fill="#DDE2CC"/>
<rect x="630.045" y="324.523" width="109.014" height="109.014" rx="24" transform="rotate(-111.072 630.045 324.523)" fill="#DDE2CC"/>
<rect x="593.316" y="224.156" width="109.014" height="109.014" rx="24" transform="rotate(-135.746 593.316 224.156)" fill="#DDE2CC"/>
<rect x="593.316" y="668.243" width="109.014" height="109.014" rx="24" transform="rotate(-135.746 593.316 668.243)" fill="#DDE2CC"/>
<rect width="109.014" height="109.014" rx="24" transform="matrix(-0.716254 0.69784 0.69784 0.716254 148.08 71.1454)" fill="#DDE2CC"/>
<rect width="109.014" height="109.014" rx="24" transform="matrix(-0.716254 0.69784 0.69784 0.716254 148.08 515.234)" fill="#DDE2CC"/>
</svg>
