<svg width="317" height="71" viewBox="0 0 317 71" fill="none" xmlns="http://www.w3.org/2000/svg">
<rect width="317" height="71" rx="20" fill="#E21E27"/>
<path d="M106.392 23.704V31H104.184V19.64H105.944L111.816 27.128V19.656H114.024V31H112.184L106.392 23.704ZM115.509 28.52C115.509 27.976 115.659 27.5013 115.957 27.096C116.267 26.68 116.693 26.36 117.237 26.136C117.781 25.912 118.405 25.8 119.109 25.8C119.461 25.8 119.819 25.8267 120.181 25.88C120.544 25.9333 120.859 26.0187 121.125 26.136V25.688C121.125 25.1547 120.965 24.744 120.645 24.456C120.336 24.168 119.872 24.024 119.253 24.024C118.795 24.024 118.357 24.104 117.941 24.264C117.525 24.424 117.088 24.6587 116.629 24.968L115.941 23.56C116.496 23.1973 117.061 22.9253 117.637 22.744C118.224 22.5627 118.837 22.472 119.477 22.472C120.672 22.472 121.6 22.7707 122.261 23.368C122.933 23.9653 123.269 24.8187 123.269 25.928V28.6C123.269 28.824 123.307 28.984 123.381 29.08C123.467 29.176 123.6 29.2347 123.781 29.256V31C123.589 31.032 123.413 31.0587 123.253 31.08C123.104 31.1013 122.976 31.112 122.869 31.112C122.443 31.112 122.117 31.016 121.893 30.824C121.68 30.632 121.547 30.3973 121.493 30.12L121.445 29.688C121.083 30.1573 120.629 30.52 120.085 30.776C119.541 31.032 118.987 31.16 118.421 31.16C117.867 31.16 117.365 31.048 116.917 30.824C116.48 30.5893 116.133 30.2747 115.877 29.88C115.632 29.4747 115.509 29.0213 115.509 28.52ZM120.725 28.952C120.843 28.824 120.939 28.696 121.013 28.568C121.088 28.44 121.125 28.3227 121.125 28.216V27.368C120.869 27.2613 120.592 27.1813 120.293 27.128C119.995 27.064 119.712 27.032 119.445 27.032C118.891 27.032 118.432 27.1547 118.069 27.4C117.717 27.6347 117.541 27.9493 117.541 28.344C117.541 28.5573 117.6 28.76 117.717 28.952C117.835 29.144 118.005 29.2987 118.229 29.416C118.453 29.5333 118.72 29.592 119.029 29.592C119.349 29.592 119.664 29.5333 119.973 29.416C120.283 29.288 120.533 29.1333 120.725 28.952ZM117.781 20.52C117.781 20.072 117.936 19.72 118.245 19.464C118.565 19.1973 118.971 19.064 119.461 19.064C119.963 19.064 120.368 19.1973 120.677 19.464C120.987 19.72 121.141 20.072 121.141 20.52C121.141 20.9573 120.987 21.3093 120.677 21.576C120.368 21.832 119.963 21.96 119.461 21.96C118.971 21.96 118.565 21.832 118.245 21.576C117.936 21.3093 117.781 20.9573 117.781 20.52ZM119.461 19.816C119.269 19.816 119.104 19.8853 118.965 20.024C118.827 20.152 118.757 20.312 118.757 20.504C118.757 20.696 118.821 20.8613 118.949 21C119.088 21.1387 119.259 21.208 119.461 21.208C119.653 21.208 119.819 21.144 119.957 21.016C120.096 20.8773 120.165 20.7067 120.165 20.504C120.165 20.312 120.096 20.152 119.957 20.024C119.819 19.8853 119.653 19.816 119.461 19.816ZM130.265 24.472C129.614 24.472 129.033 24.6 128.521 24.856C128.009 25.1013 127.641 25.4587 127.417 25.928V31H125.273V22.616H127.241V24.408C127.54 23.832 127.918 23.3787 128.377 23.048C128.836 22.7173 129.321 22.536 129.833 22.504C129.95 22.504 130.041 22.504 130.105 22.504C130.169 22.504 130.222 22.5093 130.265 22.52V24.472ZM136.763 31L133.675 22.616H135.899L138.011 29.048L140.139 22.616H142.171L139.099 31H136.763ZM143.304 31V22.616H145.448V31H143.304ZM143.304 21.448V19.32H145.448V21.448H143.304ZM154.314 31.16C153.599 31.16 152.917 31.0427 152.266 30.808C151.615 30.5733 151.055 30.2267 150.586 29.768L151.354 28.376C151.855 28.7813 152.346 29.08 152.826 29.272C153.317 29.464 153.786 29.56 154.234 29.56C154.65 29.56 154.981 29.4853 155.226 29.336C155.482 29.1867 155.61 28.9627 155.61 28.664C155.61 28.4613 155.541 28.3067 155.402 28.2C155.263 28.0827 155.061 27.9813 154.794 27.896C154.538 27.8107 154.223 27.7147 153.85 27.608C153.231 27.4053 152.714 27.208 152.298 27.016C151.882 26.824 151.567 26.584 151.354 26.296C151.151 25.9973 151.05 25.6187 151.05 25.16C151.05 24.6053 151.189 24.1307 151.466 23.736C151.754 23.3307 152.149 23.016 152.65 22.792C153.162 22.568 153.759 22.456 154.442 22.456C155.039 22.456 155.605 22.552 156.138 22.744C156.671 22.9253 157.157 23.224 157.594 23.64L156.73 25C156.303 24.6693 155.898 24.4293 155.514 24.28C155.13 24.12 154.741 24.04 154.346 24.04C154.122 24.04 153.909 24.0667 153.706 24.12C153.514 24.1733 153.354 24.264 153.226 24.392C153.109 24.5093 153.05 24.68 153.05 24.904C153.05 25.1067 153.103 25.2667 153.21 25.384C153.327 25.4907 153.498 25.5867 153.722 25.672C153.957 25.7573 154.239 25.8533 154.57 25.96C155.242 26.152 155.807 26.3493 156.266 26.552C156.735 26.7547 157.087 27.0053 157.322 27.304C157.557 27.592 157.674 27.992 157.674 28.504C157.674 29.336 157.37 29.9867 156.762 30.456C156.154 30.9253 155.338 31.16 154.314 31.16ZM164.109 30.568C163.928 30.6427 163.709 30.728 163.453 30.824C163.197 30.92 162.92 30.9947 162.621 31.048C162.333 31.112 162.04 31.144 161.741 31.144C161.347 31.144 160.984 31.0747 160.653 30.936C160.323 30.7973 160.056 30.5787 159.853 30.28C159.661 29.9707 159.565 29.5707 159.565 29.08V24.264H158.461V22.616H159.565V19.896H161.709V22.616H163.469V24.264H161.709V28.36C161.72 28.648 161.8 28.856 161.949 28.984C162.099 29.112 162.285 29.176 162.509 29.176C162.733 29.176 162.952 29.1387 163.165 29.064C163.379 28.9893 163.549 28.9253 163.677 28.872L164.109 30.568ZM169.004 31.16C168.322 31.16 167.708 31.048 167.164 30.824C166.62 30.5893 166.156 30.2693 165.772 29.864C165.399 29.4587 165.111 28.9947 164.908 28.472C164.706 27.9493 164.604 27.4 164.604 26.824C164.604 26.2373 164.706 25.6827 164.908 25.16C165.111 24.6373 165.399 24.1733 165.772 23.768C166.156 23.3627 166.62 23.048 167.164 22.824C167.708 22.5893 168.322 22.472 169.004 22.472C169.687 22.472 170.295 22.5893 170.828 22.824C171.372 23.048 171.836 23.3627 172.22 23.768C172.604 24.1733 172.892 24.6373 173.084 25.16C173.287 25.6827 173.388 26.2373 173.388 26.824C173.388 27.4 173.287 27.9493 173.084 28.472C172.892 28.9947 172.604 29.4587 172.22 29.864C171.847 30.2693 171.388 30.5893 170.844 30.824C170.3 31.048 169.687 31.16 169.004 31.16ZM169.004 29.336C169.41 29.336 169.778 29.2293 170.108 29.016C170.439 28.792 170.7 28.4933 170.892 28.12C171.095 27.736 171.196 27.2987 171.196 26.808C171.196 26.328 171.095 25.896 170.892 25.512C170.7 25.128 170.439 24.8293 170.108 24.616C169.778 24.4027 169.41 24.296 169.004 24.296C168.588 24.296 168.215 24.408 167.884 24.632C167.554 24.8453 167.292 25.144 167.1 25.528C166.908 25.9013 166.812 26.3333 166.812 26.824C166.812 27.3147 166.908 27.752 167.1 28.136C167.292 28.5093 167.554 28.8027 167.884 29.016C168.215 29.2293 168.588 29.336 169.004 29.336ZM164.828 31.064L166.476 29.032L167.372 29.688L166.204 31.064H164.828ZM167.532 29.496L166.748 28.92L170.508 23.992L171.388 24.456L167.532 29.496ZM171.66 24.328L170.652 23.816L171.692 22.552H173.1L171.66 24.328ZM179.734 30.568C179.553 30.6427 179.334 30.728 179.078 30.824C178.822 30.92 178.545 30.9947 178.246 31.048C177.958 31.112 177.665 31.144 177.366 31.144C176.972 31.144 176.609 31.0747 176.278 30.936C175.948 30.7973 175.681 30.5787 175.478 30.28C175.286 29.9707 175.19 29.5707 175.19 29.08V24.264H174.086V22.616H175.19V19.896H177.334V22.616H179.094V24.264H177.334V28.36C177.345 28.648 177.425 28.856 177.574 28.984C177.724 29.112 177.91 29.176 178.134 29.176C178.358 29.176 178.577 29.1387 178.79 29.064C179.004 28.9893 179.174 28.9253 179.302 28.872L179.734 30.568ZM185.844 30.568C185.662 30.6427 185.444 30.728 185.188 30.824C184.932 30.92 184.654 30.9947 184.356 31.048C184.068 31.112 183.774 31.144 183.476 31.144C183.081 31.144 182.718 31.0747 182.388 30.936C182.057 30.7973 181.79 30.5787 181.588 30.28C181.396 29.9707 181.3 29.5707 181.3 29.08V24.264H180.196V22.616H181.3V19.896H183.444V22.616H185.204V24.264H183.444V28.36C183.454 28.648 183.534 28.856 183.684 28.984C183.833 29.112 184.02 29.176 184.244 29.176C184.468 29.176 184.686 29.1387 184.9 29.064C185.113 28.9893 185.284 28.9253 185.412 28.872L185.844 30.568ZM190.755 31.16C190.083 31.16 189.475 31.048 188.931 30.824C188.387 30.5893 187.923 30.2747 187.539 29.88C187.155 29.4747 186.856 29.016 186.643 28.504C186.44 27.9813 186.339 27.432 186.339 26.856C186.339 26.056 186.515 25.3253 186.867 24.664C187.229 24.0027 187.741 23.4747 188.403 23.08C189.075 22.6747 189.864 22.472 190.771 22.472C191.688 22.472 192.472 22.6747 193.123 23.08C193.773 23.4747 194.269 24.0027 194.611 24.664C194.963 25.3147 195.139 26.0187 195.139 26.776C195.139 26.904 195.133 27.0373 195.123 27.176C195.112 27.304 195.101 27.4107 195.091 27.496H188.611C188.653 27.9227 188.776 28.296 188.979 28.616C189.192 28.936 189.459 29.1813 189.779 29.352C190.109 29.512 190.461 29.592 190.835 29.592C191.261 29.592 191.661 29.4907 192.035 29.288C192.419 29.0747 192.68 28.7973 192.819 28.456L194.659 28.968C194.456 29.3947 194.163 29.7733 193.779 30.104C193.405 30.4347 192.963 30.696 192.451 30.888C191.939 31.0693 191.373 31.16 190.755 31.16ZM188.563 26.136H192.947C192.904 25.7093 192.781 25.3413 192.579 25.032C192.387 24.712 192.131 24.4667 191.811 24.296C191.491 24.1147 191.133 24.024 190.739 24.024C190.355 24.024 190.003 24.1147 189.683 24.296C189.373 24.4667 189.117 24.712 188.915 25.032C188.723 25.3413 188.605 25.7093 188.563 26.136ZM201.437 24.472C200.786 24.472 200.205 24.6 199.693 24.856C199.181 25.1013 198.813 25.4587 198.589 25.928V31H196.445V22.616H198.413V24.408C198.711 23.832 199.09 23.3787 199.549 23.048C200.007 22.7173 200.493 22.536 201.005 22.504C201.122 22.504 201.213 22.504 201.277 22.504C201.341 22.504 201.394 22.5093 201.437 22.52V24.472ZM209.989 31.16C209.306 31.16 208.693 31.048 208.149 30.824C207.605 30.5893 207.141 30.2693 206.757 29.864C206.383 29.4587 206.095 28.9947 205.893 28.472C205.69 27.9493 205.589 27.4 205.589 26.824C205.589 26.2373 205.69 25.6827 205.893 25.16C206.095 24.6373 206.383 24.1733 206.757 23.768C207.141 23.3627 207.605 23.048 208.149 22.824C208.693 22.5893 209.306 22.472 209.989 22.472C210.671 22.472 211.279 22.5893 211.813 22.824C212.357 23.048 212.821 23.3627 213.205 23.768C213.589 24.1733 213.877 24.6373 214.069 25.16C214.271 25.6827 214.373 26.2373 214.373 26.824C214.373 27.4 214.271 27.9493 214.069 28.472C213.877 28.9947 213.589 29.4587 213.205 29.864C212.831 30.2693 212.373 30.5893 211.829 30.824C211.285 31.048 210.671 31.16 209.989 31.16ZM207.797 26.824C207.797 27.3147 207.893 27.752 208.085 28.136C208.277 28.5093 208.538 28.8027 208.869 29.016C209.199 29.2293 209.573 29.336 209.989 29.336C210.394 29.336 210.762 29.2293 211.093 29.016C211.423 28.792 211.685 28.4933 211.877 28.12C212.079 27.736 212.181 27.2987 212.181 26.808C212.181 26.328 212.079 25.896 211.877 25.512C211.685 25.128 211.423 24.8293 211.093 24.616C210.762 24.4027 210.394 24.296 209.989 24.296C209.573 24.296 209.199 24.408 208.869 24.632C208.538 24.8453 208.277 25.144 208.085 25.528C207.893 25.9013 207.797 26.3333 207.797 26.824ZM220.844 31.16C220.193 31.16 219.617 31.016 219.116 30.728C218.625 30.4293 218.241 30.0293 217.964 29.528V34.408H215.82V22.616H217.692V24.056C218.012 23.5653 218.417 23.1813 218.908 22.904C219.398 22.616 219.958 22.472 220.588 22.472C221.153 22.472 221.67 22.584 222.14 22.808C222.62 23.032 223.036 23.3467 223.388 23.752C223.74 24.1467 224.012 24.6053 224.204 25.128C224.406 25.64 224.508 26.1947 224.508 26.792C224.508 27.6027 224.348 28.3387 224.028 29C223.718 29.6613 223.286 30.1893 222.732 30.584C222.188 30.968 221.558 31.16 220.844 31.16ZM220.124 29.336C220.454 29.336 220.753 29.2667 221.02 29.128C221.286 28.9893 221.516 28.8027 221.708 28.568C221.91 28.3227 222.06 28.0507 222.156 27.752C222.262 27.4427 222.316 27.1227 222.316 26.792C222.316 26.44 222.257 26.1147 222.14 25.816C222.033 25.5173 221.873 25.256 221.66 25.032C221.446 24.7973 221.196 24.616 220.908 24.488C220.63 24.36 220.326 24.296 219.996 24.296C219.793 24.296 219.585 24.3333 219.372 24.408C219.169 24.472 218.972 24.568 218.78 24.696C218.588 24.824 218.417 24.9733 218.268 25.144C218.129 25.3147 218.028 25.5013 217.964 25.704V27.672C218.092 27.9813 218.262 28.264 218.476 28.52C218.7 28.776 218.956 28.9787 219.244 29.128C219.532 29.2667 219.825 29.336 220.124 29.336ZM233.676 31.16C232.993 31.16 232.38 31.048 231.836 30.824C231.292 30.5893 230.828 30.2693 230.444 29.864C230.071 29.4587 229.783 28.9947 229.58 28.472C229.377 27.9493 229.276 27.4 229.276 26.824C229.276 26.2373 229.377 25.6827 229.58 25.16C229.783 24.6373 230.071 24.1733 230.444 23.768C230.828 23.3627 231.292 23.048 231.836 22.824C232.38 22.5893 232.993 22.472 233.676 22.472C234.359 22.472 234.967 22.5893 235.5 22.824C236.044 23.048 236.508 23.3627 236.892 23.768C237.276 24.1733 237.564 24.6373 237.756 25.16C237.959 25.6827 238.06 26.2373 238.06 26.824C238.06 27.4 237.959 27.9493 237.756 28.472C237.564 28.9947 237.276 29.4587 236.892 29.864C236.519 30.2693 236.06 30.5893 235.516 30.824C234.972 31.048 234.359 31.16 233.676 31.16ZM231.484 26.824C231.484 27.3147 231.58 27.752 231.772 28.136C231.964 28.5093 232.225 28.8027 232.556 29.016C232.887 29.2293 233.26 29.336 233.676 29.336C234.081 29.336 234.449 29.2293 234.78 29.016C235.111 28.792 235.372 28.4933 235.564 28.12C235.767 27.736 235.868 27.2987 235.868 26.808C235.868 26.328 235.767 25.896 235.564 25.512C235.372 25.128 235.111 24.8293 234.78 24.616C234.449 24.4027 234.081 24.296 233.676 24.296C233.26 24.296 232.887 24.408 232.556 24.632C232.225 24.8453 231.964 25.144 231.772 25.528C231.58 25.9013 231.484 26.3333 231.484 26.824ZM252.531 31H250.387V26.296C250.387 25.6347 250.27 25.1493 250.035 24.84C249.811 24.52 249.497 24.36 249.091 24.36C248.675 24.36 248.275 24.5253 247.891 24.856C247.518 25.176 247.251 25.5973 247.091 26.12V31H244.947V26.296C244.947 25.624 244.83 25.1333 244.595 24.824C244.371 24.5147 244.057 24.36 243.651 24.36C243.235 24.36 242.835 24.52 242.451 24.84C242.078 25.16 241.811 25.5813 241.651 26.104V31H239.507V22.616H241.443V24.168C241.763 23.624 242.19 23.208 242.723 22.92C243.257 22.6213 243.87 22.472 244.563 22.472C245.257 22.472 245.795 22.6427 246.179 22.984C246.574 23.3253 246.825 23.7467 246.931 24.248C247.273 23.672 247.705 23.2347 248.227 22.936C248.761 22.6267 249.358 22.472 250.019 22.472C250.542 22.472 250.963 22.568 251.283 22.76C251.614 22.9413 251.87 23.192 252.051 23.512C252.233 23.8213 252.355 24.1733 252.419 24.568C252.494 24.9627 252.531 25.3627 252.531 25.768V31ZM258.45 31V19.64H262.578C263.815 19.64 264.85 19.896 265.682 20.408C266.514 20.9093 267.138 21.592 267.554 22.456C267.97 23.3093 268.178 24.2587 268.178 25.304C268.178 26.456 267.948 27.4587 267.49 28.312C267.031 29.1653 266.38 29.8267 265.538 30.296C264.706 30.7653 263.719 31 262.578 31H258.45ZM265.954 25.304C265.954 24.568 265.82 23.9227 265.554 23.368C265.287 22.8027 264.903 22.3653 264.402 22.056C263.9 21.736 263.292 21.576 262.578 21.576H260.658V29.064H262.578C263.303 29.064 263.916 28.904 264.418 28.584C264.919 28.2533 265.298 27.8053 265.554 27.24C265.82 26.664 265.954 26.0187 265.954 25.304ZM273.583 31.16C272.911 31.16 272.303 31.048 271.759 30.824C271.215 30.5893 270.751 30.2747 270.367 29.88C269.983 29.4747 269.684 29.016 269.471 28.504C269.268 27.9813 269.167 27.432 269.167 26.856C269.167 26.056 269.343 25.3253 269.695 24.664C270.057 24.0027 270.569 23.4747 271.231 23.08C271.903 22.6747 272.692 22.472 273.599 22.472C274.516 22.472 275.3 22.6747 275.951 23.08C276.601 23.4747 277.097 24.0027 277.439 24.664C277.791 25.3147 277.967 26.0187 277.967 26.776C277.967 26.904 277.961 27.0373 277.951 27.176C277.94 27.304 277.929 27.4107 277.919 27.496H271.439C271.481 27.9227 271.604 28.296 271.807 28.616C272.02 28.936 272.287 29.1813 272.607 29.352C272.937 29.512 273.289 29.592 273.663 29.592C274.089 29.592 274.489 29.4907 274.863 29.288C275.247 29.0747 275.508 28.7973 275.647 28.456L277.487 28.968C277.284 29.3947 276.991 29.7733 276.607 30.104C276.233 30.4347 275.791 30.696 275.279 30.888C274.767 31.0693 274.201 31.16 273.583 31.16ZM271.391 26.136H275.775C275.732 25.7093 275.609 25.3413 275.407 25.032C275.215 24.712 274.959 24.4667 274.639 24.296C274.319 24.1147 273.961 24.024 273.567 24.024C273.183 24.024 272.831 24.1147 272.511 24.296C272.201 24.4667 271.945 24.712 271.743 25.032C271.551 25.3413 271.433 25.7093 271.391 26.136ZM287.065 31H284.921V26.296C284.921 25.624 284.804 25.1333 284.569 24.824C284.334 24.5147 284.009 24.36 283.593 24.36C283.305 24.36 283.012 24.4347 282.713 24.584C282.425 24.7333 282.164 24.9413 281.929 25.208C281.694 25.464 281.524 25.7627 281.417 26.104V31H279.273V22.616H281.209V24.168C281.422 23.8053 281.694 23.5013 282.025 23.256C282.356 23 282.734 22.808 283.161 22.68C283.598 22.5413 284.057 22.472 284.537 22.472C285.06 22.472 285.486 22.568 285.817 22.76C286.158 22.9413 286.414 23.192 286.585 23.512C286.766 23.8213 286.889 24.1733 286.953 24.568C287.028 24.9627 287.065 25.3627 287.065 25.768V31ZM104.184 50V38.64H108.312C109.549 38.64 110.584 38.896 111.416 39.408C112.248 39.9093 112.872 40.592 113.288 41.456C113.704 42.3093 113.912 43.2587 113.912 44.304C113.912 45.456 113.683 46.4587 113.224 47.312C112.765 48.1653 112.115 48.8267 111.272 49.296C110.44 49.7653 109.453 50 108.312 50H104.184ZM111.688 44.304C111.688 43.568 111.555 42.9227 111.288 42.368C111.021 41.8027 110.637 41.3653 110.136 41.056C109.635 40.736 109.027 40.576 108.312 40.576H106.392V48.064H108.312C109.037 48.064 109.651 47.904 110.152 47.584C110.653 47.2533 111.032 46.8053 111.288 46.24C111.555 45.664 111.688 45.0187 111.688 44.304ZM114.744 47.52C114.744 46.976 114.893 46.5013 115.192 46.096C115.501 45.68 115.928 45.36 116.472 45.136C117.016 44.912 117.64 44.8 118.344 44.8C118.696 44.8 119.053 44.8267 119.416 44.88C119.778 44.9333 120.093 45.0187 120.36 45.136V44.688C120.36 44.1547 120.2 43.744 119.88 43.456C119.57 43.168 119.106 43.024 118.488 43.024C118.029 43.024 117.592 43.104 117.176 43.264C116.76 43.424 116.322 43.6587 115.864 43.968L115.176 42.56C115.73 42.1973 116.296 41.9253 116.872 41.744C117.458 41.5627 118.072 41.472 118.712 41.472C119.906 41.472 120.834 41.7707 121.496 42.368C122.168 42.9653 122.504 43.8187 122.504 44.928V47.6C122.504 47.824 122.541 47.984 122.616 48.08C122.701 48.176 122.834 48.2347 123.016 48.256V50C122.824 50.032 122.648 50.0587 122.488 50.08C122.338 50.1013 122.21 50.112 122.104 50.112C121.677 50.112 121.352 50.016 121.128 49.824C120.914 49.632 120.781 49.3973 120.728 49.12L120.68 48.688C120.317 49.1573 119.864 49.52 119.32 49.776C118.776 50.032 118.221 50.16 117.656 50.16C117.101 50.16 116.6 50.048 116.152 49.824C115.714 49.5893 115.368 49.2747 115.112 48.88C114.866 48.4747 114.744 48.0213 114.744 47.52ZM119.96 47.952C120.077 47.824 120.173 47.696 120.248 47.568C120.322 47.44 120.36 47.3227 120.36 47.216V46.368C120.104 46.2613 119.826 46.1813 119.528 46.128C119.229 46.064 118.946 46.032 118.68 46.032C118.125 46.032 117.666 46.1547 117.304 46.4C116.952 46.6347 116.776 46.9493 116.776 47.344C116.776 47.5573 116.834 47.76 116.952 47.952C117.069 48.144 117.24 48.2987 117.464 48.416C117.688 48.5333 117.954 48.592 118.264 48.592C118.584 48.592 118.898 48.5333 119.208 48.416C119.517 48.288 119.768 48.1333 119.96 47.952ZM132.299 50H130.155V45.296C130.155 44.624 130.038 44.1333 129.803 43.824C129.569 43.5147 129.243 43.36 128.827 43.36C128.539 43.36 128.246 43.4347 127.947 43.584C127.659 43.7333 127.398 43.9413 127.163 44.208C126.929 44.464 126.758 44.7627 126.651 45.104V50H124.507V41.616H126.443V43.168C126.657 42.8053 126.929 42.5013 127.259 42.256C127.59 42 127.969 41.808 128.395 41.68C128.833 41.5413 129.291 41.472 129.771 41.472C130.294 41.472 130.721 41.568 131.051 41.76C131.393 41.9413 131.649 42.192 131.819 42.512C132.001 42.8213 132.123 43.1733 132.187 43.568C132.262 43.9627 132.299 44.3627 132.299 44.768V50ZM137.252 50.16C136.537 50.16 135.854 50.0427 135.204 49.808C134.553 49.5733 133.993 49.2267 133.524 48.768L134.292 47.376C134.793 47.7813 135.284 48.08 135.764 48.272C136.254 48.464 136.724 48.56 137.172 48.56C137.588 48.56 137.918 48.4853 138.164 48.336C138.42 48.1867 138.548 47.9627 138.548 47.664C138.548 47.4613 138.478 47.3067 138.34 47.2C138.201 47.0827 137.998 46.9813 137.732 46.896C137.476 46.8107 137.161 46.7147 136.788 46.608C136.169 46.4053 135.652 46.208 135.236 46.016C134.82 45.824 134.505 45.584 134.292 45.296C134.089 44.9973 133.988 44.6187 133.988 44.16C133.988 43.6053 134.126 43.1307 134.404 42.736C134.692 42.3307 135.086 42.016 135.588 41.792C136.1 41.568 136.697 41.456 137.38 41.456C137.977 41.456 138.542 41.552 139.076 41.744C139.609 41.9253 140.094 42.224 140.532 42.64L139.668 44C139.241 43.6693 138.836 43.4293 138.452 43.28C138.068 43.12 137.678 43.04 137.284 43.04C137.06 43.04 136.846 43.0667 136.644 43.12C136.452 43.1733 136.292 43.264 136.164 43.392C136.046 43.5093 135.988 43.68 135.988 43.904C135.988 44.1067 136.041 44.2667 136.148 44.384C136.265 44.4907 136.436 44.5867 136.66 44.672C136.894 44.7573 137.177 44.8533 137.508 44.96C138.18 45.152 138.745 45.3493 139.204 45.552C139.673 45.7547 140.025 46.0053 140.26 46.304C140.494 46.592 140.612 46.992 140.612 47.504C140.612 48.336 140.308 48.9867 139.7 49.456C139.092 49.9253 138.276 50.16 137.252 50.16ZM147.798 50L145.35 46.384L144.214 47.504V50H142.07V38.32H144.214V45.392L147.59 41.632H149.862L146.742 45.184L150.086 50H147.798ZM154.442 50.16C153.77 50.16 153.162 50.048 152.618 49.824C152.074 49.5893 151.61 49.2747 151.226 48.88C150.842 48.4747 150.543 48.016 150.33 47.504C150.127 46.9813 150.026 46.432 150.026 45.856C150.026 45.056 150.202 44.3253 150.554 43.664C150.917 43.0027 151.429 42.4747 152.09 42.08C152.762 41.6747 153.551 41.472 154.458 41.472C155.375 41.472 156.159 41.6747 156.81 42.08C157.461 42.4747 157.957 43.0027 158.298 43.664C158.65 44.3147 158.826 45.0187 158.826 45.776C158.826 45.904 158.821 46.0373 158.81 46.176C158.799 46.304 158.789 46.4107 158.778 46.496H152.298C152.341 46.9227 152.463 47.296 152.666 47.616C152.879 47.936 153.146 48.1813 153.466 48.352C153.797 48.512 154.149 48.592 154.522 48.592C154.949 48.592 155.349 48.4907 155.722 48.288C156.106 48.0747 156.367 47.7973 156.506 47.456L158.346 47.968C158.143 48.3947 157.85 48.7733 157.466 49.104C157.093 49.4347 156.65 49.696 156.138 49.888C155.626 50.0693 155.061 50.16 154.442 50.16ZM152.25 45.136H156.634C156.591 44.7093 156.469 44.3413 156.266 44.032C156.074 43.712 155.818 43.4667 155.498 43.296C155.178 43.1147 154.821 43.024 154.426 43.024C154.042 43.024 153.69 43.1147 153.37 43.296C153.061 43.4667 152.805 43.712 152.602 44.032C152.41 44.3413 152.293 44.7093 152.25 45.136ZM166.392 42.704V50H164.184V38.64H165.944L171.816 46.128V38.656H174.024V50H172.184L166.392 42.704ZM175.509 47.52C175.509 46.976 175.659 46.5013 175.957 46.096C176.267 45.68 176.693 45.36 177.237 45.136C177.781 44.912 178.405 44.8 179.109 44.8C179.461 44.8 179.819 44.8267 180.181 44.88C180.544 44.9333 180.859 45.0187 181.125 45.136V44.688C181.125 44.1547 180.965 43.744 180.645 43.456C180.336 43.168 179.872 43.024 179.253 43.024C178.795 43.024 178.357 43.104 177.941 43.264C177.525 43.424 177.088 43.6587 176.629 43.968L175.941 42.56C176.496 42.1973 177.061 41.9253 177.637 41.744C178.224 41.5627 178.837 41.472 179.477 41.472C180.672 41.472 181.6 41.7707 182.261 42.368C182.933 42.9653 183.269 43.8187 183.269 44.928V47.6C183.269 47.824 183.307 47.984 183.381 48.08C183.467 48.176 183.6 48.2347 183.781 48.256V50C183.589 50.032 183.413 50.0587 183.253 50.08C183.104 50.1013 182.976 50.112 182.869 50.112C182.443 50.112 182.117 50.016 181.893 49.824C181.68 49.632 181.547 49.3973 181.493 49.12L181.445 48.688C181.083 49.1573 180.629 49.52 180.085 49.776C179.541 50.032 178.987 50.16 178.421 50.16C177.867 50.16 177.365 50.048 176.917 49.824C176.48 49.5893 176.133 49.2747 175.877 48.88C175.632 48.4747 175.509 48.0213 175.509 47.52ZM180.725 47.952C180.843 47.824 180.939 47.696 181.013 47.568C181.088 47.44 181.125 47.3227 181.125 47.216V46.368C180.869 46.2613 180.592 46.1813 180.293 46.128C179.995 46.064 179.712 46.032 179.445 46.032C178.891 46.032 178.432 46.1547 178.069 46.4C177.717 46.6347 177.541 46.9493 177.541 47.344C177.541 47.5573 177.6 47.76 177.717 47.952C177.835 48.144 178.005 48.2987 178.229 48.416C178.453 48.5333 178.72 48.592 179.029 48.592C179.349 48.592 179.664 48.5333 179.973 48.416C180.283 48.288 180.533 48.1333 180.725 47.952ZM190.219 49.568C190.037 49.6427 189.819 49.728 189.563 49.824C189.307 49.92 189.029 49.9947 188.731 50.048C188.443 50.112 188.149 50.144 187.851 50.144C187.456 50.144 187.093 50.0747 186.763 49.936C186.432 49.7973 186.165 49.5787 185.963 49.28C185.771 48.9707 185.675 48.5707 185.675 48.08V43.264H184.571V41.616H185.675V38.896H187.819V41.616H189.579V43.264H187.819V47.36C187.829 47.648 187.909 47.856 188.059 47.984C188.208 48.112 188.395 48.176 188.619 48.176C188.843 48.176 189.061 48.1387 189.275 48.064C189.488 47.9893 189.659 47.9253 189.787 47.872L190.219 49.568ZM191.255 46.864V41.616H193.399V46.4C193.399 47.04 193.517 47.5253 193.751 47.856C193.986 48.176 194.333 48.336 194.791 48.336C195.069 48.336 195.341 48.2827 195.607 48.176C195.885 48.0587 196.135 47.888 196.359 47.664C196.594 47.44 196.791 47.1573 196.951 46.816V41.616H199.095V47.6C199.095 47.824 199.133 47.984 199.207 48.08C199.293 48.176 199.426 48.2347 199.607 48.256V50C199.394 50.032 199.213 50.0533 199.063 50.064C198.925 50.0853 198.797 50.096 198.679 50.096C198.295 50.096 197.981 50.0107 197.735 49.84C197.501 49.6587 197.362 49.4133 197.319 49.104L197.271 48.432C196.898 48.9973 196.418 49.4293 195.831 49.728C195.245 50.016 194.599 50.16 193.895 50.16C193.031 50.16 192.375 49.8827 191.927 49.328C191.479 48.7627 191.255 47.9413 191.255 46.864ZM206.218 43.472C205.567 43.472 204.986 43.6 204.474 43.856C203.962 44.1013 203.594 44.4587 203.37 44.928V50H201.226V41.616H203.194V43.408C203.493 42.832 203.871 42.3787 204.33 42.048C204.789 41.7173 205.274 41.536 205.786 41.504C205.903 41.504 205.994 41.504 206.058 41.504C206.122 41.504 206.175 41.5093 206.218 41.52V43.472ZM213.986 50.16C213.271 50.16 212.589 50.0427 211.938 49.808C211.287 49.5733 210.727 49.2267 210.258 48.768L211.026 47.376C211.527 47.7813 212.018 48.08 212.498 48.272C212.989 48.464 213.458 48.56 213.906 48.56C214.322 48.56 214.653 48.4853 214.898 48.336C215.154 48.1867 215.282 47.9627 215.282 47.664C215.282 47.4613 215.213 47.3067 215.074 47.2C214.935 47.0827 214.733 46.9813 214.466 46.896C214.21 46.8107 213.895 46.7147 213.522 46.608C212.903 46.4053 212.386 46.208 211.97 46.016C211.554 45.824 211.239 45.584 211.026 45.296C210.823 44.9973 210.722 44.6187 210.722 44.16C210.722 43.6053 210.861 43.1307 211.138 42.736C211.426 42.3307 211.821 42.016 212.322 41.792C212.834 41.568 213.431 41.456 214.114 41.456C214.711 41.456 215.277 41.552 215.81 41.744C216.343 41.9253 216.829 42.224 217.266 42.64L216.402 44C215.975 43.6693 215.57 43.4293 215.186 43.28C214.802 43.12 214.413 43.04 214.018 43.04C213.794 43.04 213.581 43.0667 213.378 43.12C213.186 43.1733 213.026 43.264 212.898 43.392C212.781 43.5093 212.722 43.68 212.722 43.904C212.722 44.1067 212.775 44.2667 212.882 44.384C212.999 44.4907 213.17 44.5867 213.394 44.672C213.629 44.7573 213.911 44.8533 214.242 44.96C214.914 45.152 215.479 45.3493 215.938 45.552C216.407 45.7547 216.759 46.0053 216.994 46.304C217.229 46.592 217.346 46.992 217.346 47.504C217.346 48.336 217.042 48.9867 216.434 49.456C215.826 49.9253 215.01 50.16 213.986 50.16ZM218.228 47.52C218.228 46.976 218.377 46.5013 218.676 46.096C218.985 45.68 219.412 45.36 219.956 45.136C220.5 44.912 221.124 44.8 221.828 44.8C222.18 44.8 222.537 44.8267 222.9 44.88C223.263 44.9333 223.577 45.0187 223.844 45.136V44.688C223.844 44.1547 223.684 43.744 223.364 43.456C223.055 43.168 222.591 43.024 221.972 43.024C221.513 43.024 221.076 43.104 220.66 43.264C220.244 43.424 219.807 43.6587 219.348 43.968L218.66 42.56C219.215 42.1973 219.78 41.9253 220.356 41.744C220.943 41.5627 221.556 41.472 222.196 41.472C223.391 41.472 224.319 41.7707 224.98 42.368C225.652 42.9653 225.988 43.8187 225.988 44.928V47.6C225.988 47.824 226.025 47.984 226.1 48.08C226.185 48.176 226.319 48.2347 226.5 48.256V50C226.308 50.032 226.132 50.0587 225.972 50.08C225.823 50.1013 225.695 50.112 225.588 50.112C225.161 50.112 224.836 50.016 224.612 49.824C224.399 49.632 224.265 49.3973 224.212 49.12L224.164 48.688C223.801 49.1573 223.348 49.52 222.804 49.776C222.26 50.032 221.705 50.16 221.14 50.16C220.585 50.16 220.084 50.048 219.636 49.824C219.199 49.5893 218.852 49.2747 218.596 48.88C218.351 48.4747 218.228 48.0213 218.228 47.52ZM223.444 47.952C223.561 47.824 223.657 47.696 223.732 47.568C223.807 47.44 223.844 47.3227 223.844 47.216V46.368C223.588 46.2613 223.311 46.1813 223.012 46.128C222.713 46.064 222.431 46.032 222.164 46.032C221.609 46.032 221.151 46.1547 220.788 46.4C220.436 46.6347 220.26 46.9493 220.26 47.344C220.26 47.5573 220.319 47.76 220.436 47.952C220.553 48.144 220.724 48.2987 220.948 48.416C221.172 48.5333 221.439 48.592 221.748 48.592C222.068 48.592 222.383 48.5333 222.692 48.416C223.001 48.288 223.252 48.1333 223.444 47.952ZM241.016 50H238.872V45.296C238.872 44.6347 238.754 44.1493 238.52 43.84C238.296 43.52 237.981 43.36 237.576 43.36C237.16 43.36 236.76 43.5253 236.376 43.856C236.002 44.176 235.736 44.5973 235.576 45.12V50H233.432V45.296C233.432 44.624 233.314 44.1333 233.08 43.824C232.856 43.5147 232.541 43.36 232.136 43.36C231.72 43.36 231.32 43.52 230.936 43.84C230.562 44.16 230.296 44.5813 230.136 45.104V50H227.992V41.616H229.928V43.168C230.248 42.624 230.674 42.208 231.208 41.92C231.741 41.6213 232.354 41.472 233.048 41.472C233.741 41.472 234.28 41.6427 234.664 41.984C235.058 42.3253 235.309 42.7467 235.416 43.248C235.757 42.672 236.189 42.2347 236.712 41.936C237.245 41.6267 237.842 41.472 238.504 41.472C239.026 41.472 239.448 41.568 239.768 41.76C240.098 41.9413 240.354 42.192 240.536 42.512C240.717 42.8213 240.84 43.1733 240.904 43.568C240.978 43.9627 241.016 44.3627 241.016 44.768V50ZM255.906 50H253.762V45.296C253.762 44.6347 253.645 44.1493 253.41 43.84C253.186 43.52 252.872 43.36 252.466 43.36C252.05 43.36 251.65 43.5253 251.266 43.856C250.893 44.176 250.626 44.5973 250.466 45.12V50H248.322V45.296C248.322 44.624 248.205 44.1333 247.97 43.824C247.746 43.5147 247.432 43.36 247.026 43.36C246.61 43.36 246.21 43.52 245.826 43.84C245.453 44.16 245.186 44.5813 245.026 45.104V50H242.882V41.616H244.818V43.168C245.138 42.624 245.565 42.208 246.098 41.92C246.632 41.6213 247.245 41.472 247.938 41.472C248.632 41.472 249.17 41.6427 249.554 41.984C249.949 42.3253 250.2 42.7467 250.306 43.248C250.648 42.672 251.08 42.2347 251.602 41.936C252.136 41.6267 252.733 41.472 253.394 41.472C253.917 41.472 254.338 41.568 254.658 41.76C254.989 41.9413 255.245 42.192 255.426 42.512C255.608 42.8213 255.73 43.1733 255.794 43.568C255.869 43.9627 255.906 44.3627 255.906 44.768V50ZM261.661 50.16C260.989 50.16 260.381 50.048 259.837 49.824C259.293 49.5893 258.829 49.2747 258.445 48.88C258.061 48.4747 257.762 48.016 257.549 47.504C257.346 46.9813 257.245 46.432 257.245 45.856C257.245 45.056 257.421 44.3253 257.773 43.664C258.136 43.0027 258.648 42.4747 259.309 42.08C259.981 41.6747 260.77 41.472 261.677 41.472C262.594 41.472 263.378 41.6747 264.029 42.08C264.68 42.4747 265.176 43.0027 265.517 43.664C265.869 44.3147 266.045 45.0187 266.045 45.776C266.045 45.904 266.04 46.0373 266.029 46.176C266.018 46.304 266.008 46.4107 265.997 46.496H259.517C259.56 46.9227 259.682 47.296 259.885 47.616C260.098 47.936 260.365 48.1813 260.685 48.352C261.016 48.512 261.368 48.592 261.741 48.592C262.168 48.592 262.568 48.4907 262.941 48.288C263.325 48.0747 263.586 47.7973 263.725 47.456L265.565 47.968C265.362 48.3947 265.069 48.7733 264.685 49.104C264.312 49.4347 263.869 49.696 263.357 49.888C262.845 50.0693 262.28 50.16 261.661 50.16ZM259.469 45.136H263.853C263.81 44.7093 263.688 44.3413 263.485 44.032C263.293 43.712 263.037 43.4667 262.717 43.296C262.397 43.1147 262.04 43.024 261.645 43.024C261.261 43.024 260.909 43.1147 260.589 43.296C260.28 43.4667 260.024 43.712 259.821 44.032C259.629 44.3413 259.512 44.7093 259.469 45.136ZM275.143 50H272.999V45.296C272.999 44.624 272.882 44.1333 272.647 43.824C272.412 43.5147 272.087 43.36 271.671 43.36C271.383 43.36 271.09 43.4347 270.791 43.584C270.503 43.7333 270.242 43.9413 270.007 44.208C269.772 44.464 269.602 44.7627 269.495 45.104V50H267.351V41.616H269.287V43.168C269.5 42.8053 269.772 42.5013 270.103 42.256C270.434 42 270.812 41.808 271.239 41.68C271.676 41.5413 272.135 41.472 272.615 41.472C273.138 41.472 273.564 41.568 273.895 41.76C274.236 41.9413 274.492 42.192 274.663 42.512C274.844 42.8213 274.967 43.1733 275.031 43.568C275.106 43.9627 275.143 44.3627 275.143 44.768V50Z" fill="white"/>
<g clip-path="url(#clip0_1280_7)">
<path d="M59.4157 20.6001H38.2678C30.1819 20.6001 23.627 27.0472 23.627 35.0001C23.627 42.953 30.1819 49.4001 38.2678 49.4001H59.4157C67.5016 49.4001 74.0565 42.953 74.0565 35.0001C74.0565 27.0472 67.5016 20.6001 59.4157 20.6001Z" fill="#E21E27"/>
<path d="M60.1794 19C69.149 19 76.4445 26.1754 76.4447 34.9985C76.4447 43.8217 69.1482 50.9998 60.1787 51H38.2692C29.2982 51 22 43.8196 22 34.9985C22.0002 26.1776 29.2995 19 38.2692 19H60.1794ZM53.0298 35.7218C51.9098 40.8542 48.2441 43.2485 41.3722 43.2485H27.679C30.1559 46.3097 33.9774 48.2776 38.2555 48.2776H60.165C64.4431 48.2775 68.2624 46.3123 70.7393 43.25H59.0847L59.0863 43.2485L53.0298 35.7218ZM63.9951 34.0104L71.2802 42.5327C72.7894 40.3883 73.6759 37.788 73.676 34.9881C73.676 32.0328 72.689 29.299 71.023 27.0893L63.9951 34.0104ZM32.4419 37.3065H40.2814C42.599 37.3065 43.3 36.3627 43.8187 34.5461C44.3317 32.7498 43.0421 32.0529 41.4585 32.0528H34.3853L32.4419 37.3065ZM38.2547 21.6987C34.1451 21.6988 30.4581 23.5122 27.9778 26.3683H43.349L43.3497 26.3691C48.7902 26.3691 52.8894 27.731 53.312 32.2396L59.0378 26.3683H70.4397C67.9594 23.5133 64.2735 21.6987 60.165 21.6987H38.2547Z" fill="white"/>
</g>
<defs>
<clipPath id="clip0_1280_7">
<rect width="55" height="32" fill="white" transform="translate(22 19)"/>
</clipPath>
</defs>
</svg>
