<svg width="520" height="536" viewBox="0 0 520 536" fill="none" xmlns="http://www.w3.org/2000/svg">
<g clip-path="url(#clip0_1349_9)">
<path d="M469.32 2.76001H277.33C253.267 2.76001 233.76 22.267 233.76 46.33V491.03C233.76 515.093 253.267 534.6 277.33 534.6H469.32C493.383 534.6 512.89 515.093 512.89 491.03V46.33C512.89 22.267 493.383 2.76001 469.32 2.76001Z" fill="#A8B9A3"/>
<path d="M468.13 14.35H278.52C260.83 14.35 246.49 28.6903 246.49 46.38V492.33C246.49 510.02 260.83 524.36 278.52 524.36H468.13C485.82 524.36 500.16 510.02 500.16 492.33V46.38C500.16 28.6903 485.82 14.35 468.13 14.35Z" fill="white"/>
<path d="M321.04 11.42H425.61V24.64C425.61 32.9 418.91 39.6 410.65 39.6H336C327.74 39.6 321.04 32.9 321.04 24.64V11.42Z" fill="#A8B9A3"/>
<path d="M230.81 218.43H237.38V260.64H230.81C228.93 260.64 227.4 259.11 227.4 257.23V221.83C227.4 219.95 228.93 218.42 230.81 218.42V218.43Z" fill="#A8B9A3"/>
<path d="M230.81 162.65H237.38V204.86H230.81C228.93 204.86 227.4 203.33 227.4 201.45V166.05C227.4 164.17 228.93 162.64 230.81 162.64V162.65Z" fill="#A8B9A3"/>
<path d="M515.85 247.71H509.28V176.08H515.85C517.73 176.08 519.26 177.61 519.26 179.49V244.3C519.26 246.18 517.73 247.71 515.85 247.71Z" fill="#A8B9A3"/>
<path d="M230.81 120.44H237.38V143.48H230.81C228.93 143.48 227.4 141.95 227.4 140.07V123.84C227.4 121.96 228.93 120.43 230.81 120.43V120.44Z" fill="#A8B9A3"/>
<g filter="url(#filter0_d_1349_9)">
<path d="M266.15 107.39V217.91C266.15 225.007 271.903 230.76 279 230.76H467.65C474.747 230.76 480.5 225.007 480.5 217.91V107.39C480.5 100.293 474.747 94.54 467.65 94.54H279C271.903 94.54 266.15 100.293 266.15 107.39Z" fill="#FFF4E1"/>
</g>
<g clip-path="url(#clip1_1349_9)">
<path d="M451.851 111.1H437.239C431.653 111.1 427.124 115.532 427.124 121C427.124 126.468 431.653 130.9 437.239 130.9H451.851C457.437 130.9 461.966 126.468 461.966 121C461.966 115.532 457.437 111.1 451.851 111.1Z" fill="#E21E27"/>
<path d="M452.378 110C458.576 110 463.616 114.933 463.616 120.999C463.616 127.065 458.575 132 452.378 132H437.241C431.042 132 426 127.063 426 120.999C426 114.935 431.043 110 437.241 110H452.378ZM447.439 121.496C446.665 125.025 444.132 126.671 439.384 126.671H429.924C431.635 128.775 434.275 130.128 437.231 130.128H452.369C455.324 130.128 457.963 128.777 459.674 126.672H451.622L451.623 126.671L447.439 121.496ZM455.015 120.32L460.048 126.179C461.091 124.704 461.703 122.917 461.703 120.992C461.703 118.96 461.021 117.081 459.87 115.561L455.015 120.32ZM433.214 122.586H438.631C440.232 122.586 440.716 121.937 441.075 120.688C441.429 119.453 440.538 118.974 439.444 118.974H434.557L433.214 122.586ZM437.231 111.855C434.391 111.855 431.844 113.102 430.13 115.066H440.75L440.751 115.066C444.51 115.066 447.342 116.003 447.634 119.102L451.59 115.066H459.467C457.754 113.103 455.207 111.855 452.369 111.855H437.231Z" fill="white"/>
</g>
<g filter="url(#filter1_d_1349_9)">
<path d="M173.21 11H12.85C5.75314 11 0 16.7531 0 23.85V290.92C0 298.017 5.75314 303.77 12.85 303.77H173.21C180.307 303.77 186.06 298.017 186.06 290.92V23.85C186.06 16.7531 180.307 11 173.21 11Z" fill="#FFF4E1"/>
</g>
<path d="M123.14 47.5H100.03C98.7542 47.5 97.72 48.5342 97.72 49.81V83.26C97.72 84.5358 98.7542 85.57 100.03 85.57H123.14C124.416 85.57 125.45 84.5358 125.45 83.26V49.81C125.45 48.5342 124.416 47.5 123.14 47.5Z" fill="#ACABAA"/>
<g clip-path="url(#clip2_1349_9)">
<path d="M151.351 264.6H136.739C131.153 264.6 126.624 269.032 126.624 274.5C126.624 279.968 131.153 284.4 136.739 284.4H151.351C156.937 284.4 161.466 279.968 161.466 274.5C161.466 269.032 156.937 264.6 151.351 264.6Z" fill="#E21E27"/>
<path d="M151.878 263.5C158.076 263.5 163.116 268.433 163.116 274.499C163.116 280.565 158.075 285.5 151.878 285.5H136.741C130.542 285.5 125.5 280.563 125.5 274.499C125.5 268.435 130.543 263.5 136.741 263.5H151.878ZM146.939 274.996C146.165 278.525 143.632 280.171 138.884 280.171H129.424C131.135 282.275 133.775 283.628 136.731 283.628H151.869C154.824 283.628 157.463 282.277 159.174 280.172H151.122L151.123 280.171L146.939 274.996ZM154.515 273.82L159.548 279.679C160.591 278.204 161.203 276.417 161.203 274.492C161.203 272.46 160.521 270.581 159.37 269.061L154.515 273.82ZM132.714 276.086H138.131C139.732 276.086 140.216 275.437 140.575 274.188C140.929 272.953 140.038 272.474 138.944 272.474H134.057L132.714 276.086ZM136.731 265.355C133.891 265.355 131.344 266.602 129.63 268.566H140.25L140.251 268.566C144.01 268.566 146.842 269.503 147.134 272.602L151.09 268.566H158.967C157.254 266.603 154.707 265.355 151.869 265.355H136.731Z" fill="white"/>
</g>
</g>
<defs>
<filter id="filter0_d_1349_9" x="262.15" y="94.54" width="222.35" height="144.22" filterUnits="userSpaceOnUse" color-interpolation-filters="sRGB">
<feFlood flood-opacity="0" result="BackgroundImageFix"/>
<feColorMatrix in="SourceAlpha" type="matrix" values="0 0 0 0 0 0 0 0 0 0 0 0 0 0 0 0 0 0 127 0" result="hardAlpha"/>
<feOffset dy="4"/>
<feGaussianBlur stdDeviation="2"/>
<feComposite in2="hardAlpha" operator="out"/>
<feColorMatrix type="matrix" values="0 0 0 0 0 0 0 0 0 0 0 0 0 0 0 0 0 0 0.25 0"/>
<feBlend mode="normal" in2="BackgroundImageFix" result="effect1_dropShadow_1349_9"/>
<feBlend mode="normal" in="SourceGraphic" in2="effect1_dropShadow_1349_9" result="shape"/>
</filter>
<filter id="filter1_d_1349_9" x="-4" y="11" width="194.06" height="300.77" filterUnits="userSpaceOnUse" color-interpolation-filters="sRGB">
<feFlood flood-opacity="0" result="BackgroundImageFix"/>
<feColorMatrix in="SourceAlpha" type="matrix" values="0 0 0 0 0 0 0 0 0 0 0 0 0 0 0 0 0 0 127 0" result="hardAlpha"/>
<feOffset dy="4"/>
<feGaussianBlur stdDeviation="2"/>
<feComposite in2="hardAlpha" operator="out"/>
<feColorMatrix type="matrix" values="0 0 0 0 0 0 0 0 0 0 0 0 0 0 0 0 0 0 0.25 0"/>
<feBlend mode="normal" in2="BackgroundImageFix" result="effect1_dropShadow_1349_9"/>
<feBlend mode="normal" in="SourceGraphic" in2="effect1_dropShadow_1349_9" result="shape"/>
</filter>
<clipPath id="clip0_1349_9">
<rect width="519.25" height="535.1" fill="white"/>
</clipPath>
<clipPath id="clip1_1349_9">
<rect width="38" height="22" fill="white" transform="translate(426 110)"/>
</clipPath>
<clipPath id="clip2_1349_9">
<rect width="38" height="22" fill="white" transform="translate(125.5 263.5)"/>
</clipPath>
</defs>
</svg>
