<svg width="658" height="788" viewBox="0 0 658 788" fill="none" xmlns="http://www.w3.org/2000/svg">
<path d="M523.331 201.434C458.487 176.463 499.658 176.463 523.331 79.5776C532.251 79.5776 551.327 86.3696 556.268 113.538C562.443 147.497 589.204 131.516 638.609 142.503C678.133 151.293 644.785 200.768 623.17 224.407C611.505 225.073 575.206 221.41 523.331 201.434Z" fill="#24352D" stroke="#DDE2CC"/>
<path d="M272.791 45.61C309.377 12.5863 344.236 1.82854 357.093 0.577637L338.91 45.61C344.971 56.5107 357.093 86.3536 357.093 118.52C357.093 158.727 315.768 167.841 309.707 212.873C303.646 257.906 323.482 260.05 325.135 293.824C326.788 327.599 362.051 303.474 395.111 303.474C428.171 303.474 409.988 332.96 395.111 373.167C383.21 405.333 352.684 405.512 338.91 401.58V357.62C331.196 366.555 315.768 394.504 315.768 434.819C315.768 485.212 230.364 515.77 230.364 547.4C230.364 579.03 197.855 650.331 257.914 654.084C317.972 657.836 285.463 703.405 267.281 693.219C249.098 683.033 220.997 705.549 197.855 726.993C174.714 748.437 146.062 704.477 94.2687 693.219C42.4753 681.961 76.6369 671.775 76.6369 578.493C76.6369 485.212 12.1708 566.163 2.80391 495.398C-6.56298 424.633 15.4767 312.588 18.2317 240.75C20.9867 168.913 80.4939 153.366 163.143 153.366C245.792 153.366 227.058 86.8897 272.791 45.61Z" fill="#24352D"/>
<path d="M257.914 612.268C257.914 640.145 309.707 654.084 354.888 654.084H366.459C376.01 646.578 395.111 626.206 395.111 604.762C395.111 577.957 376.928 561.874 354.888 553.833C332.849 545.791 325.135 529.172 298.136 530.244C271.137 531.317 273.892 547.4 246.343 547.4C218.793 547.4 257.914 584.391 257.914 612.268Z" fill="#24352D"/>
<path d="M382.438 669.63C355.99 705.549 366.459 701.26 366.459 726.993L374.724 744.684C379.683 740.217 389.601 724.527 389.601 697.508C389.601 663.733 407.784 679.816 409.988 647.114C412.192 614.412 409.988 630.495 382.438 669.63Z" fill="#24352D"/>
<path d="M336.706 718.952C330.277 715.556 314.225 702.654 301.442 678.208V675.528C307.319 680.531 323.372 689.466 340.563 685.177C357.754 680.889 357.276 694.112 354.888 701.26L336.706 718.952Z" fill="#24352D"/>
<path d="M441.394 609.587C445.802 653.011 461.781 625.134 515.227 636.392C568.289 647.569 515.448 675.127 565.368 675.523C565.735 675.525 570.768 674.348 587.959 669.63C609.447 663.733 566.47 622.454 608.345 620.309C641.846 618.594 622.304 592.075 608.345 579.03C600.08 572.06 584.432 554.691 587.959 540.966C592.367 523.811 611.651 540.966 640.854 540.966C670.057 540.966 651.323 530.244 635.344 486.284C622.561 451.116 633.691 425.884 640.854 417.663C631.12 412.302 606.913 401.58 587.959 401.58C564.266 401.58 531.206 421.952 531.206 439.644C531.206 457.335 543.328 463.768 515.227 479.315C487.127 494.862 515.227 449.829 515.227 434.819C515.227 419.808 493.188 434.819 449.108 434.819C405.029 434.819 478.311 456.799 468.944 493.79C459.577 530.781 395.111 492.181 418.253 514.161C441.394 536.142 436.986 566.163 441.394 609.587Z" fill="#24352D"/>
<path d="M581.347 678.208C560.96 678.208 569.776 685.177 581.347 701.26L587.959 706.621C590.714 703.583 596.995 695.042 600.08 685.177C603.937 672.847 627.63 681.961 640.854 675.523C651.433 670.373 623.589 665.875 608.345 664.269C606.141 668.916 597.656 678.208 581.347 678.208Z" fill="#24352D"/>
<path d="M546.634 693.219C526.798 685.177 540.022 685.177 515.227 685.177C515.227 689.287 516.44 700.724 521.288 713.591C527.349 729.674 535.614 722.168 535.614 744.684C535.614 767.201 528.451 790.789 535.614 785.964C542.777 781.139 546.634 769.881 546.634 749.509C546.634 729.138 575.837 706.621 578.592 703.405C581.347 700.188 566.47 701.26 546.634 693.219Z" fill="#24352D"/>
<path d="M439.19 682.497C429.824 679.816 418.253 685.177 418.253 697.508L430.375 718.952C423.579 718.952 413.073 721.418 425.416 731.282C440.843 743.612 451.863 736.107 459.577 749.509C467.291 762.912 476.107 757.015 488.229 749.509C500.351 742.004 490.433 763.448 512.472 764.52C534.512 765.592 525.145 749.509 528.451 736.107C531.096 725.385 518.901 713.412 512.472 708.766C507.697 710.374 494.4 711.553 479.413 703.405C460.679 693.219 448.557 685.177 439.19 682.497Z" fill="#24352D"/>
<path d="M566.47 675.528C566.097 675.528 565.73 675.526 565.368 675.523M565.368 675.523C515.448 675.127 568.289 647.569 515.227 636.392C461.781 625.134 445.802 653.011 441.394 609.587C436.986 566.163 441.394 536.142 418.253 514.161C395.111 492.181 459.577 530.781 468.944 493.79C478.311 456.799 405.029 434.819 449.108 434.819C493.188 434.819 515.227 419.808 515.227 434.819C515.227 449.829 487.127 494.862 515.227 479.315C543.328 463.768 531.206 457.335 531.206 439.644C531.206 421.952 564.266 401.58 587.959 401.58C606.913 401.58 631.12 412.302 640.854 417.663C633.691 425.884 622.561 451.116 635.344 486.284C651.323 530.244 670.057 540.966 640.854 540.966C611.651 540.966 592.367 523.811 587.959 540.966C584.432 554.691 600.08 572.06 608.345 579.03C622.304 592.075 641.846 618.594 608.345 620.309C566.47 622.454 609.447 663.733 587.959 669.63C570.768 674.348 565.735 675.525 565.368 675.523ZM357.093 0.577637C344.236 1.82854 309.376 12.5863 272.791 45.61C227.058 86.8897 245.792 153.366 163.143 153.366C80.4939 153.366 20.9867 168.913 18.2317 240.75C15.4767 312.588 -6.56298 424.633 2.80391 495.398C12.1708 566.163 76.6369 485.212 76.6369 578.493C76.6369 671.775 42.4754 681.961 94.2687 693.219C146.062 704.477 174.714 748.437 197.855 726.993C220.997 705.549 249.098 683.033 267.281 693.219C285.463 703.405 317.972 657.836 257.914 654.084C197.855 650.331 230.364 579.03 230.364 547.4C230.364 515.77 315.768 485.212 315.768 434.819C315.768 394.504 331.196 366.555 338.91 357.62V401.58C352.684 405.512 383.21 405.333 395.111 373.167C409.988 332.96 428.171 303.474 395.111 303.474C362.051 303.474 326.788 327.599 325.135 293.824C323.482 260.05 303.646 257.906 309.707 212.873C315.768 167.841 357.093 158.727 357.093 118.52C357.093 86.3536 344.971 56.5107 338.91 45.61L357.093 0.577637ZM354.888 654.084C309.707 654.084 257.914 640.145 257.914 612.268C257.914 584.391 218.793 547.4 246.343 547.4C273.892 547.4 271.138 531.317 298.136 530.244C325.135 529.172 332.849 545.791 354.888 553.833C376.928 561.874 395.111 577.957 395.111 604.762C395.111 626.206 376.01 646.578 366.459 654.084H354.888ZM366.459 726.993C366.459 701.26 355.99 705.549 382.438 669.63C409.988 630.495 412.192 614.412 409.988 647.114C407.784 679.816 389.601 663.733 389.601 697.508C389.601 724.527 379.683 740.217 374.724 744.684L366.459 726.993ZM301.442 678.208C314.225 702.654 330.277 715.556 336.706 718.952L354.888 701.26C357.276 694.112 357.754 680.889 340.563 685.177C323.372 689.466 307.319 680.531 301.442 675.528V678.208ZM581.347 701.26C569.776 685.177 560.96 678.208 581.347 678.208C597.656 678.208 606.141 668.916 608.345 664.269C623.589 665.875 651.433 670.373 640.854 675.523C627.63 681.961 603.937 672.847 600.08 685.177C596.995 695.042 590.714 703.583 587.959 706.621L581.347 701.26ZM515.227 685.177C540.022 685.177 526.798 685.177 546.634 693.219C566.47 701.26 581.347 700.188 578.592 703.405C575.837 706.621 546.634 729.138 546.634 749.509C546.634 769.881 542.777 781.139 535.614 785.964C528.451 790.789 535.614 767.201 535.614 744.684C535.614 722.168 527.349 729.674 521.288 713.591C516.44 700.724 515.227 689.287 515.227 685.177ZM418.253 697.508C418.253 685.177 429.824 679.816 439.19 682.497C448.557 685.177 460.679 693.219 479.413 703.405C494.4 711.553 507.697 710.374 512.473 708.766C518.901 713.412 531.096 725.385 528.451 736.107C525.145 749.509 534.512 765.592 512.473 764.52C490.433 763.448 500.351 742.004 488.229 749.509C476.107 757.015 467.291 762.912 459.577 749.509C451.863 736.107 440.843 743.612 425.416 731.282C413.073 721.418 423.579 718.952 430.375 718.952L418.253 697.508Z" stroke="#DDE2CC"/>
</svg>
