<svg width="51" height="63" viewBox="0 0 51 63" fill="none" xmlns="http://www.w3.org/2000/svg">
<g clip-path="url(#clip0_1204_6)">
<path d="M23.0024 51.8608C23.0024 52.7725 23.3646 53.6469 24.0093 54.2915C24.6539 54.9362 25.5283 55.2983 26.4399 55.2983C27.3516 55.2983 28.226 54.9362 28.8706 54.2915C29.5153 53.6469 29.8774 52.7725 29.8774 51.8608C29.8774 51.3138 29.6601 50.7892 29.2733 50.4024C28.8866 50.0156 28.3619 49.7983 27.8149 49.7983H25.0649C24.5179 49.7983 23.9933 50.0156 23.6065 50.4024C23.2197 50.7892 23.0024 51.3138 23.0024 51.8608Z" stroke="#24352D" stroke-linecap="round" stroke-linejoin="round"/>
<path d="M38.1274 54.6108C38.1274 55.5225 38.4896 56.3969 39.1343 57.0415C39.7789 57.6862 40.6533 58.0483 41.5649 58.0483C42.4766 58.0483 43.351 57.6862 43.9956 57.0415C44.6403 56.3969 45.0024 55.5225 45.0024 54.6108C45.0024 54.0638 44.7851 53.5392 44.3983 53.1524C44.0116 52.7656 43.4869 52.5483 42.9399 52.5483H40.1899C39.6429 52.5483 39.1183 52.7656 38.7315 53.1524C38.3447 53.5392 38.1274 54.0638 38.1274 54.6108Z" stroke="#24352D" stroke-linecap="round" stroke-linejoin="round"/>
<path d="M29.2174 45.6733H23.6624C23.1839 45.6733 22.7301 45.4272 22.5308 44.9913C20.7075 40.9983 21.4665 33.2983 26.4399 33.2983C31.4133 33.2983 32.1736 40.9983 30.349 44.9913C30.1496 45.4272 29.6959 45.6733 29.216 45.6733" stroke="#24352D" stroke-linecap="round" stroke-linejoin="round"/>
<path d="M44.3424 48.4233H38.7874C38.3089 48.4233 37.8551 48.1772 37.6558 47.7413C35.8325 43.7483 36.5915 36.0483 41.5649 36.0483C46.5383 36.0483 47.2986 43.7483 45.474 47.7413C45.2746 48.1772 44.8209 48.4233 44.341 48.4233" stroke="#24352D" stroke-linecap="round" stroke-linejoin="round"/>
</g>
<g clip-path="url(#clip1_1204_6)">
<path d="M5.99052 20.4986C5.88618 21.297 6.10286 22.1042 6.5929 22.7426C7.08294 23.381 7.8062 23.7984 8.60356 23.9029C9.40092 24.0073 10.2071 23.7904 10.8447 23.2997C11.4823 22.809 11.8991 22.0848 12.0034 21.2864C12.066 20.8074 11.936 20.3231 11.642 19.94C11.348 19.557 10.914 19.3066 10.4356 19.2439L8.03043 18.9287C7.55202 18.8661 7.06833 18.9962 6.68577 19.2906C6.30321 19.585 6.05312 20.0196 5.99052 20.4986Z" stroke="#24352D" stroke-linecap="round" stroke-linejoin="round"/>
<path d="M18.9041 24.6401C18.7998 25.4385 19.0164 26.2457 19.5065 26.8842C19.9965 27.5226 20.7198 27.9399 21.5171 28.0444C22.3145 28.1489 23.1206 27.9319 23.7582 27.4412C24.3958 26.9506 24.8127 26.2264 24.917 25.428C24.9796 24.9489 24.8496 24.4646 24.5556 24.0816C24.2615 23.6985 23.8276 23.4481 23.3492 23.3854L20.944 23.0703C20.4656 23.0076 19.9819 23.1378 19.5993 23.4322C19.2168 23.7266 18.9667 24.1611 18.9041 24.6401Z" stroke="#24352D" stroke-linecap="round" stroke-linejoin="round"/>
<path d="M12.1343 15.7922L7.27583 15.1556C6.85733 15.1008 6.48865 14.8332 6.36416 14.4287C5.22652 10.7229 6.77158 4.06667 11.1213 4.63659C15.471 5.20652 15.2548 12.0369 13.202 15.3246C12.9778 15.6835 12.5527 15.847 12.133 15.792" stroke="#24352D" stroke-linecap="round" stroke-linejoin="round"/>
<path d="M25.0478 19.9337L20.1894 19.2971C19.7709 19.2423 19.4022 18.9748 19.2777 18.5702C18.1401 14.8644 19.6852 8.20821 24.0349 8.77813C28.3846 9.34806 28.1684 16.1784 26.1156 19.4661C25.8913 19.825 25.4663 19.9885 25.0466 19.9335" stroke="#24352D" stroke-linecap="round" stroke-linejoin="round"/>
</g>
<defs>
<clipPath id="clip0_1204_6">
<rect width="33" height="33" fill="white" transform="translate(17.5024 29.1733)"/>
</clipPath>
<clipPath id="clip1_1204_6">
<rect width="29.1086" height="29.1452" fill="white" transform="matrix(0.991525 0.129915 -0.129583 0.991569 3.77661 0)"/>
</clipPath>
</defs>
</svg>
