<svg width="46" height="46" viewBox="0 0 46 46" fill="none" xmlns="http://www.w3.org/2000/svg">
<circle cx="23" cy="23" r="21.5" stroke="#24352D" stroke-width="3"/>
<path d="M17.2227 11.5566H28.7773C30.428 11.5566 32.011 12.2113 33.1777 13.376C34.3444 14.5408 35 16.121 35 17.7676V29.3037C35 30.9503 34.3444 32.5305 33.1777 33.6953C32.011 34.8599 30.4279 35.5146 28.7773 35.5146H17.2227C15.5721 35.5146 13.989 34.8599 12.8223 33.6953C11.6556 32.5305 11 30.9503 11 29.3037V17.7676C11 16.121 11.6556 14.5408 12.8223 13.376C13.9162 12.284 15.3757 11.6405 16.9141 11.5645L17.2227 11.5566ZM29.5 14.6035C28.9017 14.6036 28.3235 14.8234 27.876 15.2207C27.4287 15.6179 27.1425 16.1656 27.0723 16.7598L27.0693 16.791L27.0674 16.8223L27.0566 17.0059L27.0557 17.0332V17.0615C27.0562 17.5827 27.225 18.0861 27.5303 18.502C27.2905 18.2868 27.0349 18.0875 26.7646 17.9072C25.7198 17.2103 24.5031 16.8178 23.251 16.7715L23 16.7676C21.2616 16.7676 19.5892 17.4342 18.3291 18.6309C17.0691 19.8275 16.3175 21.4625 16.2305 23.1973V23.21L16.2295 23.2217L16.2227 23.5107V23.5352C16.2227 24.8742 16.6203 26.1838 17.3652 27.2969C18.1102 28.4098 19.1691 29.277 20.4072 29.7891C21.6454 30.301 23.008 30.4348 24.3223 30.1738C25.6365 29.9128 26.8441 29.2686 27.792 28.3223C28.74 27.3758 29.3858 26.1696 29.6475 24.8564C29.9091 23.5433 29.7748 22.1822 29.2617 20.9453C28.9689 20.2395 28.5597 19.5921 28.0557 19.0283C28.4329 19.3044 28.8837 19.4693 29.3564 19.4971C29.9778 19.5335 30.5906 19.3318 31.0684 18.9326C31.5462 18.5333 31.854 17.9662 31.9277 17.3477L31.9307 17.3164L31.9326 17.2842L31.9434 17.1016L31.9443 17.0732V17.0459C31.9443 16.3978 31.6861 15.7762 31.2275 15.3184C30.8263 14.9179 30.3003 14.6716 29.7412 14.6162L29.5 14.6035Z" fill="#24352D" stroke="#24352D" stroke-width="2"/>
</svg>
