<svg width="82" height="87" viewBox="0 0 82 87" fill="none" xmlns="http://www.w3.org/2000/svg">
<g clip-path="url(#clip0_1363_4)">
<path d="M41 68.875H20.5C17.7815 68.875 15.1744 67.7292 13.2522 65.6898C11.3299 63.6503 10.25 60.8842 10.25 58V29C10.25 26.1158 11.3299 23.3497 13.2522 21.3102C15.1744 19.2708 17.7815 18.125 20.5 18.125H61.5C64.2185 18.125 66.8256 19.2708 68.7478 21.3102C70.6701 23.3497 71.75 26.1158 71.75 29V45.3125" stroke="#24352D" stroke-width="3" stroke-linecap="round" stroke-linejoin="round"/>
<path d="M10.25 36.25H71.75" stroke="#24352D" stroke-width="3" stroke-linecap="round" stroke-linejoin="round"/>
<path d="M54.6666 68.875H75.1666" stroke="#24352D" stroke-width="3" stroke-linecap="round" stroke-linejoin="round"/>
<path d="M64.9166 58L75.1666 68.875L64.9166 79.75" stroke="#24352D" stroke-width="3" stroke-linecap="round" stroke-linejoin="round"/>
<path d="M47.6938 54.375H54.5272" stroke="#24352D" stroke-width="3" stroke-linecap="round" stroke-linejoin="round"/>
<g clip-path="url(#clip1_1363_4)">
<path d="M30.1625 47.5572H21.154C17.7096 47.5572 14.9174 50.4224 14.9174 53.9567C14.9174 57.4911 17.7096 60.3562 21.154 60.3562H30.1625C33.6069 60.3562 36.3991 57.4911 36.3991 53.9567C36.3991 50.4224 33.6069 47.5572 30.1625 47.5572Z" fill="#E21E27"/>
<path d="M30.4879 46.8461C34.3087 46.8461 37.4164 50.0349 37.4165 53.956C37.4165 57.8772 34.3084 61.0672 30.4876 61.0673H21.1547C17.3333 61.0673 14.2245 57.8762 14.2245 53.956C14.2246 50.0359 17.3339 46.8461 21.1547 46.8461H30.4879ZM27.4424 54.2775C26.9653 56.5584 25.4038 57.6224 22.4766 57.6224H16.6436C17.6987 58.9829 19.3265 59.8574 21.1489 59.8574H30.4818C32.3042 59.8574 33.9311 58.984 34.9862 57.6231H30.0216L30.0223 57.6224L27.4424 54.2775ZM32.1133 53.5169L35.2166 57.3043C35.8595 56.3513 36.2371 55.1957 36.2371 53.9514C36.2371 52.638 35.8167 51.4231 35.107 50.4411L32.1133 53.5169ZM18.6725 54.9817H22.0119C22.9991 54.9817 23.2977 54.5623 23.5187 53.755C23.7372 52.9567 23.1879 52.647 22.5133 52.6469H19.5003L18.6725 54.9817ZM21.1486 48.0454C19.398 48.0455 17.8274 48.8514 16.7709 50.1207H23.3186L23.3189 50.121C25.6364 50.121 27.3826 50.7263 27.5626 52.73L30.0017 50.1207H34.8585C33.802 48.8519 32.2319 48.0455 30.4818 48.0454H21.1486Z" fill="white"/>
</g>
</g>
<defs>
<clipPath id="clip0_1363_4">
<rect width="82" height="87" fill="white"/>
</clipPath>
<clipPath id="clip1_1363_4">
<rect width="23.4286" height="14.2212" fill="white" transform="translate(14.2245 46.8461)"/>
</clipPath>
</defs>
</svg>
