<svg width="191" height="301" viewBox="0 0 191 301" fill="none" xmlns="http://www.w3.org/2000/svg">
<g filter="url(#filter0_d_1363_2)">
<path d="M173.71 0H13.35C6.25314 0 0.5 5.75314 0.5 12.85V279.92C0.5 287.017 6.25314 292.77 13.35 292.77H173.71C180.807 292.77 186.56 287.017 186.56 279.92V12.85C186.56 5.75314 180.807 0 173.71 0Z" fill="#FFF4E1"/>
</g>
<path d="M123.64 36.5H100.53C99.2542 36.5 98.22 37.5342 98.22 38.81V72.26C98.22 73.5358 99.2542 74.57 100.53 74.57H123.64C124.916 74.57 125.95 73.5358 125.95 72.26V38.81C125.95 37.5342 124.916 36.5 123.64 36.5Z" fill="#A8B9A3"/>
<g clip-path="url(#clip0_1363_2)">
<path d="M151.851 253.6H137.239C131.653 253.6 127.124 258.032 127.124 263.5C127.124 268.968 131.653 273.4 137.239 273.4H151.851C157.437 273.4 161.966 268.968 161.966 263.5C161.966 258.032 157.437 253.6 151.851 253.6Z" fill="#E21E27"/>
<path d="M152.378 252.5C158.576 252.5 163.616 257.433 163.616 263.499C163.616 269.565 158.575 274.5 152.378 274.5H137.241C131.042 274.5 126 269.563 126 263.499C126 257.435 131.043 252.5 137.241 252.5H152.378ZM147.439 263.996C146.665 267.525 144.132 269.171 139.384 269.171H129.924C131.635 271.275 134.275 272.628 137.231 272.628H152.369C155.324 272.628 157.963 271.277 159.674 269.172H151.622L151.623 269.171L147.439 263.996ZM155.015 262.82L160.048 268.679C161.091 267.204 161.703 265.417 161.703 263.492C161.703 261.46 161.021 259.581 159.87 258.061L155.015 262.82ZM133.214 265.086H138.631C140.232 265.086 140.716 264.437 141.075 263.188C141.429 261.953 140.538 261.474 139.444 261.474H134.557L133.214 265.086ZM137.231 254.355C134.391 254.355 131.844 255.602 130.13 257.566H140.75L140.751 257.566C144.51 257.566 147.342 258.503 147.634 261.602L151.59 257.566H159.467C157.754 255.603 155.207 254.355 152.369 254.355H137.231Z" fill="white"/>
</g>
<defs>
<filter id="filter0_d_1363_2" x="-3.5" y="0" width="194.06" height="300.77" filterUnits="userSpaceOnUse" color-interpolation-filters="sRGB">
<feFlood flood-opacity="0" result="BackgroundImageFix"/>
<feColorMatrix in="SourceAlpha" type="matrix" values="0 0 0 0 0 0 0 0 0 0 0 0 0 0 0 0 0 0 127 0" result="hardAlpha"/>
<feOffset dy="4"/>
<feGaussianBlur stdDeviation="2"/>
<feComposite in2="hardAlpha" operator="out"/>
<feColorMatrix type="matrix" values="0 0 0 0 0 0 0 0 0 0 0 0 0 0 0 0 0 0 0.25 0"/>
<feBlend mode="normal" in2="BackgroundImageFix" result="effect1_dropShadow_1363_2"/>
<feBlend mode="normal" in="SourceGraphic" in2="effect1_dropShadow_1363_2" result="shape"/>
</filter>
<clipPath id="clip0_1363_2">
<rect width="38" height="22" fill="white" transform="translate(126 252.5)"/>
</clipPath>
</defs>
</svg>
