<svg width="292" height="532" viewBox="0 0 292 532" fill="none" xmlns="http://www.w3.org/2000/svg">
<path d="M241.92 0H49.93C25.8669 0 6.35999 19.507 6.35999 43.57V488.27C6.35999 512.333 25.8669 531.84 49.93 531.84H241.92C265.983 531.84 285.49 512.333 285.49 488.27V43.57C285.49 19.507 265.983 0 241.92 0Z" fill="#A8B9A3"/>
<path d="M240.73 11.59H51.1199C33.4303 11.59 19.09 25.9303 19.09 43.62V489.57C19.09 507.26 33.4303 521.6 51.1199 521.6H240.73C258.42 521.6 272.76 507.26 272.76 489.57V43.62C272.76 25.9303 258.42 11.59 240.73 11.59Z" fill="white"/>
<path d="M93.64 8.66H198.21V21.88C198.21 30.14 191.51 36.84 183.25 36.84H108.6C100.34 36.84 93.64 30.14 93.64 21.88V8.66Z" fill="#A8B9A3"/>
<path d="M3.41 215.67H9.98001V257.88H3.41C1.53 257.88 0 256.35 0 254.47V219.07C0 217.19 1.53 215.66 3.41 215.66V215.67Z" fill="#A8B9A3"/>
<path d="M3.41 159.89H9.98001V202.1H3.41C1.53 202.1 0 200.57 0 198.69V163.29C0 161.41 1.53 159.88 3.41 159.88V159.89Z" fill="#A8B9A3"/>
<path d="M288.45 244.95H281.88V173.32H288.45C290.33 173.32 291.86 174.85 291.86 176.73V241.54C291.86 243.42 290.33 244.95 288.45 244.95Z" fill="#A8B9A3"/>
<path d="M3.41 117.68H9.98001V140.72H3.41C1.53 140.72 0 139.19 0 137.31V121.08C0 119.2 1.53 117.67 3.41 117.67V117.68Z" fill="#A8B9A3"/>
<g filter="url(#filter0_d_1363_3)">
<path d="M38.75 104.63L38.75 215.15C38.75 222.247 44.5031 228 51.6 228H240.25C247.347 228 253.1 222.247 253.1 215.15V104.63C253.1 97.5331 247.347 91.78 240.25 91.78H51.6C44.5031 91.78 38.75 97.5331 38.75 104.63Z" fill="#FFF4E1"/>
</g>
<g clip-path="url(#clip0_1363_3)">
<path d="M224.451 108.34H209.839C204.253 108.34 199.724 112.772 199.724 118.24C199.724 123.708 204.253 128.14 209.839 128.14H224.451C230.037 128.14 234.566 123.708 234.566 118.24C234.566 112.772 230.037 108.34 224.451 108.34Z" fill="#E21E27"/>
<path d="M224.978 107.24C231.176 107.24 236.216 112.173 236.216 118.239C236.216 124.305 231.175 129.24 224.978 129.24H209.84C203.642 129.24 198.6 124.303 198.6 118.239C198.6 112.175 203.643 107.24 209.84 107.24H224.978ZM220.039 118.736C219.265 122.265 216.732 123.911 211.984 123.911H202.524C204.235 126.015 206.875 127.368 209.831 127.368H224.969C227.924 127.368 230.563 126.017 232.274 123.912H224.222L224.223 123.911L220.039 118.736ZM227.615 117.56L232.648 123.419C233.691 121.944 234.303 120.157 234.303 118.232C234.303 116.2 233.621 114.321 232.47 112.801L227.615 117.56ZM205.814 119.826H211.231C212.832 119.826 213.316 119.177 213.675 117.928C214.029 116.693 213.138 116.214 212.044 116.214H207.157L205.814 119.826ZM209.831 109.095C206.991 109.095 204.444 110.342 202.73 112.306H213.35L213.351 112.306C217.11 112.306 219.942 113.243 220.234 116.342L224.19 112.306H232.067C230.354 110.343 227.807 109.095 224.969 109.095H209.831Z" fill="white"/>
</g>
<defs>
<filter id="filter0_d_1363_3" x="34.75" y="91.78" width="222.35" height="144.22" filterUnits="userSpaceOnUse" color-interpolation-filters="sRGB">
<feFlood flood-opacity="0" result="BackgroundImageFix"/>
<feColorMatrix in="SourceAlpha" type="matrix" values="0 0 0 0 0 0 0 0 0 0 0 0 0 0 0 0 0 0 127 0" result="hardAlpha"/>
<feOffset dy="4"/>
<feGaussianBlur stdDeviation="2"/>
<feComposite in2="hardAlpha" operator="out"/>
<feColorMatrix type="matrix" values="0 0 0 0 0 0 0 0 0 0 0 0 0 0 0 0 0 0 0.25 0"/>
<feBlend mode="normal" in2="BackgroundImageFix" result="effect1_dropShadow_1363_3"/>
<feBlend mode="normal" in="SourceGraphic" in2="effect1_dropShadow_1363_3" result="shape"/>
</filter>
<clipPath id="clip0_1363_3">
<rect width="38" height="22" fill="white" transform="translate(198.6 107.24)"/>
</clipPath>
</defs>
</svg>
