<svg width="238" height="85" viewBox="0 0 238 85" fill="none" xmlns="http://www.w3.org/2000/svg">
<g clip-path="url(#clip0_1237_150)">
<path d="M50.8655 34.7967C51.0054 34.7967 51.1395 34.8558 51.2384 34.9609C51.3373 35.0661 51.3928 35.2088 51.3928 35.3576V38.7231H54.5564C54.6962 38.7231 54.8303 38.7822 54.9292 38.8874C55.0281 38.9925 55.0836 39.1352 55.0836 39.284C55.0836 39.4327 55.0281 39.5754 54.9292 39.6806C54.8303 39.7858 54.6962 39.8449 54.5564 39.8449H51.3928V43.2104C51.3928 43.3592 51.3373 43.5018 51.2384 43.607C51.1395 43.7122 51.0054 43.7713 50.8655 43.7713C50.7257 43.7713 50.5916 43.7122 50.4927 43.607C50.3938 43.5018 50.3383 43.3592 50.3383 43.2104V39.8449H47.1747C47.0349 39.8449 46.9008 39.7858 46.8019 39.6806C46.703 39.5754 46.6475 39.4327 46.6475 39.284C46.6475 39.1352 46.703 38.9925 46.8019 38.8874C46.9008 38.7822 47.0349 38.7231 47.1747 38.7231H50.3383V35.3576C50.3383 35.2088 50.3938 35.0661 50.4927 34.9609C50.5916 34.8558 50.7257 34.7967 50.8655 34.7967Z" fill="white"/>
</g>
<g clip-path="url(#clip1_1237_150)">
<path d="M112.696 34.7967C112.836 34.7967 112.97 34.8558 113.069 34.9609C113.168 35.0661 113.223 35.2088 113.223 35.3576V38.7231H116.387C116.527 38.7231 116.661 38.7822 116.76 38.8874C116.858 38.9925 116.914 39.1352 116.914 39.284C116.914 39.4327 116.858 39.5754 116.76 39.6806C116.661 39.7858 116.527 39.8449 116.387 39.8449H113.223V43.2104C113.223 43.3592 113.168 43.5018 113.069 43.607C112.97 43.7122 112.836 43.7713 112.696 43.7713C112.556 43.7713 112.422 43.7122 112.323 43.607C112.224 43.5018 112.169 43.3592 112.169 43.2104V39.8449H109.005C108.865 39.8449 108.731 39.7858 108.632 39.6806C108.533 39.5754 108.478 39.4327 108.478 39.284C108.478 39.1352 108.533 38.9925 108.632 38.8874C108.731 38.7822 108.865 38.7231 109.005 38.7231H112.169V35.3576C112.169 35.2088 112.224 35.0661 112.323 34.9609C112.422 34.8558 112.556 34.7967 112.696 34.7967Z" fill="white"/>
</g>
<path d="M10.6132 62.536C10.6132 62.856 10.5306 63.1254 10.3652 63.344C10.1999 63.5574 9.97591 63.72 9.69324 63.832C9.4159 63.944 9.11191 64 8.78124 64H6.03724V58.32H9.07724C9.3439 58.32 9.57324 58.392 9.76524 58.536C9.96257 58.6747 10.1119 58.856 10.2132 59.08C10.3199 59.2987 10.3732 59.528 10.3732 59.768C10.3732 60.04 10.3039 60.2987 10.1652 60.544C10.0266 60.7894 9.8239 60.9707 9.55724 61.088C9.88257 61.184 10.1386 61.3574 10.3252 61.608C10.5172 61.8587 10.6132 62.168 10.6132 62.536ZM9.50124 62.328C9.50124 62.184 9.4719 62.056 9.41324 61.944C9.35457 61.8267 9.27457 61.736 9.17324 61.672C9.07724 61.6027 8.96524 61.568 8.83724 61.568H7.14124V63.064H8.78124C8.91457 63.064 9.03457 63.032 9.14124 62.968C9.25324 62.8987 9.34124 62.808 9.40524 62.696C9.46924 62.584 9.50124 62.4614 9.50124 62.328ZM7.14124 59.264V60.696H8.61324C8.73591 60.696 8.84791 60.6667 8.94924 60.608C9.05057 60.5494 9.13057 60.4667 9.18924 60.36C9.25324 60.2534 9.28524 60.1254 9.28524 59.976C9.28524 59.832 9.2559 59.7067 9.19724 59.6C9.1439 59.4934 9.06924 59.4107 8.97324 59.352C8.88257 59.2934 8.77857 59.264 8.66124 59.264H7.14124ZM13.3147 64.08C12.9787 64.08 12.6747 64.024 12.4027 63.912C12.1307 63.7947 11.8987 63.6374 11.7067 63.44C11.5147 63.2374 11.3654 63.008 11.2587 62.752C11.1574 62.4907 11.1067 62.216 11.1067 61.928C11.1067 61.528 11.1947 61.1627 11.3707 60.832C11.5521 60.5014 11.8081 60.2374 12.1387 60.04C12.4747 59.8374 12.8694 59.736 13.3227 59.736C13.7814 59.736 14.1734 59.8374 14.4987 60.04C14.8241 60.2374 15.0721 60.5014 15.2427 60.832C15.4187 61.1574 15.5067 61.5094 15.5067 61.888C15.5067 61.952 15.5041 62.0187 15.4987 62.088C15.4934 62.152 15.4881 62.2054 15.4827 62.248H12.2427C12.2641 62.4614 12.3254 62.648 12.4267 62.808C12.5334 62.968 12.6667 63.0907 12.8267 63.176C12.9921 63.256 13.1681 63.296 13.3547 63.296C13.5681 63.296 13.7681 63.2454 13.9547 63.144C14.1467 63.0374 14.2774 62.8987 14.3467 62.728L15.2667 62.984C15.1654 63.1974 15.0187 63.3867 14.8267 63.552C14.6401 63.7174 14.4187 63.848 14.1627 63.944C13.9067 64.0347 13.6241 64.08 13.3147 64.08ZM12.2187 61.568H14.4107C14.3894 61.3547 14.3281 61.1707 14.2267 61.016C14.1307 60.856 14.0027 60.7334 13.8427 60.648C13.6827 60.5574 13.5041 60.512 13.3067 60.512C13.1147 60.512 12.9387 60.5574 12.7787 60.648C12.6241 60.7334 12.4961 60.856 12.3947 61.016C12.2987 61.1707 12.2401 61.3547 12.2187 61.568ZM18.6327 63.784C18.5421 63.8214 18.4327 63.864 18.3047 63.912C18.1767 63.96 18.0381 63.9974 17.8887 64.024C17.7447 64.056 17.5981 64.072 17.4487 64.072C17.2514 64.072 17.0701 64.0374 16.9047 63.968C16.7394 63.8987 16.6061 63.7894 16.5047 63.64C16.4087 63.4854 16.3607 63.2854 16.3607 63.04V60.632H15.8087V59.808H16.3607V58.448H17.4327V59.808H18.3127V60.632H17.4327V62.68C17.4381 62.824 17.4781 62.928 17.5527 62.992C17.6274 63.056 17.7207 63.088 17.8327 63.088C17.9447 63.088 18.0541 63.0694 18.1607 63.032C18.2674 62.9947 18.3527 62.9627 18.4167 62.936L18.6327 63.784ZM18.9031 62.76C18.9031 62.488 18.9777 62.2507 19.1271 62.048C19.2817 61.84 19.4951 61.68 19.7671 61.568C20.0391 61.456 20.3511 61.4 20.7031 61.4C20.8791 61.4 21.0577 61.4134 21.2391 61.44C21.4204 61.4667 21.5777 61.5094 21.7111 61.568V61.344C21.7111 61.0774 21.6311 60.872 21.4711 60.728C21.3164 60.584 21.0844 60.512 20.7751 60.512C20.5457 60.512 20.3271 60.552 20.1191 60.632C19.9111 60.712 19.6924 60.8294 19.4631 60.984L19.1191 60.28C19.3964 60.0987 19.6791 59.9627 19.9671 59.872C20.2604 59.7814 20.5671 59.736 20.8871 59.736C21.4844 59.736 21.9484 59.8854 22.2791 60.184C22.6151 60.4827 22.7831 60.9094 22.7831 61.464V62.8C22.7831 62.912 22.8017 62.992 22.8391 63.04C22.8817 63.088 22.9484 63.1174 23.0391 63.128V64C22.9431 64.016 22.8551 64.0294 22.7751 64.04C22.7004 64.0507 22.6364 64.056 22.5831 64.056C22.3697 64.056 22.2071 64.008 22.0951 63.912C21.9884 63.816 21.9217 63.6987 21.8951 63.56L21.8711 63.344C21.6897 63.5787 21.4631 63.76 21.1911 63.888C20.9191 64.016 20.6417 64.08 20.3591 64.08C20.0817 64.08 19.8311 64.024 19.6071 63.912C19.3884 63.7947 19.2151 63.6374 19.0871 63.44C18.9644 63.2374 18.9031 63.0107 18.9031 62.76ZM21.5111 62.976C21.5697 62.912 21.6177 62.848 21.6551 62.784C21.6924 62.72 21.7111 62.6614 21.7111 62.608V62.184C21.5831 62.1307 21.4444 62.0907 21.2951 62.064C21.1457 62.032 21.0044 62.016 20.8711 62.016C20.5937 62.016 20.3644 62.0774 20.1831 62.2C20.0071 62.3174 19.9191 62.4747 19.9191 62.672C19.9191 62.7787 19.9484 62.88 20.0071 62.976C20.0657 63.072 20.1511 63.1494 20.2631 63.208C20.3751 63.2667 20.5084 63.296 20.6631 63.296C20.8231 63.296 20.9804 63.2667 21.1351 63.208C21.2897 63.144 21.4151 63.0667 21.5111 62.976ZM23.7768 58.16H24.8488V62.656C24.8488 62.848 24.8808 62.9787 24.9448 63.048C25.0088 63.112 25.0968 63.144 25.2088 63.144C25.2941 63.144 25.3821 63.1334 25.4728 63.112C25.5635 63.0907 25.6435 63.064 25.7128 63.032L25.8568 63.848C25.7128 63.9174 25.5448 63.9707 25.3528 64.008C25.1608 64.0454 24.9875 64.064 24.8328 64.064C24.4968 64.064 24.2355 63.976 24.0488 63.8C23.8675 63.6187 23.7768 63.3627 23.7768 63.032V58.16ZM26.3239 64V59.808H27.3959V64H26.3239ZM26.3239 59.224V58.16H27.3959V59.224H26.3239ZM32.2589 64H31.1869V61.648C31.1869 61.312 31.1283 61.0667 31.0109 60.912C30.8936 60.7574 30.7309 60.68 30.5229 60.68C30.3789 60.68 30.2323 60.7174 30.0829 60.792C29.9389 60.8667 29.8083 60.9707 29.6909 61.104C29.5736 61.232 29.4883 61.3814 29.4349 61.552V64H28.3629V59.808H29.3309V60.584C29.4376 60.4027 29.5736 60.2507 29.7389 60.128C29.9043 60 30.0936 59.904 30.3069 59.84C30.5256 59.7707 30.7549 59.736 30.9949 59.736C31.2563 59.736 31.4696 59.784 31.6349 59.88C31.8056 59.9707 31.9336 60.096 32.0189 60.256C32.1096 60.4107 32.1709 60.5867 32.2029 60.784C32.2403 60.9814 32.2589 61.1814 32.2589 61.384V64ZM34.831 64.024C34.5537 64.024 34.2977 63.9707 34.063 63.864C33.8337 63.752 33.6337 63.5974 33.463 63.4C33.2977 63.2027 33.1697 62.976 33.079 62.72C32.9884 62.464 32.943 62.192 32.943 61.904C32.943 61.6 32.991 61.3174 33.087 61.056C33.183 60.7947 33.3164 60.5654 33.487 60.368C33.663 60.1654 33.8684 60.0107 34.103 59.904C34.343 59.792 34.607 59.736 34.895 59.736C35.2204 59.736 35.5057 59.8107 35.751 59.96C35.9964 60.104 36.199 60.2987 36.359 60.544V59.808H37.295V63.8C37.295 64.216 37.1937 64.5707 36.991 64.864C36.7937 65.1627 36.519 65.3894 36.167 65.544C35.815 65.704 35.415 65.784 34.967 65.784C34.5137 65.784 34.1297 65.7067 33.815 65.552C33.5004 65.4027 33.231 65.1894 33.007 64.912L33.591 64.344C33.751 64.5414 33.951 64.696 34.191 64.808C34.4364 64.92 34.695 64.976 34.967 64.976C35.1964 64.976 35.4044 64.9334 35.591 64.848C35.783 64.768 35.935 64.64 36.047 64.464C36.1644 64.2934 36.223 64.072 36.223 63.8V63.272C36.0844 63.512 35.887 63.6987 35.631 63.832C35.3804 63.96 35.1137 64.024 34.831 64.024ZM35.191 63.168C35.3084 63.168 35.4204 63.1494 35.527 63.112C35.6337 63.0747 35.7324 63.024 35.823 62.96C35.9137 62.896 35.9937 62.8214 36.063 62.736C36.1324 62.6454 36.1857 62.5547 36.223 62.464V61.464C36.159 61.2987 36.0684 61.1547 35.951 61.032C35.839 60.9094 35.711 60.816 35.567 60.752C35.4284 60.6827 35.2817 60.648 35.127 60.648C34.9617 60.648 34.8124 60.6827 34.679 60.752C34.5457 60.8214 34.431 60.92 34.335 61.048C34.239 61.1707 34.1644 61.3094 34.111 61.464C34.063 61.6134 34.039 61.7707 34.039 61.936C34.039 62.1067 34.0684 62.2667 34.127 62.416C34.1857 62.5654 34.2657 62.696 34.367 62.808C34.4737 62.92 34.5964 63.008 34.735 63.072C34.879 63.136 35.031 63.168 35.191 63.168Z" fill="white"/>
<path d="M74.8086 62.536C74.8086 62.856 74.726 63.1254 74.5606 63.344C74.3953 63.5574 74.1713 63.72 73.8886 63.832C73.6113 63.944 73.3073 64 72.9766 64H70.2326V58.32H73.2726C73.5393 58.32 73.7686 58.392 73.9606 58.536C74.158 58.6747 74.3073 58.856 74.4086 59.08C74.5153 59.2987 74.5686 59.528 74.5686 59.768C74.5686 60.04 74.4993 60.2987 74.3606 60.544C74.222 60.7894 74.0193 60.9707 73.7526 61.088C74.078 61.184 74.334 61.3574 74.5206 61.608C74.7126 61.8587 74.8086 62.168 74.8086 62.536ZM73.6966 62.328C73.6966 62.184 73.6673 62.056 73.6086 61.944C73.55 61.8267 73.47 61.736 73.3686 61.672C73.2726 61.6027 73.1606 61.568 73.0326 61.568H71.3366V63.064H72.9766C73.11 63.064 73.23 63.032 73.3366 62.968C73.4486 62.8987 73.5366 62.808 73.6006 62.696C73.6646 62.584 73.6966 62.4614 73.6966 62.328ZM71.3366 59.264V60.696H72.8086C72.9313 60.696 73.0433 60.6667 73.1446 60.608C73.246 60.5494 73.326 60.4667 73.3846 60.36C73.4486 60.2534 73.4806 60.1254 73.4806 59.976C73.4806 59.832 73.4513 59.7067 73.3926 59.6C73.3393 59.4934 73.2646 59.4107 73.1686 59.352C73.078 59.2934 72.974 59.264 72.8566 59.264H71.3366ZM75.2781 62.76C75.2781 62.488 75.3528 62.2507 75.5021 62.048C75.6568 61.84 75.8701 61.68 76.1421 61.568C76.4141 61.456 76.7261 61.4 77.0781 61.4C77.2541 61.4 77.4328 61.4134 77.6141 61.44C77.7955 61.4667 77.9528 61.5094 78.0861 61.568V61.344C78.0861 61.0774 78.0061 60.872 77.8461 60.728C77.6915 60.584 77.4595 60.512 77.1501 60.512C76.9208 60.512 76.7021 60.552 76.4941 60.632C76.2861 60.712 76.0675 60.8294 75.8381 60.984L75.4941 60.28C75.7715 60.0987 76.0541 59.9627 76.3421 59.872C76.6355 59.7814 76.9421 59.736 77.2621 59.736C77.8595 59.736 78.3235 59.8854 78.6541 60.184C78.9901 60.4827 79.1581 60.9094 79.1581 61.464V62.8C79.1581 62.912 79.1768 62.992 79.2141 63.04C79.2568 63.088 79.3235 63.1174 79.4141 63.128V64C79.3181 64.016 79.2301 64.0294 79.1501 64.04C79.0755 64.0507 79.0115 64.056 78.9581 64.056C78.7448 64.056 78.5821 64.008 78.4701 63.912C78.3635 63.816 78.2968 63.6987 78.2701 63.56L78.2461 63.344C78.0648 63.5787 77.8381 63.76 77.5661 63.888C77.2941 64.016 77.0168 64.08 76.7341 64.08C76.4568 64.08 76.2061 64.024 75.9821 63.912C75.7635 63.7947 75.5901 63.6374 75.4621 63.44C75.3395 63.2374 75.2781 63.0107 75.2781 62.76ZM77.8861 62.976C77.9448 62.912 77.9928 62.848 78.0301 62.784C78.0675 62.72 78.0861 62.6614 78.0861 62.608V62.184C77.9581 62.1307 77.8195 62.0907 77.6701 62.064C77.5208 62.032 77.3795 62.016 77.2461 62.016C76.9688 62.016 76.7395 62.0774 76.5581 62.2C76.3821 62.3174 76.2941 62.4747 76.2941 62.672C76.2941 62.7787 76.3235 62.88 76.3821 62.976C76.4408 63.072 76.5261 63.1494 76.6381 63.208C76.7501 63.2667 76.8835 63.296 77.0381 63.296C77.1981 63.296 77.3555 63.2667 77.5101 63.208C77.6648 63.144 77.7901 63.0667 77.8861 62.976ZM84.0559 64H82.9839V61.648C82.9839 61.312 82.9252 61.0667 82.8079 60.912C82.6905 60.7574 82.5279 60.68 82.3199 60.68C82.1759 60.68 82.0292 60.7174 81.8799 60.792C81.7359 60.8667 81.6052 60.9707 81.4879 61.104C81.3705 61.232 81.2852 61.3814 81.2319 61.552V64H80.1599V59.808H81.1279V60.584C81.2345 60.4027 81.3705 60.2507 81.5359 60.128C81.7012 60 81.8905 59.904 82.1039 59.84C82.3225 59.7707 82.5519 59.736 82.7919 59.736C83.0532 59.736 83.2665 59.784 83.4319 59.88C83.6025 59.9707 83.7305 60.096 83.8159 60.256C83.9065 60.4107 83.9679 60.5867 83.9999 60.784C84.0372 60.9814 84.0559 61.1814 84.0559 61.384V64ZM87.852 64L86.628 62.192L86.06 62.752V64H84.988V58.16H86.06V61.696L87.748 59.816H88.884L87.324 61.592L88.996 64H87.852ZM91.1742 64.08C90.8382 64.08 90.5342 64.024 90.2622 63.912C89.9902 63.7947 89.7582 63.6374 89.5662 63.44C89.3742 63.2374 89.2249 63.008 89.1182 62.752C89.0169 62.4907 88.9662 62.216 88.9662 61.928C88.9662 61.528 89.0542 61.1627 89.2302 60.832C89.4115 60.5014 89.6675 60.2374 89.9982 60.04C90.3342 59.8374 90.7289 59.736 91.1822 59.736C91.6409 59.736 92.0329 59.8374 92.3582 60.04C92.6835 60.2374 92.9315 60.5014 93.1022 60.832C93.2782 61.1574 93.3662 61.5094 93.3662 61.888C93.3662 61.952 93.3635 62.0187 93.3582 62.088C93.3529 62.152 93.3475 62.2054 93.3422 62.248H90.1022C90.1235 62.4614 90.1849 62.648 90.2862 62.808C90.3929 62.968 90.5262 63.0907 90.6862 63.176C90.8515 63.256 91.0275 63.296 91.2142 63.296C91.4275 63.296 91.6275 63.2454 91.8142 63.144C92.0062 63.0374 92.1369 62.8987 92.2062 62.728L93.1262 62.984C93.0249 63.1974 92.8782 63.3867 92.6862 63.552C92.4995 63.7174 92.2782 63.848 92.0222 63.944C91.7662 64.0347 91.4835 64.08 91.1742 64.08ZM90.0782 61.568H92.2702C92.2489 61.3547 92.1875 61.1707 92.0862 61.016C91.9902 60.856 91.8622 60.7334 91.7022 60.648C91.5422 60.5574 91.3635 60.512 91.1662 60.512C90.9742 60.512 90.7982 60.5574 90.6382 60.648C90.4835 60.7334 90.3555 60.856 90.2542 61.016C90.1582 61.1707 90.0995 61.3547 90.0782 61.568ZM97.9153 64H96.8433V61.648C96.8433 61.312 96.7846 61.0667 96.6673 60.912C96.5499 60.7574 96.3873 60.68 96.1793 60.68C96.0353 60.68 95.8886 60.7174 95.7393 60.792C95.5953 60.8667 95.4646 60.9707 95.3473 61.104C95.2299 61.232 95.1446 61.3814 95.0913 61.552V64H94.0193V59.808H94.9873V60.584C95.0939 60.4027 95.2299 60.2507 95.3953 60.128C95.5606 60 95.7499 59.904 95.9633 59.84C96.1819 59.7707 96.4113 59.736 96.6513 59.736C96.9126 59.736 97.1259 59.784 97.2913 59.88C97.4619 59.9707 97.5899 60.096 97.6753 60.256C97.7659 60.4107 97.8273 60.5867 97.8593 60.784C97.8966 60.9814 97.9153 61.1814 97.9153 61.384V64Z" fill="white"/>
<path d="M130.235 62.536C130.235 62.856 130.152 63.1254 129.987 63.344C129.822 63.5574 129.598 63.72 129.315 63.832C129.038 63.944 128.734 64 128.403 64H125.659V58.32H128.699C128.966 58.32 129.195 58.392 129.387 58.536C129.584 58.6747 129.734 58.856 129.835 59.08C129.942 59.2987 129.995 59.528 129.995 59.768C129.995 60.04 129.926 60.2987 129.787 60.544C129.648 60.7894 129.446 60.9707 129.179 61.088C129.504 61.184 129.76 61.3574 129.947 61.608C130.139 61.8587 130.235 62.168 130.235 62.536ZM129.123 62.328C129.123 62.184 129.094 62.056 129.035 61.944C128.976 61.8267 128.896 61.736 128.795 61.672C128.699 61.6027 128.587 61.568 128.459 61.568H126.763V63.064H128.403C128.536 63.064 128.656 63.032 128.763 62.968C128.875 62.8987 128.963 62.808 129.027 62.696C129.091 62.584 129.123 62.4614 129.123 62.328ZM126.763 59.264V60.696H128.235C128.358 60.696 128.47 60.6667 128.571 60.608C128.672 60.5494 128.752 60.4667 128.811 60.36C128.875 60.2534 128.907 60.1254 128.907 59.976C128.907 59.832 128.878 59.7067 128.819 59.6C128.766 59.4934 128.691 59.4107 128.595 59.352C128.504 59.2934 128.4 59.264 128.283 59.264H126.763ZM130.937 62.432V59.808H132.009V62.2C132.009 62.52 132.068 62.7627 132.185 62.928C132.302 63.088 132.476 63.168 132.705 63.168C132.844 63.168 132.98 63.1414 133.113 63.088C133.252 63.0294 133.377 62.944 133.489 62.832C133.606 62.72 133.705 62.5787 133.785 62.408V59.808H134.857V62.8C134.857 62.912 134.876 62.992 134.913 63.04C134.956 63.088 135.022 63.1174 135.113 63.128V64C135.006 64.016 134.916 64.0267 134.841 64.032C134.772 64.0427 134.708 64.048 134.649 64.048C134.457 64.048 134.3 64.0054 134.177 63.92C134.06 63.8294 133.99 63.7067 133.969 63.552L133.945 63.216C133.758 63.4987 133.518 63.7147 133.225 63.864C132.932 64.008 132.609 64.08 132.257 64.08C131.825 64.08 131.497 63.9414 131.273 63.664C131.049 63.3814 130.937 62.9707 130.937 62.432ZM138.419 63.784C138.328 63.8214 138.219 63.864 138.091 63.912C137.963 63.96 137.824 63.9974 137.675 64.024C137.531 64.056 137.384 64.072 137.235 64.072C137.037 64.072 136.856 64.0374 136.691 63.968C136.525 63.8987 136.392 63.7894 136.291 63.64C136.195 63.4854 136.147 63.2854 136.147 63.04V60.632H135.595V59.808H136.147V58.448H137.219V59.808H138.099V60.632H137.219V62.68C137.224 62.824 137.264 62.928 137.339 62.992C137.413 63.056 137.507 63.088 137.619 63.088C137.731 63.088 137.84 63.0694 137.947 63.032C138.053 62.9947 138.139 62.9627 138.203 62.936L138.419 63.784ZM138.977 64V59.808H140.049V64H138.977ZM138.977 59.224V58.16H140.049V59.224H138.977ZM143.88 64L142.656 62.192L142.088 62.752V64H141.016V58.16H142.088V61.696L143.776 59.816H144.912L143.352 61.592L145.024 64H143.88ZM148.341 64L147.117 62.192L146.549 62.752V64H145.477V58.16H146.549V61.696L148.237 59.816H149.373L147.813 61.592L149.485 64H148.341ZM151.663 64.08C151.327 64.08 151.023 64.024 150.751 63.912C150.479 63.7947 150.247 63.6374 150.055 63.44C149.863 63.2374 149.714 63.008 149.607 62.752C149.506 62.4907 149.455 62.216 149.455 61.928C149.455 61.528 149.543 61.1627 149.719 60.832C149.901 60.5014 150.157 60.2374 150.487 60.04C150.823 59.8374 151.218 59.736 151.671 59.736C152.13 59.736 152.522 59.8374 152.847 60.04C153.173 60.2374 153.421 60.5014 153.591 60.832C153.767 61.1574 153.855 61.5094 153.855 61.888C153.855 61.952 153.853 62.0187 153.847 62.088C153.842 62.152 153.837 62.2054 153.831 62.248H150.591C150.613 62.4614 150.674 62.648 150.775 62.808C150.882 62.968 151.015 63.0907 151.175 63.176C151.341 63.256 151.517 63.296 151.703 63.296C151.917 63.296 152.117 63.2454 152.303 63.144C152.495 63.0374 152.626 62.8987 152.695 62.728L153.615 62.984C153.514 63.1974 153.367 63.3867 153.175 63.552C152.989 63.7174 152.767 63.848 152.511 63.944C152.255 64.0347 151.973 64.08 151.663 64.08ZM150.567 61.568H152.759C152.738 61.3547 152.677 61.1707 152.575 61.016C152.479 60.856 152.351 60.7334 152.191 60.648C152.031 60.5574 151.853 60.512 151.655 60.512C151.463 60.512 151.287 60.5574 151.127 60.648C150.973 60.7334 150.845 60.856 150.743 61.016C150.647 61.1707 150.589 61.3547 150.567 61.568ZM158.404 64H157.332V61.648C157.332 61.312 157.274 61.0667 157.156 60.912C157.039 60.7574 156.876 60.68 156.668 60.68C156.524 60.68 156.378 60.7174 156.228 60.792C156.084 60.8667 155.954 60.9707 155.836 61.104C155.719 61.232 155.634 61.3814 155.58 61.552V64H154.508V59.808H155.476V60.584C155.583 60.4027 155.719 60.2507 155.884 60.128C156.05 60 156.239 59.904 156.452 59.84C156.671 59.7707 156.9 59.736 157.14 59.736C157.402 59.736 157.615 59.784 157.78 59.88C157.951 59.9707 158.079 60.096 158.164 60.256C158.255 60.4107 158.316 60.5867 158.348 60.784C158.386 60.9814 158.404 61.1814 158.404 61.384V64Z" fill="white"/>
<path d="M189.131 64V58.32H191.195C191.813 58.32 192.331 58.448 192.747 58.704C193.163 58.9547 193.475 59.296 193.683 59.728C193.891 60.1547 193.995 60.6293 193.995 61.152C193.995 61.728 193.88 62.2293 193.651 62.656C193.421 63.0827 193.096 63.4133 192.675 63.648C192.259 63.8827 191.765 64 191.195 64H189.131ZM192.883 61.152C192.883 60.784 192.816 60.4613 192.683 60.184C192.549 59.9013 192.357 59.6827 192.107 59.528C191.856 59.368 191.552 59.288 191.195 59.288H190.235V63.032H191.195C191.557 63.032 191.864 62.952 192.115 62.792C192.365 62.6267 192.555 62.4027 192.683 62.12C192.816 61.832 192.883 61.5093 192.883 61.152ZM196.697 64.08C196.361 64.08 196.057 64.024 195.785 63.912C195.513 63.7947 195.281 63.6373 195.089 63.44C194.897 63.2373 194.748 63.008 194.641 62.752C194.54 62.4907 194.489 62.216 194.489 61.928C194.489 61.528 194.577 61.1627 194.753 60.832C194.935 60.5013 195.191 60.2373 195.521 60.04C195.857 59.8373 196.252 59.736 196.705 59.736C197.164 59.736 197.556 59.8373 197.881 60.04C198.207 60.2373 198.455 60.5013 198.625 60.832C198.801 61.1573 198.889 61.5093 198.889 61.888C198.889 61.952 198.887 62.0187 198.881 62.088C198.876 62.152 198.871 62.2053 198.865 62.248H195.625C195.647 62.4613 195.708 62.648 195.809 62.808C195.916 62.968 196.049 63.0907 196.209 63.176C196.375 63.256 196.551 63.296 196.737 63.296C196.951 63.296 197.151 63.2453 197.337 63.144C197.529 63.0373 197.66 62.8987 197.729 62.728L198.649 62.984C198.548 63.1973 198.401 63.3867 198.209 63.552C198.023 63.7173 197.801 63.848 197.545 63.944C197.289 64.0347 197.007 64.08 196.697 64.08ZM195.601 61.568H197.793C197.772 61.3547 197.711 61.1707 197.609 61.016C197.513 60.856 197.385 60.7333 197.225 60.648C197.065 60.5573 196.887 60.512 196.689 60.512C196.497 60.512 196.321 60.5573 196.161 60.648C196.007 60.7333 195.879 60.856 195.777 61.016C195.681 61.1707 195.623 61.3547 195.601 61.568ZM203.438 64H202.366V61.648C202.366 61.312 202.308 61.0667 202.19 60.912C202.073 60.7573 201.91 60.68 201.702 60.68C201.558 60.68 201.412 60.7173 201.262 60.792C201.118 60.8667 200.988 60.9707 200.87 61.104C200.753 61.232 200.668 61.3813 200.614 61.552V64H199.542V59.808H200.51V60.584C200.617 60.4027 200.753 60.2507 200.918 60.128C201.084 60 201.273 59.904 201.486 59.84C201.705 59.7707 201.934 59.736 202.174 59.736C202.436 59.736 202.649 59.784 202.814 59.88C202.985 59.9707 203.113 60.096 203.198 60.256C203.289 60.4107 203.35 60.5867 203.382 60.784C203.42 60.9813 203.438 61.1813 203.438 61.384V64ZM206.396 64V58.32H208.46C209.079 58.32 209.596 58.448 210.012 58.704C210.428 58.9547 210.74 59.296 210.948 59.728C211.156 60.1547 211.26 60.6293 211.26 61.152C211.26 61.728 211.146 62.2293 210.916 62.656C210.687 63.0827 210.362 63.4133 209.94 63.648C209.524 63.8827 209.031 64 208.46 64H206.396ZM210.148 61.152C210.148 60.784 210.082 60.4613 209.948 60.184C209.815 59.9013 209.623 59.6827 209.372 59.528C209.122 59.368 208.818 59.288 208.46 59.288H207.5V63.032H208.46C208.823 63.032 209.13 62.952 209.38 62.792C209.631 62.6267 209.82 62.4027 209.948 62.12C210.082 61.832 210.148 61.5093 210.148 61.152ZM211.676 62.76C211.676 62.488 211.751 62.2507 211.9 62.048C212.055 61.84 212.268 61.68 212.54 61.568C212.812 61.456 213.124 61.4 213.476 61.4C213.652 61.4 213.831 61.4133 214.012 61.44C214.194 61.4667 214.351 61.5093 214.484 61.568V61.344C214.484 61.0773 214.404 60.872 214.244 60.728C214.09 60.584 213.858 60.512 213.548 60.512C213.319 60.512 213.1 60.552 212.892 60.632C212.684 60.712 212.466 60.8293 212.236 60.984L211.892 60.28C212.17 60.0987 212.452 59.9627 212.74 59.872C213.034 59.7813 213.34 59.736 213.66 59.736C214.258 59.736 214.722 59.8853 215.052 60.184C215.388 60.4827 215.556 60.9093 215.556 61.464V62.8C215.556 62.912 215.575 62.992 215.612 63.04C215.655 63.088 215.722 63.1173 215.812 63.128V64C215.716 64.016 215.628 64.0293 215.548 64.04C215.474 64.0507 215.41 64.056 215.356 64.056C215.143 64.056 214.98 64.008 214.868 63.912C214.762 63.816 214.695 63.6987 214.668 63.56L214.644 63.344C214.463 63.5787 214.236 63.76 213.964 63.888C213.692 64.016 213.415 64.08 213.132 64.08C212.855 64.08 212.604 64.024 212.38 63.912C212.162 63.7947 211.988 63.6373 211.86 63.44C211.738 63.2373 211.676 63.0107 211.676 62.76ZM214.284 62.976C214.343 62.912 214.391 62.848 214.428 62.784C214.466 62.72 214.484 62.6613 214.484 62.608V62.184C214.356 62.1307 214.218 62.0907 214.068 62.064C213.919 62.032 213.778 62.016 213.644 62.016C213.367 62.016 213.138 62.0773 212.956 62.2C212.78 62.3173 212.692 62.4747 212.692 62.672C212.692 62.7787 212.722 62.88 212.78 62.976C212.839 63.072 212.924 63.1493 213.036 63.208C213.148 63.2667 213.282 63.296 213.436 63.296C213.596 63.296 213.754 63.2667 213.908 63.208C214.063 63.144 214.188 63.0667 214.284 62.976ZM220.454 64H219.382V61.648C219.382 61.312 219.323 61.0667 219.206 60.912C219.089 60.7573 218.926 60.68 218.718 60.68C218.574 60.68 218.427 60.7173 218.278 60.792C218.134 60.8667 218.003 60.9707 217.886 61.104C217.769 61.232 217.683 61.3813 217.63 61.552V64H216.558V59.808H217.526V60.584C217.633 60.4027 217.769 60.2507 217.934 60.128C218.099 60 218.289 59.904 218.502 59.84C218.721 59.7707 218.95 59.736 219.19 59.736C219.451 59.736 219.665 59.784 219.83 59.88C220.001 59.9707 220.129 60.096 220.214 60.256C220.305 60.4107 220.366 60.5867 220.398 60.784C220.435 60.9813 220.454 61.1813 220.454 61.384V64ZM222.93 64.08C222.573 64.08 222.232 64.0213 221.906 63.904C221.581 63.7867 221.301 63.6133 221.066 63.384L221.45 62.688C221.701 62.8907 221.946 63.04 222.186 63.136C222.432 63.232 222.666 63.28 222.89 63.28C223.098 63.28 223.264 63.2427 223.386 63.168C223.514 63.0933 223.578 62.9813 223.578 62.832C223.578 62.7307 223.544 62.6533 223.474 62.6C223.405 62.5413 223.304 62.4907 223.17 62.448C223.042 62.4053 222.885 62.3573 222.698 62.304C222.389 62.2027 222.13 62.104 221.922 62.008C221.714 61.912 221.557 61.792 221.45 61.648C221.349 61.4987 221.298 61.3093 221.298 61.08C221.298 60.8027 221.368 60.5653 221.506 60.368C221.65 60.1653 221.848 60.008 222.098 59.896C222.354 59.784 222.653 59.728 222.994 59.728C223.293 59.728 223.576 59.776 223.842 59.872C224.109 59.9627 224.352 60.112 224.57 60.32L224.138 61C223.925 60.8347 223.722 60.7147 223.53 60.64C223.338 60.56 223.144 60.52 222.946 60.52C222.834 60.52 222.728 60.5333 222.626 60.56C222.53 60.5867 222.45 60.632 222.386 60.696C222.328 60.7547 222.298 60.84 222.298 60.952C222.298 61.0533 222.325 61.1333 222.378 61.192C222.437 61.2453 222.522 61.2933 222.634 61.336C222.752 61.3787 222.893 61.4267 223.058 61.48C223.394 61.576 223.677 61.6747 223.906 61.776C224.141 61.8773 224.317 62.0027 224.434 62.152C224.552 62.296 224.61 62.496 224.61 62.752C224.61 63.168 224.458 63.4933 224.154 63.728C223.85 63.9627 223.442 64.08 222.93 64.08ZM228.203 64L226.979 62.192L226.411 62.752V64H225.339V58.16H226.411V61.696L228.099 59.816H229.235L227.675 61.592L229.347 64H228.203ZM231.526 64.08C231.19 64.08 230.886 64.024 230.614 63.912C230.342 63.7947 230.11 63.6373 229.918 63.44C229.726 63.2373 229.576 63.008 229.47 62.752C229.368 62.4907 229.318 62.216 229.318 61.928C229.318 61.528 229.406 61.1627 229.582 60.832C229.763 60.5013 230.019 60.2373 230.35 60.04C230.686 59.8373 231.08 59.736 231.534 59.736C231.992 59.736 232.384 59.8373 232.71 60.04C233.035 60.2373 233.283 60.5013 233.454 60.832C233.63 61.1573 233.718 61.5093 233.718 61.888C233.718 61.952 233.715 62.0187 233.71 62.088C233.704 62.152 233.699 62.2053 233.694 62.248H230.454C230.475 62.4613 230.536 62.648 230.638 62.808C230.744 62.968 230.878 63.0907 231.038 63.176C231.203 63.256 231.379 63.296 231.566 63.296C231.779 63.296 231.979 63.2453 232.166 63.144C232.358 63.0373 232.488 62.8987 232.558 62.728L233.478 62.984C233.376 63.1973 233.23 63.3867 233.038 63.552C232.851 63.7173 232.63 63.848 232.374 63.944C232.118 64.0347 231.835 64.08 231.526 64.08ZM230.43 61.568H232.622C232.6 61.3547 232.539 61.1707 232.438 61.016C232.342 60.856 232.214 60.7333 232.054 60.648C231.894 60.5573 231.715 60.512 231.518 60.512C231.326 60.512 231.15 60.5573 230.99 60.648C230.835 60.7333 230.707 60.856 230.606 61.016C230.51 61.1707 230.451 61.3547 230.43 61.568ZM202.047 69.352V73H200.943V67.32H201.823L204.759 71.064V67.328H205.863V73H204.943L202.047 69.352ZM206.606 71.76C206.606 71.488 206.681 71.2507 206.83 71.048C206.985 70.84 207.198 70.68 207.47 70.568C207.742 70.456 208.054 70.4 208.406 70.4C208.582 70.4 208.761 70.4133 208.942 70.44C209.123 70.4667 209.281 70.5093 209.414 70.568V70.344C209.414 70.0773 209.334 69.872 209.174 69.728C209.019 69.584 208.787 69.512 208.478 69.512C208.249 69.512 208.03 69.552 207.822 69.632C207.614 69.712 207.395 69.8293 207.166 69.984L206.822 69.28C207.099 69.0987 207.382 68.9627 207.67 68.872C207.963 68.7813 208.27 68.736 208.59 68.736C209.187 68.736 209.651 68.8853 209.982 69.184C210.318 69.4827 210.486 69.9093 210.486 70.464V71.8C210.486 71.912 210.505 71.992 210.542 72.04C210.585 72.088 210.651 72.1173 210.742 72.128V73C210.646 73.016 210.558 73.0293 210.478 73.04C210.403 73.0507 210.339 73.056 210.286 73.056C210.073 73.056 209.91 73.008 209.798 72.912C209.691 72.816 209.625 72.6987 209.598 72.56L209.574 72.344C209.393 72.5787 209.166 72.76 208.894 72.888C208.622 73.016 208.345 73.08 208.062 73.08C207.785 73.08 207.534 73.024 207.31 72.912C207.091 72.7947 206.918 72.6373 206.79 72.44C206.667 72.2373 206.606 72.0107 206.606 71.76ZM209.214 71.976C209.273 71.912 209.321 71.848 209.358 71.784C209.395 71.72 209.414 71.6613 209.414 71.608V71.184C209.286 71.1307 209.147 71.0907 208.998 71.064C208.849 71.032 208.707 71.016 208.574 71.016C208.297 71.016 208.067 71.0773 207.886 71.2C207.71 71.3173 207.622 71.4747 207.622 71.672C207.622 71.7787 207.651 71.88 207.71 71.976C207.769 72.072 207.854 72.1493 207.966 72.208C208.078 72.2667 208.211 72.296 208.366 72.296C208.526 72.296 208.683 72.2667 208.838 72.208C208.993 72.144 209.118 72.0667 209.214 71.976ZM213.961 72.784C213.87 72.8213 213.761 72.864 213.633 72.912C213.505 72.96 213.366 72.9973 213.217 73.024C213.073 73.056 212.926 73.072 212.777 73.072C212.579 73.072 212.398 73.0373 212.233 72.968C212.067 72.8987 211.934 72.7893 211.833 72.64C211.737 72.4853 211.689 72.2853 211.689 72.04V69.632H211.137V68.808H211.689V67.448H212.761V68.808H213.641V69.632H212.761V71.68C212.766 71.824 212.806 71.928 212.881 71.992C212.955 72.056 213.049 72.088 213.161 72.088C213.273 72.088 213.382 72.0693 213.489 72.032C213.595 71.9947 213.681 71.9627 213.745 71.936L213.961 72.784ZM214.479 71.432V68.808H215.551V71.2C215.551 71.52 215.61 71.7627 215.727 71.928C215.844 72.088 216.018 72.168 216.247 72.168C216.386 72.168 216.522 72.1413 216.655 72.088C216.794 72.0293 216.919 71.944 217.031 71.832C217.148 71.72 217.247 71.5787 217.327 71.408V68.808H218.399V71.8C218.399 71.912 218.418 71.992 218.455 72.04C218.498 72.088 218.564 72.1173 218.655 72.128V73C218.548 73.016 218.458 73.0267 218.383 73.032C218.314 73.0427 218.25 73.048 218.191 73.048C217.999 73.048 217.842 73.0053 217.719 72.92C217.602 72.8293 217.532 72.7067 217.511 72.552L217.487 72.216C217.3 72.4987 217.06 72.7147 216.767 72.864C216.474 73.008 216.151 73.08 215.799 73.08C215.367 73.08 215.039 72.9413 214.815 72.664C214.591 72.3813 214.479 71.9707 214.479 71.432ZM221.96 69.736C221.635 69.736 221.344 69.8 221.088 69.928C220.832 70.0507 220.648 70.2293 220.536 70.464V73H219.464V68.808H220.448V69.704C220.598 69.416 220.787 69.1893 221.016 69.024C221.246 68.8587 221.488 68.768 221.744 68.752C221.803 68.752 221.848 68.752 221.88 68.752C221.912 68.752 221.939 68.7547 221.96 68.76V69.736Z" fill="white"/>
<g clip-path="url(#clip2_1237_150)">
<path d="M132.075 47.5091C132.075 48.2674 132.359 48.9947 132.864 49.5309C133.37 50.0671 134.055 50.3683 134.769 50.3683C135.484 50.3683 136.169 50.0671 136.675 49.5309C137.18 48.9947 137.464 48.2674 137.464 47.5091C137.464 46.7508 137.18 46.0235 136.675 45.4873C136.169 44.9511 135.484 44.6498 134.769 44.6498C134.055 44.6498 133.37 44.9511 132.864 45.4873C132.359 46.0235 132.075 46.7508 132.075 47.5091Z" stroke="white" stroke-linecap="round" stroke-linejoin="round"/>
<path d="M146.894 47.5091C146.894 48.2674 147.178 48.9947 147.683 49.5309C148.188 50.0671 148.874 50.3683 149.588 50.3683C150.303 50.3683 150.988 50.0671 151.493 49.5309C151.999 48.9947 152.282 48.2674 152.282 47.5091C152.282 46.7508 151.999 46.0235 151.493 45.4873C150.988 44.9511 150.303 44.6498 149.588 44.6498C148.874 44.6498 148.188 44.9511 147.683 45.4873C147.178 46.0235 146.894 46.7508 146.894 47.5091Z" stroke="white" stroke-linecap="round" stroke-linejoin="round"/>
<path d="M149.588 44.6498H134.769V24.6351H132.075" stroke="white" stroke-linecap="round" stroke-linejoin="round"/>
<path d="M134.769 27.4944L153.629 28.924L152.282 38.9314H134.769" stroke="white" stroke-linecap="round" stroke-linejoin="round"/>
</g>
<path d="M144.569 6.70673V7.19073H142.945V6.70673H143.513V5.49473C143.489 5.52673 143.452 5.56007 143.401 5.59473C143.35 5.62673 143.293 5.6574 143.229 5.68673C143.165 5.71607 143.101 5.74007 143.037 5.75873C142.973 5.7774 142.916 5.78673 142.865 5.78673V5.28673C142.913 5.28673 142.97 5.27207 143.037 5.24273C143.106 5.21073 143.174 5.1734 143.241 5.13073C143.31 5.08807 143.369 5.04673 143.417 5.00673C143.468 4.96407 143.5 4.93073 143.513 4.90673H144.061V6.70673H144.569ZM141.719 12.2307C141.549 12.2307 141.395 12.2027 141.259 12.1467C141.123 12.0881 141.007 12.0081 140.911 11.9067C140.818 11.8054 140.746 11.6894 140.695 11.5587C140.645 11.4281 140.619 11.2907 140.619 11.1467C140.619 11.0001 140.645 10.8614 140.695 10.7307C140.746 10.6001 140.818 10.4841 140.911 10.3827C141.007 10.2814 141.123 10.2027 141.259 10.1467C141.395 10.0881 141.549 10.0587 141.719 10.0587C141.89 10.0587 142.042 10.0881 142.175 10.1467C142.311 10.2027 142.427 10.2814 142.523 10.3827C142.619 10.4841 142.691 10.6001 142.739 10.7307C142.79 10.8614 142.815 11.0001 142.815 11.1467C142.815 11.2907 142.79 11.4281 142.739 11.5587C142.691 11.6894 142.619 11.8054 142.523 11.9067C142.43 12.0081 142.315 12.0881 142.179 12.1467C142.043 12.2027 141.89 12.2307 141.719 12.2307ZM141.719 11.7747C141.821 11.7747 141.913 11.7481 141.995 11.6947C142.078 11.6387 142.143 11.5641 142.191 11.4707C142.242 11.3747 142.267 11.2654 142.267 11.1427C142.267 11.0227 142.242 10.9147 142.191 10.8187C142.143 10.7227 142.078 10.6481 141.995 10.5947C141.913 10.5414 141.821 10.5147 141.719 10.5147C141.615 10.5147 141.522 10.5427 141.439 10.5987C141.357 10.6521 141.291 10.7267 141.243 10.8227C141.195 10.9161 141.171 11.0241 141.171 11.1467C141.171 11.2694 141.195 11.3787 141.243 11.4747C141.291 11.5681 141.357 11.6414 141.439 11.6947C141.522 11.7481 141.615 11.7747 141.719 11.7747ZM140.675 12.2067L141.087 11.6987L141.311 11.8627L141.019 12.2067H140.675ZM141.351 11.8147L141.155 11.6707L142.095 10.4387L142.315 10.5547L141.351 11.8147ZM142.383 10.5227L142.131 10.3947L142.391 10.0787H142.743L142.383 10.5227ZM144.425 10.5587C144.262 10.5587 144.117 10.5907 143.989 10.6547C143.861 10.7161 143.769 10.8054 143.713 10.9227V12.1907H143.177V10.0947H143.669V10.5427C143.744 10.3987 143.838 10.2854 143.953 10.2027C144.068 10.1201 144.189 10.0747 144.317 10.0667C144.346 10.0667 144.369 10.0667 144.385 10.0667C144.401 10.0667 144.414 10.0681 144.425 10.0707V10.5587ZM145.669 12.2307C145.501 12.2307 145.349 12.2027 145.213 12.1467C145.077 12.0881 144.961 12.0094 144.865 11.9107C144.769 11.8094 144.694 11.6947 144.641 11.5667C144.59 11.4361 144.565 11.2987 144.565 11.1547C144.565 10.9547 144.609 10.7721 144.697 10.6067C144.787 10.4414 144.915 10.3094 145.081 10.2107C145.249 10.1094 145.446 10.0587 145.673 10.0587C145.902 10.0587 146.098 10.1094 146.261 10.2107C146.423 10.3094 146.547 10.4414 146.633 10.6067C146.721 10.7694 146.765 10.9454 146.765 11.1347C146.765 11.1667 146.763 11.2001 146.761 11.2347C146.758 11.2667 146.755 11.2934 146.753 11.3147H145.133C145.143 11.4214 145.174 11.5147 145.225 11.5947C145.278 11.6747 145.345 11.7361 145.425 11.7787C145.507 11.8187 145.595 11.8387 145.689 11.8387C145.795 11.8387 145.895 11.8134 145.989 11.7627C146.085 11.7094 146.15 11.6401 146.185 11.5547L146.645 11.6827C146.594 11.7894 146.521 11.8841 146.425 11.9667C146.331 12.0494 146.221 12.1147 146.093 12.1627C145.965 12.2081 145.823 12.2307 145.669 12.2307ZM145.121 10.9747H146.217C146.206 10.8681 146.175 10.7761 146.125 10.6987C146.077 10.6187 146.013 10.5574 145.933 10.5147C145.853 10.4694 145.763 10.4467 145.665 10.4467C145.569 10.4467 145.481 10.4694 145.401 10.5147C145.323 10.5574 145.259 10.6187 145.209 10.6987C145.161 10.7761 145.131 10.8681 145.121 10.9747Z" fill="white"/>
<path d="M85.1846 6.70673V7.19073H83.5606V6.70673H84.1286V5.49473C84.1046 5.52673 84.0673 5.56007 84.0166 5.59473C83.966 5.62673 83.9086 5.6574 83.8446 5.68673C83.7806 5.71607 83.7166 5.74007 83.6526 5.75873C83.5886 5.7774 83.5313 5.78673 83.4806 5.78673V5.28673C83.5286 5.28673 83.586 5.27207 83.6526 5.24273C83.722 5.21073 83.79 5.1734 83.8566 5.13073C83.926 5.08807 83.9846 5.04673 84.0326 5.00673C84.0833 4.96407 84.1153 4.93073 84.1286 4.90673H84.6766V6.70673H85.1846ZM82.335 12.2307C82.1643 12.2307 82.011 12.2027 81.875 12.1467C81.739 12.0881 81.623 12.0081 81.527 11.9067C81.4337 11.8054 81.3617 11.6894 81.311 11.5587C81.2603 11.4281 81.235 11.2907 81.235 11.1467C81.235 11.0001 81.2603 10.8614 81.311 10.7307C81.3617 10.6001 81.4337 10.4841 81.527 10.3827C81.623 10.2814 81.739 10.2027 81.875 10.1467C82.011 10.0881 82.1643 10.0587 82.335 10.0587C82.5057 10.0587 82.6577 10.0881 82.791 10.1467C82.927 10.2027 83.043 10.2814 83.139 10.3827C83.235 10.4841 83.307 10.6001 83.355 10.7307C83.4057 10.8614 83.431 11.0001 83.431 11.1467C83.431 11.2907 83.4057 11.4281 83.355 11.5587C83.307 11.6894 83.235 11.8054 83.139 11.9067C83.0457 12.0081 82.931 12.0881 82.795 12.1467C82.659 12.2027 82.5057 12.2307 82.335 12.2307ZM82.335 11.7747C82.4363 11.7747 82.5283 11.7481 82.611 11.6947C82.6937 11.6387 82.759 11.5641 82.807 11.4707C82.8577 11.3747 82.883 11.2654 82.883 11.1427C82.883 11.0227 82.8577 10.9147 82.807 10.8187C82.759 10.7227 82.6937 10.6481 82.611 10.5947C82.5283 10.5414 82.4363 10.5147 82.335 10.5147C82.231 10.5147 82.1377 10.5427 82.055 10.5987C81.9723 10.6521 81.907 10.7267 81.859 10.8227C81.811 10.9161 81.787 11.0241 81.787 11.1467C81.787 11.2694 81.811 11.3787 81.859 11.4747C81.907 11.5681 81.9723 11.6414 82.055 11.6947C82.1377 11.7481 82.231 11.7747 82.335 11.7747ZM81.291 12.2067L81.703 11.6987L81.927 11.8627L81.635 12.2067H81.291ZM81.967 11.8147L81.771 11.6707L82.711 10.4387L82.931 10.5547L81.967 11.8147ZM82.999 10.5227L82.747 10.3947L83.007 10.0787H83.359L82.999 10.5227ZM85.0408 10.5587C84.8781 10.5587 84.7328 10.5907 84.6048 10.6547C84.4768 10.7161 84.3848 10.8054 84.3288 10.9227V12.1907H83.7928V10.0947H84.2848V10.5427C84.3594 10.3987 84.4541 10.2854 84.5688 10.2027C84.6834 10.1201 84.8048 10.0747 84.9328 10.0667C84.9621 10.0667 84.9848 10.0667 85.0008 10.0667C85.0168 10.0667 85.0301 10.0681 85.0408 10.0707V10.5587ZM86.2843 12.2307C86.1163 12.2307 85.9643 12.2027 85.8283 12.1467C85.6923 12.0881 85.5763 12.0094 85.4803 11.9107C85.3843 11.8094 85.3096 11.6947 85.2563 11.5667C85.2056 11.4361 85.1803 11.2987 85.1803 11.1547C85.1803 10.9547 85.2243 10.7721 85.3123 10.6067C85.403 10.4414 85.531 10.3094 85.6963 10.2107C85.8643 10.1094 86.0616 10.0587 86.2883 10.0587C86.5176 10.0587 86.7136 10.1094 86.8763 10.2107C87.039 10.3094 87.163 10.4414 87.2483 10.6067C87.3363 10.7694 87.3803 10.9454 87.3803 11.1347C87.3803 11.1667 87.379 11.2001 87.3763 11.2347C87.3736 11.2667 87.371 11.2934 87.3683 11.3147H85.7483C85.759 11.4214 85.7896 11.5147 85.8403 11.5947C85.8936 11.6747 85.9603 11.7361 86.0403 11.7787C86.123 11.8187 86.211 11.8387 86.3043 11.8387C86.411 11.8387 86.511 11.8134 86.6043 11.7627C86.7003 11.7094 86.7656 11.6401 86.8003 11.5547L87.2603 11.6827C87.2096 11.7894 87.1363 11.8841 87.0403 11.9667C86.947 12.0494 86.8363 12.1147 86.7083 12.1627C86.5803 12.2081 86.439 12.2307 86.2843 12.2307ZM85.7363 10.9747H86.8323C86.8216 10.8681 86.791 10.7761 86.7403 10.6987C86.6923 10.6187 86.6283 10.5574 86.5483 10.5147C86.4683 10.4694 86.379 10.4467 86.2803 10.4467C86.1843 10.4467 86.0963 10.4694 86.0163 10.5147C85.939 10.5574 85.875 10.6187 85.8243 10.6987C85.7763 10.7761 85.747 10.8681 85.7363 10.9747Z" fill="white"/>
<path d="M22.501 6.70673V7.19073H20.877V6.70673H21.445V5.49473C21.421 5.52673 21.3837 5.56007 21.333 5.59473C21.2824 5.62673 21.225 5.6574 21.161 5.68673C21.097 5.71607 21.033 5.74007 20.969 5.75873C20.905 5.7774 20.8477 5.78673 20.797 5.78673V5.28673C20.845 5.28673 20.9024 5.27207 20.969 5.24273C21.0384 5.21073 21.1064 5.1734 21.173 5.13073C21.2424 5.08807 21.301 5.04673 21.349 5.00673C21.3997 4.96407 21.4317 4.93073 21.445 4.90673H21.993V6.70673H22.501ZM19.6514 12.2307C19.4807 12.2307 19.3274 12.2027 19.1914 12.1467C19.0554 12.0881 18.9394 12.0081 18.8434 11.9067C18.7501 11.8054 18.6781 11.6894 18.6274 11.5587C18.5767 11.4281 18.5514 11.2907 18.5514 11.1467C18.5514 11.0001 18.5767 10.8614 18.6274 10.7307C18.6781 10.6001 18.7501 10.4841 18.8434 10.3827C18.9394 10.2814 19.0554 10.2027 19.1914 10.1467C19.3274 10.0881 19.4807 10.0587 19.6514 10.0587C19.8221 10.0587 19.9741 10.0881 20.1074 10.1467C20.2434 10.2027 20.3594 10.2814 20.4554 10.3827C20.5514 10.4841 20.6234 10.6001 20.6714 10.7307C20.7221 10.8614 20.7474 11.0001 20.7474 11.1467C20.7474 11.2907 20.7221 11.4281 20.6714 11.5587C20.6234 11.6894 20.5514 11.8054 20.4554 11.9067C20.3621 12.0081 20.2474 12.0881 20.1114 12.1467C19.9754 12.2027 19.8221 12.2307 19.6514 12.2307ZM19.6514 11.7747C19.7527 11.7747 19.8447 11.7481 19.9274 11.6947C20.0101 11.6387 20.0754 11.5641 20.1234 11.4707C20.1741 11.3747 20.1994 11.2654 20.1994 11.1427C20.1994 11.0227 20.1741 10.9147 20.1234 10.8187C20.0754 10.7227 20.0101 10.6481 19.9274 10.5947C19.8447 10.5414 19.7527 10.5147 19.6514 10.5147C19.5474 10.5147 19.4541 10.5427 19.3714 10.5987C19.2887 10.6521 19.2234 10.7267 19.1754 10.8227C19.1274 10.9161 19.1034 11.0241 19.1034 11.1467C19.1034 11.2694 19.1274 11.3787 19.1754 11.4747C19.2234 11.5681 19.2887 11.6414 19.3714 11.6947C19.4541 11.7481 19.5474 11.7747 19.6514 11.7747ZM18.6074 12.2067L19.0194 11.6987L19.2434 11.8627L18.9514 12.2067H18.6074ZM19.2834 11.8147L19.0874 11.6707L20.0274 10.4387L20.2474 10.5547L19.2834 11.8147ZM20.3154 10.5227L20.0634 10.3947L20.3234 10.0787H20.6754L20.3154 10.5227ZM22.3572 10.5587C22.1945 10.5587 22.0492 10.5907 21.9212 10.6547C21.7932 10.7161 21.7012 10.8054 21.6452 10.9227V12.1907H21.1092V10.0947H21.6012V10.5427C21.6758 10.3987 21.7705 10.2854 21.8852 10.2027C21.9998 10.1201 22.1212 10.0747 22.2492 10.0667C22.2785 10.0667 22.3012 10.0667 22.3172 10.0667C22.3332 10.0667 22.3465 10.0681 22.3572 10.0707V10.5587ZM23.6007 12.2307C23.4327 12.2307 23.2807 12.2027 23.1447 12.1467C23.0087 12.0881 22.8927 12.0094 22.7967 11.9107C22.7007 11.8094 22.626 11.6947 22.5727 11.5667C22.522 11.4361 22.4967 11.2987 22.4967 11.1547C22.4967 10.9547 22.5407 10.7721 22.6287 10.6067C22.7194 10.4414 22.8474 10.3094 23.0127 10.2107C23.1807 10.1094 23.378 10.0587 23.6047 10.0587C23.834 10.0587 24.03 10.1094 24.1927 10.2107C24.3554 10.3094 24.4794 10.4414 24.5647 10.6067C24.6527 10.7694 24.6967 10.9454 24.6967 11.1347C24.6967 11.1667 24.6954 11.2001 24.6927 11.2347C24.69 11.2667 24.6874 11.2934 24.6847 11.3147H23.0647C23.0754 11.4214 23.106 11.5147 23.1567 11.5947C23.21 11.6747 23.2767 11.7361 23.3567 11.7787C23.4394 11.8187 23.5274 11.8387 23.6207 11.8387C23.7274 11.8387 23.8274 11.8134 23.9207 11.7627C24.0167 11.7094 24.082 11.6401 24.1167 11.5547L24.5767 11.6827C24.526 11.7894 24.4527 11.8841 24.3567 11.9667C24.2634 12.0494 24.1527 12.1147 24.0247 12.1627C23.8967 12.2081 23.7554 12.2307 23.6007 12.2307ZM23.0527 10.9747H24.1487C24.138 10.8681 24.1074 10.7761 24.0567 10.6987C24.0087 10.6187 23.9447 10.5574 23.8647 10.5147C23.7847 10.4694 23.6954 10.4467 23.5967 10.4467C23.5007 10.4467 23.4127 10.4694 23.3327 10.5147C23.2554 10.5574 23.1914 10.6187 23.1407 10.6987C23.0927 10.7761 23.0634 10.8681 23.0527 10.9747Z" fill="white"/>
<path d="M143.677 0.500015C147.846 0.500094 151.26 4.024 151.26 8.4131C151.26 12.8021 147.846 16.3251 143.677 16.3252C139.508 16.3252 136.094 12.8021 136.094 8.4131C136.094 4.02395 139.508 0.500015 143.677 0.500015Z" stroke="white"/>
<g clip-path="url(#clip3_1237_150)">
<path d="M71.3438 50.3683H95.5924" stroke="white" stroke-linecap="round" stroke-linejoin="round"/>
<path d="M71.3438 34.6425H95.5924" stroke="white" stroke-linecap="round" stroke-linejoin="round"/>
<path d="M74.0381 30.2436L83.4681 25.9548L92.8981 30.2436" stroke="white" stroke-linecap="round" stroke-linejoin="round"/>
<path d="M72.6909 34.6425V50.3683" stroke="white" stroke-linecap="round" stroke-linejoin="round"/>
<path d="M94.2451 34.6425V50.3683" stroke="white" stroke-linecap="round" stroke-linejoin="round"/>
<path d="M78.0793 40.361V44.6498" stroke="white" stroke-linecap="round" stroke-linejoin="round"/>
<path d="M83.468 40.361V44.6498" stroke="white" stroke-linecap="round" stroke-linejoin="round"/>
<path d="M88.8564 40.361V44.6498" stroke="white" stroke-linecap="round" stroke-linejoin="round"/>
</g>
<path d="M84.293 0.500015C88.4621 0.500094 91.876 4.024 91.876 8.4131C91.8758 12.8021 88.462 16.3251 84.293 16.3252C80.1238 16.3252 76.7101 12.8021 76.71 8.4131C76.71 4.02395 80.1237 0.500015 84.293 0.500015Z" stroke="white"/>
<path d="M21.6094 0.829956C25.7877 0.830033 29.1924 4.28947 29.1924 8.578C29.1923 12.8664 25.7877 16.326 21.6094 16.326C17.431 16.326 14.0265 12.8665 14.0264 8.578C14.0264 4.28943 17.4309 0.829956 21.6094 0.829956Z" stroke="white"/>
<g clip-path="url(#clip4_1237_150)">
<path d="M21.7742 47.5091H13.6913C12.6195 47.5091 11.5915 47.0572 10.8336 46.2529C10.0757 45.4486 9.6499 44.3577 9.6499 43.2202V31.7832C9.6499 30.6458 10.0757 29.5549 10.8336 28.7506C11.5915 27.9462 12.6195 27.4944 13.6913 27.4944H29.8571C30.9289 27.4944 31.9569 27.9462 32.7148 28.7506C33.4727 29.5549 33.8985 30.6458 33.8985 31.7832V38.2165" stroke="white" stroke-linecap="round" stroke-linejoin="round"/>
<path d="M9.6499 34.6425H33.8985" stroke="white" stroke-linecap="round" stroke-linejoin="round"/>
<path d="M27.1626 47.5091H35.2455" stroke="white" stroke-linecap="round" stroke-linejoin="round"/>
<path d="M31.2041 43.2202L35.2455 47.5091L31.2041 51.798" stroke="white" stroke-linecap="round" stroke-linejoin="round"/>
<path d="M24.4133 41.7906H27.1076" stroke="white" stroke-linecap="round" stroke-linejoin="round"/>
</g>
<line x1="168.426" y1="37.0017" x2="176.004" y2="37.0017" stroke="white" stroke-linecap="round"/>
<line x1="168.426" y1="40.9606" x2="176.004" y2="40.9606" stroke="white" stroke-linecap="round"/>
<path d="M210.154 40.6575C210.144 40.6575 209.96 40.6149 209.611 40.4518C208.842 40.0922 208.668 38.9834 208.274 38.2713C207.913 37.6185 207.271 37.1018 206.541 36.6289C206.369 36.5321 206.221 36.4622 206.071 36.4001C205.92 36.3381 205.771 36.2859 205.536 36.1915" stroke="white" stroke-linecap="round"/>
<path d="M211.309 20.8463C220.206 20.8463 227.469 28.5197 227.47 38.0504C227.47 47.5812 220.206 55.2554 211.309 55.2554C202.412 55.2552 195.148 47.5811 195.148 38.0504C195.149 28.5198 202.412 20.8465 211.309 20.8463Z" stroke="white"/>
<path d="M208.6 50.2275C208.6 49.7973 208.816 48.0445 209.137 46.8086C209.422 45.7145 209.864 44.4552 210.045 43.6195C210.139 43.186 210.125 42.4164 210.047 41.6153C209.957 40.6976 208.27 40.6954 207.452 40.3208C206.177 39.736 204.858 38.1279 204.162 37.1499C203.471 36.178 203.006 34.6733 202.897 32.7691C202.881 32.5003 203.439 33.6011 204.084 34.1173C204.719 34.6252 205.559 34.5178 206.339 34.648C207.011 34.76 207.72 35.0071 208.367 35.3789C209.006 35.7451 209.351 36.513 209.732 37.3463C210.13 38.2169 210.071 39.4227 210.085 40.4203C210.09 40.775 210.489 39.3499 210.805 38.5213C211.151 37.6123 211.918 37.018 212.497 36.4384C213.075 35.86 213.775 35.6466 214.397 35.432C216.013 34.874 219.099 34.8998 220.567 33.2046C220.97 32.7393 221.104 32.0658 221.299 31.5267C221.584 30.7358 220.957 34.0689 220.681 34.9873C220.324 36.1763 219.37 37.898 218.8 38.8013C218.162 39.8114 217.19 40.2839 216.09 40.9231C214.28 41.975 211.074 41.0354 210.418 40.8591C210.266 40.8183 210.173 40.6439 210.196 40.5721C210.411 39.9042 211.523 39.9258 212.251 39.5316C212.984 39.1352 213.723 38.6678 214.309 38.3653C214.638 38.2286 214.956 38.0904 215.217 37.9004C215.336 37.7821 215.43 37.6194 215.776 37.2194" stroke="white" stroke-linecap="round"/>
<path d="M210.291 38.6325C210.291 38.4366 210.124 37.7857 209.253 36.4614C208.94 35.9858 208.934 34.9867 209.043 34.0323C209.073 33.766 209.29 33.4508 209.669 32.8954C209.907 32.5476 210.295 32.1051 210.656 31.7123C211.329 30.9789 211.925 30.5052 212.299 30.2382C212.684 29.9641 213.064 29.8781 213.149 29.8682C213.451 29.8332 212.932 31.452 212.956 32.1934C212.973 32.7217 213.346 33.0638 213.538 33.3685C213.696 33.62 213.687 33.9597 213.615 34.3027C213.573 34.5043 213.24 34.9756 212.676 35.7439C212.062 36.5805 211.343 37.1751 210.897 37.5779C210.496 37.9401 210.435 38.1805 210.436 38.2973C210.436 38.4132 210.492 37.415 210.489 35.7978C210.642 34.8815 210.946 34.3088 211.126 34.0506C211.171 33.9935 211.214 33.9529 211.325 33.8682" stroke="white" stroke-linecap="round"/>
<path d="M209.65 46.8842C209.641 46.7135 209.676 46.2657 209.838 45.992C210.131 45.4951 210.841 44.9408 211.525 44.5491C212.579 43.946 213.512 43.6585 213.877 43.549C214.335 43.4118 214.764 43.3538 215.214 43.308C216.566 43.1707 217.353 42.7774 217.702 42.5446C217.758 42.5073 217.796 42.4604 217.796 42.4604C217.738 42.4878 217.527 42.8839 217.07 43.6744C216.802 44.1368 216.406 44.6923 216.014 45.1597C215.623 45.627 215.233 45.9813 214.865 46.2949C214.177 46.883 213.584 47.2422 213.095 47.4267C212.21 47.7614 211.521 47.6829 211.102 47.7039C210.572 47.7305 210.247 47.5322 209.997 47.327C209.79 47.1578 209.525 46.9707 209.256 46.8864C209.195 46.8673 209.133 46.8638 209.136 46.8681C209.509 47.3994 211.099 46.8618 211.516 46.7156C211.939 46.5673 212.311 46.0882 212.551 45.8017C212.749 45.565 213.133 45.1451 213.43 44.8956C213.486 44.8613 213.548 44.833 213.643 44.8025C213.737 44.7719 213.863 44.74 214.084 44.7062" stroke="white" stroke-linecap="round"/>
<defs>
<clipPath id="clip0_1237_150">
<rect width="12.6542" height="13.462" fill="white" transform="translate(44.5383 32.553)"/>
</clipPath>
<clipPath id="clip1_1237_150">
<rect width="12.6542" height="13.462" fill="white" transform="translate(106.369 32.553)"/>
</clipPath>
<clipPath id="clip2_1237_150">
<rect width="32.3315" height="34.311" fill="white" transform="translate(126.687 20.3463)"/>
</clipPath>
<clipPath id="clip3_1237_150">
<rect width="32.3315" height="34.311" fill="white" transform="translate(67.3022 20.3463)"/>
</clipPath>
<clipPath id="clip4_1237_150">
<rect width="32.3315" height="34.311" fill="white" transform="translate(5.6084 20.3463)"/>
</clipPath>
</defs>
</svg>
