<svg width="532" height="190" viewBox="0 0 532 190" fill="none" xmlns="http://www.w3.org/2000/svg">
<mask id="mask0_1396_62" style="mask-type:luminance" maskUnits="userSpaceOnUse" x="99" y="72" width="29" height="31">
<path d="M127.842 72.7656H99.5566V102.857H127.842V72.7656Z" fill="white"/>
</mask>
<g mask="url(#mask0_1396_62)">
<path d="M113.7 77.7808C114.013 77.7808 114.312 77.9129 114.533 78.148C114.755 78.3832 114.879 78.7021 114.879 79.0345V86.5574H121.95C122.263 86.5574 122.562 86.6895 122.784 86.9247C123.005 87.1598 123.129 87.4788 123.129 87.8114C123.129 88.1438 123.005 88.4628 122.784 88.6979C122.562 88.9331 122.263 89.0652 121.95 89.0652H114.879V96.5881C114.879 96.9205 114.755 97.2394 114.533 97.4746C114.312 97.7097 114.013 97.8419 113.7 97.8419C113.387 97.8419 113.088 97.7097 112.867 97.4746C112.646 97.2394 112.522 96.9205 112.522 96.5881V89.0652H105.45C105.137 89.0652 104.838 88.9331 104.617 88.6979C104.396 88.4628 104.271 88.1438 104.271 87.8114C104.271 87.4788 104.396 87.1598 104.617 86.9247C104.838 86.6895 105.137 86.5574 105.45 86.5574H112.522V79.0345C112.522 78.7021 112.646 78.3832 112.867 78.148C113.088 77.9129 113.387 77.7808 113.7 77.7808Z" fill="#24352D"/>
</g>
<mask id="mask1_1396_62" style="mask-type:luminance" maskUnits="userSpaceOnUse" x="237" y="72" width="30" height="31">
<path d="M266.051 72.7656H237.766V102.857H266.051V72.7656Z" fill="white"/>
</mask>
<g mask="url(#mask1_1396_62)">
<path d="M251.909 77.7808C252.222 77.7808 252.521 77.9129 252.743 78.148C252.964 78.3832 253.087 78.7021 253.087 79.0345V86.5574H260.159C260.472 86.5574 260.772 86.6895 260.993 86.9247C261.212 87.1598 261.337 87.4788 261.337 87.8114C261.337 88.1438 261.212 88.4628 260.993 88.6979C260.772 88.9331 260.472 89.0652 260.159 89.0652H253.087V96.5881C253.087 96.9205 252.964 97.2394 252.743 97.4746C252.521 97.7097 252.222 97.8419 251.909 97.8419C251.596 97.8419 251.296 97.7097 251.075 97.4746C250.854 97.2394 250.731 96.9205 250.731 96.5881V89.0652H243.658C243.346 89.0652 243.046 88.9331 242.825 88.6979C242.603 88.4628 242.48 88.1438 242.48 87.8114C242.48 87.4788 242.603 87.1598 242.825 86.9247C243.046 86.6895 243.346 86.5574 243.658 86.5574H250.731V79.0345C250.731 78.7021 250.854 78.3832 251.075 78.148C251.296 77.9129 251.596 77.7808 251.909 77.7808Z" fill="#24352D"/>
</g>
<path d="M23.7228 139.786C23.7228 140.502 23.5381 141.104 23.1684 141.592C22.7989 142.069 22.2982 142.433 21.6664 142.683C21.0464 142.934 20.3669 143.059 19.6278 143.059H13.4941V130.362H20.2894C20.8855 130.362 21.3981 130.523 21.8273 130.845C22.2684 131.155 22.6022 131.56 22.8286 132.061C23.0671 132.55 23.1863 133.063 23.1863 133.599C23.1863 134.207 23.0314 134.785 22.7213 135.334C22.4115 135.882 21.9584 136.287 21.3624 136.55C22.0896 136.764 22.6619 137.152 23.079 137.712C23.5082 138.272 23.7228 138.964 23.7228 139.786ZM21.2372 139.321C21.2372 138.999 21.1716 138.713 21.0405 138.463C20.9093 138.201 20.7305 137.998 20.504 137.855C20.2894 137.7 20.0391 137.623 19.753 137.623H15.9619V140.967H19.6278C19.9258 140.967 20.1941 140.895 20.4325 140.752C20.6828 140.597 20.8796 140.394 21.0226 140.144C21.1657 139.894 21.2372 139.619 21.2372 139.321ZM15.9619 132.472V135.673H19.2523C19.5265 135.673 19.7768 135.608 20.0033 135.477C20.2298 135.345 20.4086 135.161 20.5398 134.922C20.6828 134.684 20.7544 134.398 20.7544 134.064C20.7544 133.742 20.6888 133.462 20.5577 133.223C20.4384 132.985 20.2716 132.8 20.057 132.669C19.8543 132.538 19.6218 132.472 19.3596 132.472H15.9619ZM29.7614 143.238C29.0103 143.238 28.3308 143.112 27.7228 142.862C27.1148 142.6 26.5962 142.248 26.1671 141.807C25.7379 141.354 25.4041 140.841 25.1656 140.269C24.9392 139.685 24.8259 139.071 24.8259 138.427C24.8259 137.533 25.0226 136.717 25.416 135.977C25.8215 135.238 26.3937 134.648 27.1327 134.207C27.8838 133.754 28.766 133.527 29.7793 133.527C30.8046 133.527 31.6809 133.754 32.408 134.207C33.1354 134.648 33.6897 135.238 34.0711 135.977C34.4645 136.704 34.6612 137.491 34.6612 138.338C34.6612 138.481 34.6554 138.63 34.6433 138.785C34.6314 138.928 34.6196 139.047 34.6075 139.143H27.3652C27.413 139.619 27.55 140.037 27.7765 140.394C28.015 140.752 28.3129 141.026 28.6706 141.217C29.0403 141.396 29.4337 141.485 29.8508 141.485C30.3278 141.485 30.7749 141.372 31.192 141.145C31.6212 140.907 31.9133 140.597 32.0682 140.215L34.1247 140.788C33.8983 141.264 33.5703 141.688 33.1412 142.057C32.7241 142.427 32.2292 142.719 31.6569 142.934C31.0847 143.136 30.453 143.238 29.7614 143.238ZM27.3115 137.623H32.2113C32.1637 137.146 32.0267 136.734 31.8 136.389C31.5854 136.031 31.2993 135.757 30.9416 135.566C30.584 135.363 30.1848 135.262 29.7435 135.262C29.3143 135.262 28.9209 135.363 28.5633 135.566C28.2177 135.757 27.9316 136.031 27.7049 136.389C27.4903 136.734 27.3594 137.146 27.3115 137.623ZM41.6487 142.576C41.4462 142.659 41.2016 142.755 40.9155 142.862C40.6294 142.969 40.3196 143.053 39.9856 143.112C39.6638 143.184 39.3361 143.22 39.0021 143.22C38.5611 143.22 38.1558 143.142 37.7861 142.987C37.4166 142.832 37.1187 142.588 36.892 142.254C36.6774 141.908 36.5701 141.461 36.5701 140.913V135.53H35.3362V133.688H36.5701V130.648H38.9663V133.688H40.9334V135.53H38.9663V140.108C38.9784 140.43 39.0678 140.663 39.2346 140.806C39.4016 140.949 39.6101 141.02 39.8605 141.02C40.1108 141.02 40.3554 140.978 40.5936 140.895C40.8321 140.812 41.0228 140.74 41.1659 140.68L41.6487 142.576ZM42.2531 140.287C42.2531 139.679 42.4199 139.149 42.7538 138.695C43.0994 138.231 43.5764 137.873 44.1844 137.623C44.7924 137.372 45.4898 137.247 46.2767 137.247C46.6701 137.247 47.0693 137.277 47.4748 137.336C47.88 137.396 48.2316 137.491 48.5298 137.623V137.122C48.5298 136.526 48.351 136.067 47.9934 135.745C47.6476 135.423 47.129 135.262 46.4376 135.262C45.9248 135.262 45.4362 135.351 44.9712 135.53C44.5063 135.709 44.0174 135.971 43.5049 136.317L42.7359 134.743C43.3558 134.338 43.9877 134.034 44.6315 133.831C45.2871 133.629 45.9727 133.527 46.6879 133.527C48.0231 133.527 49.0603 133.861 49.7995 134.529C50.5505 135.197 50.9261 136.15 50.9261 137.39V140.376C50.9261 140.627 50.9676 140.806 51.0512 140.913C51.1465 141.02 51.2956 141.086 51.4983 141.11V143.059C51.2837 143.095 51.087 143.124 50.9082 143.148C50.7412 143.172 50.5981 143.184 50.479 143.184C50.002 143.184 49.6385 143.077 49.3882 142.862C49.1497 142.647 49.0006 142.385 48.9411 142.075L48.8875 141.592C48.482 142.117 47.9755 142.522 47.3675 142.808C46.7595 143.095 46.1394 143.238 45.5077 143.238C44.8876 143.238 44.3275 143.112 43.8268 142.862C43.3379 142.6 42.9505 142.248 42.6644 141.807C42.3901 141.354 42.2531 140.847 42.2531 140.287ZM48.0828 140.77C48.2138 140.627 48.321 140.484 48.4047 140.341C48.488 140.198 48.5298 140.066 48.5298 139.947V138.999C48.2437 138.88 47.9337 138.791 47.5999 138.731C47.266 138.66 46.9501 138.624 46.6522 138.624C46.0321 138.624 45.5196 138.761 45.1143 139.035C44.7209 139.297 44.5242 139.649 44.5242 140.09C44.5242 140.329 44.5897 140.555 44.7209 140.77C44.8519 140.984 45.0428 141.157 45.2931 141.288C45.5435 141.42 45.8414 141.485 46.1872 141.485C46.5449 141.485 46.8965 141.42 47.2423 141.288C47.5879 141.145 47.8682 140.973 48.0828 140.77ZM53.1473 130.005H55.5435V140.055C55.5435 140.484 55.615 140.776 55.7581 140.931C55.9012 141.074 56.0979 141.145 56.3482 141.145C56.5389 141.145 56.7356 141.121 56.9383 141.074C57.1411 141.026 57.3199 140.967 57.4748 140.895L57.7967 142.719C57.4748 142.874 57.0993 142.993 56.6701 143.077C56.2409 143.16 55.8535 143.202 55.5077 143.202C54.7567 143.202 54.1726 143.005 53.7553 142.612C53.35 142.206 53.1473 141.634 53.1473 140.895V130.005ZM58.8408 143.059V133.688H61.237V143.059H58.8408ZM58.8408 132.383V130.005H61.237V132.383H58.8408ZM72.1073 143.059H69.711V137.801C69.711 137.05 69.58 136.502 69.3176 136.156C69.0554 135.81 68.6917 135.638 68.2268 135.638C67.9049 135.638 67.5772 135.721 67.2433 135.888C66.9214 136.055 66.6295 136.287 66.367 136.585C66.1048 136.871 65.9142 137.205 65.7948 137.587V143.059H63.3986V133.688H65.5623V135.423C65.8008 135.018 66.1048 134.678 66.4743 134.404C66.844 134.118 67.2672 133.903 67.744 133.76C68.2328 133.605 68.7454 133.527 69.2819 133.527C69.8662 133.527 70.3429 133.635 70.7124 133.849C71.094 134.052 71.3801 134.332 71.5708 134.69C71.7735 135.036 71.9106 135.429 71.9821 135.87C72.0657 136.311 72.1073 136.758 72.1073 137.211V143.059ZM77.8567 143.112C77.2368 143.112 76.6646 142.993 76.14 142.755C75.6274 142.504 75.1804 142.159 74.7988 141.718C74.4293 141.277 74.1432 140.77 73.9404 140.198C73.7379 139.625 73.6364 139.017 73.6364 138.374C73.6364 137.694 73.7437 137.062 73.9583 136.478C74.1729 135.894 74.4711 135.381 74.8524 134.94C75.2458 134.487 75.705 134.141 76.2294 133.903C76.7658 133.653 77.356 133.527 77.9997 133.527C78.7271 133.527 79.3648 133.694 79.9131 134.028C80.4617 134.35 80.9146 134.785 81.2722 135.334V133.688H83.3644V142.612C83.3644 143.542 83.138 144.334 82.6849 144.99C82.2439 145.658 81.6298 146.164 80.843 146.51C80.0562 146.868 79.1621 147.047 78.1607 147.047C77.1474 147.047 76.2891 146.874 75.5856 146.528C74.8824 146.194 74.2802 145.717 73.7795 145.097L75.0849 143.828C75.4425 144.269 75.8896 144.615 76.4261 144.865C76.9746 145.115 77.5527 145.24 78.1607 145.24C78.6734 145.24 79.1384 145.145 79.5555 144.954C79.9847 144.775 80.3244 144.489 80.5748 144.096C80.8372 143.714 80.9682 143.22 80.9682 142.612V141.431C80.6584 141.968 80.2171 142.385 79.6449 142.683C79.0847 142.969 78.4886 143.112 77.8567 143.112ZM78.6614 141.199C78.9238 141.199 79.1741 141.157 79.4124 141.074C79.6509 140.99 79.8716 140.877 80.0741 140.734C80.2768 140.591 80.4556 140.424 80.6105 140.233C80.7657 140.031 80.8848 139.828 80.9682 139.625V137.39C80.8251 137.021 80.6226 136.699 80.3602 136.424C80.1098 136.15 79.8237 135.942 79.5018 135.799C79.192 135.644 78.8641 135.566 78.5183 135.566C78.1488 135.566 77.8151 135.644 77.5169 135.799C77.2189 135.953 76.9625 136.174 76.748 136.46C76.5334 136.734 76.3666 137.044 76.2473 137.39C76.14 137.724 76.0863 138.076 76.0863 138.445C76.0863 138.827 76.152 139.184 76.283 139.518C76.4142 139.852 76.5931 140.144 76.8195 140.394C77.058 140.645 77.3323 140.841 77.6421 140.984C77.964 141.127 78.3037 141.199 78.6614 141.199Z" fill="#24352D"/>
<path d="M167.219 139.786C167.219 140.502 167.034 141.104 166.665 141.592C166.295 142.069 165.794 142.433 165.162 142.683C164.543 142.934 163.863 143.059 163.124 143.059H156.99V130.362H163.786C164.382 130.362 164.894 130.523 165.323 130.845C165.765 131.155 166.098 131.56 166.325 132.061C166.563 132.55 166.682 133.063 166.682 133.599C166.682 134.207 166.528 134.785 166.218 135.334C165.908 135.882 165.455 136.287 164.858 136.55C165.586 136.764 166.158 137.152 166.575 137.712C167.004 138.272 167.219 138.964 167.219 139.786ZM164.733 139.321C164.733 138.999 164.668 138.713 164.537 138.463C164.406 138.201 164.227 137.998 164 137.855C163.786 137.7 163.535 137.623 163.249 137.623H159.458V140.967H163.124C163.422 140.967 163.69 140.895 163.929 140.752C164.179 140.597 164.376 140.394 164.519 140.144C164.662 139.894 164.733 139.619 164.733 139.321ZM159.458 132.472V135.673H162.748C163.023 135.673 163.273 135.608 163.499 135.477C163.726 135.345 163.905 135.161 164.036 134.922C164.179 134.684 164.25 134.398 164.25 134.064C164.25 133.742 164.185 133.462 164.054 133.223C163.935 132.985 163.768 132.8 163.553 132.669C163.351 132.538 163.118 132.472 162.856 132.472H159.458ZM168.268 140.287C168.268 139.679 168.435 139.149 168.769 138.695C169.115 138.231 169.592 137.873 170.2 137.623C170.808 137.372 171.505 137.247 172.292 137.247C172.685 137.247 173.085 137.277 173.49 137.336C173.896 137.396 174.247 137.491 174.545 137.623V137.122C174.545 136.526 174.366 136.067 174.009 135.745C173.663 135.423 173.144 135.262 172.453 135.262C171.94 135.262 171.451 135.351 170.987 135.53C170.522 135.709 170.033 135.971 169.52 136.317L168.751 134.743C169.371 134.338 170.003 134.034 170.647 133.831C171.303 133.629 171.988 133.527 172.703 133.527C174.039 133.527 175.076 133.861 175.815 134.529C176.566 135.197 176.941 136.15 176.941 137.39V140.376C176.941 140.627 176.983 140.806 177.067 140.913C177.162 141.02 177.311 141.086 177.514 141.11V143.059C177.299 143.095 177.102 143.124 176.923 143.148C176.757 143.172 176.614 143.184 176.494 143.184C176.018 143.184 175.654 143.077 175.403 142.862C175.165 142.647 175.016 142.385 174.956 142.075L174.903 141.592C174.498 142.117 173.991 142.522 173.383 142.808C172.775 143.095 172.155 143.238 171.523 143.238C170.903 143.238 170.343 143.112 169.842 142.862C169.353 142.6 168.966 142.248 168.68 141.807C168.406 141.354 168.268 140.847 168.268 140.287ZM174.098 140.77C174.229 140.627 174.337 140.484 174.42 140.341C174.504 140.198 174.545 140.066 174.545 139.947V138.999C174.259 138.88 173.949 138.791 173.615 138.731C173.282 138.66 172.966 138.624 172.667 138.624C172.048 138.624 171.535 138.761 171.13 139.035C170.736 139.297 170.539 139.649 170.539 140.09C170.539 140.329 170.605 140.555 170.736 140.77C170.867 140.984 171.058 141.157 171.308 141.288C171.559 141.42 171.857 141.485 172.203 141.485C172.56 141.485 172.912 141.42 173.258 141.288C173.603 141.145 173.883 140.973 174.098 140.77ZM187.889 143.059H185.493V137.801C185.493 137.05 185.362 136.502 185.1 136.156C184.837 135.81 184.474 135.638 184.009 135.638C183.687 135.638 183.359 135.721 183.025 135.888C182.703 136.055 182.411 136.287 182.149 136.585C181.887 136.871 181.696 137.205 181.577 137.587V143.059H179.181V133.688H181.344V135.423C181.583 135.018 181.887 134.678 182.256 134.404C182.626 134.118 183.049 133.903 183.526 133.76C184.015 133.605 184.528 133.527 185.064 133.527C185.648 133.527 186.125 133.635 186.495 133.849C186.876 134.052 187.162 134.332 187.353 134.69C187.555 135.036 187.693 135.429 187.764 135.87C187.848 136.311 187.889 136.758 187.889 137.211V143.059ZM196.375 143.059L193.639 139.017L192.369 140.269V143.059H189.973V130.005H192.369V137.909L196.142 133.706H198.682L195.195 137.676L198.932 143.059H196.375ZM203.801 143.238C203.05 143.238 202.37 143.112 201.762 142.862C201.154 142.6 200.636 142.248 200.207 141.807C199.777 141.354 199.444 140.841 199.205 140.269C198.979 139.685 198.865 139.071 198.865 138.427C198.865 137.533 199.062 136.717 199.455 135.977C199.861 135.238 200.433 134.648 201.172 134.207C201.923 133.754 202.805 133.527 203.819 133.527C204.844 133.527 205.72 133.754 206.447 134.207C207.175 134.648 207.729 135.238 208.111 135.977C208.504 136.704 208.701 137.491 208.701 138.338C208.701 138.481 208.695 138.63 208.683 138.785C208.671 138.928 208.659 139.047 208.647 139.143H201.405C201.452 139.619 201.59 140.037 201.816 140.394C202.054 140.752 202.352 141.026 202.71 141.217C203.08 141.396 203.473 141.485 203.89 141.485C204.367 141.485 204.814 141.372 205.231 141.145C205.661 140.907 205.953 140.597 206.108 140.215L208.164 140.788C207.938 141.264 207.61 141.688 207.181 142.057C206.763 142.427 206.269 142.719 205.696 142.934C205.124 143.136 204.492 143.238 203.801 143.238ZM201.351 137.623H206.251C206.203 137.146 206.066 136.734 205.839 136.389C205.625 136.031 205.339 135.757 204.981 135.566C204.623 135.363 204.224 135.262 203.783 135.262C203.354 135.262 202.96 135.363 202.603 135.566C202.257 135.757 201.971 136.031 201.744 136.389C201.53 136.734 201.399 137.146 201.351 137.623ZM218.869 143.059H216.473V137.801C216.473 137.05 216.342 136.502 216.08 136.156C215.817 135.81 215.454 135.638 214.989 135.638C214.667 135.638 214.339 135.721 214.005 135.888C213.683 136.055 213.391 136.287 213.129 136.585C212.867 136.871 212.676 137.205 212.557 137.587V143.059H210.161V133.688H212.324V135.423C212.563 135.018 212.867 134.678 213.236 134.404C213.606 134.118 214.029 133.903 214.506 133.76C214.995 133.605 215.507 133.527 216.044 133.527C216.628 133.527 217.105 133.635 217.474 133.849C217.856 134.052 218.142 134.332 218.333 134.69C218.535 135.036 218.673 135.429 218.744 135.87C218.827 136.311 218.869 136.758 218.869 137.211V143.059Z" fill="#24352D"/>
<path d="M291.113 139.786C291.113 140.502 290.928 141.104 290.559 141.592C290.19 142.069 289.69 142.433 289.057 142.683C288.438 142.934 287.758 143.059 287.018 143.059H280.885V130.362H287.68C288.277 130.362 288.789 130.523 289.218 130.845C289.658 131.155 289.994 131.56 290.219 132.061C290.459 132.55 290.577 133.063 290.577 133.599C290.577 134.207 290.423 134.785 290.112 135.334C289.801 135.882 289.35 136.287 288.753 136.55C289.479 136.764 290.052 137.152 290.47 137.712C290.899 138.272 291.113 138.964 291.113 139.786ZM288.628 139.321C288.628 138.999 288.563 138.713 288.431 138.463C288.299 138.201 288.12 137.998 287.895 137.855C287.68 137.7 287.43 137.623 287.144 137.623H283.353V140.967H287.018C287.316 140.967 287.584 140.895 287.823 140.752C288.073 140.597 288.27 140.394 288.413 140.144C288.556 139.894 288.628 139.619 288.628 139.321ZM283.353 132.472V135.673H286.643C286.918 135.673 287.168 135.608 287.394 135.477C287.62 135.345 287.799 135.161 287.93 134.922C288.073 134.684 288.145 134.398 288.145 134.064C288.145 133.742 288.08 133.462 287.948 133.223C287.83 132.985 287.662 132.8 287.448 132.669C287.244 132.538 287.012 132.472 286.75 132.472H283.353ZM292.683 139.554V133.688H295.079V139.035C295.079 139.751 295.211 140.293 295.472 140.663C295.734 141.02 296.123 141.199 296.635 141.199C296.945 141.199 297.249 141.139 297.547 141.02C297.857 140.889 298.137 140.698 298.387 140.448C298.649 140.198 298.87 139.882 299.049 139.5V133.688H301.445V140.376C301.445 140.627 301.487 140.806 301.57 140.913C301.666 141.02 301.814 141.086 302.017 141.11V143.059C301.778 143.095 301.577 143.118 301.409 143.13C301.255 143.154 301.112 143.166 300.98 143.166C300.551 143.166 300.2 143.071 299.925 142.88C299.663 142.677 299.507 142.403 299.46 142.057L299.406 141.306C298.988 141.938 298.452 142.421 297.797 142.755C297.142 143.077 296.42 143.238 295.633 143.238C294.668 143.238 293.934 142.928 293.434 142.308C292.933 141.676 292.683 140.758 292.683 139.554ZM309.407 142.576C309.204 142.659 308.96 142.755 308.674 142.862C308.388 142.969 308.077 143.053 307.744 143.112C307.422 143.184 307.094 143.22 306.761 143.22C306.318 143.22 305.913 143.142 305.545 142.987C305.173 142.832 304.876 142.588 304.65 142.254C304.436 141.908 304.329 141.461 304.329 140.913V135.53H303.095V133.688H304.329V130.648H306.725V133.688H308.692V135.53H306.725V140.108C306.736 140.43 306.825 140.663 306.993 140.806C307.158 140.949 307.369 141.02 307.619 141.02C307.869 141.02 308.113 140.978 308.352 140.895C308.589 140.812 308.781 140.74 308.924 140.68L309.407 142.576ZM310.654 143.059V133.688H313.051V143.059H310.654ZM310.654 132.383V130.005H313.051V132.383H310.654ZM321.614 143.059L318.878 139.017L317.608 140.269V143.059H315.212V130.005H317.608V137.909L321.382 133.706H323.921L320.434 137.676L324.171 143.059H321.614ZM331.586 143.059L328.85 139.017L327.58 140.269V143.059H325.184V130.005H327.58V137.909L331.353 133.706H333.893L330.405 137.676L334.143 143.059H331.586ZM339.011 143.238C338.26 143.238 337.581 143.112 336.973 142.862C336.365 142.6 335.846 142.248 335.417 141.807C334.988 141.354 334.655 140.841 334.416 140.269C334.19 139.685 334.076 139.071 334.076 138.427C334.076 137.533 334.273 136.717 334.666 135.977C335.073 135.238 335.645 134.648 336.383 134.207C337.134 133.754 338.017 133.527 339.029 133.527C340.055 133.527 340.931 133.754 341.658 134.207C342.387 134.648 342.941 135.238 343.321 135.977C343.714 136.704 343.911 137.491 343.911 138.338C343.911 138.481 343.907 138.63 343.893 138.785C343.882 138.928 343.871 139.047 343.857 139.143H336.615C336.664 139.619 336.801 140.037 337.026 140.394C337.266 140.752 337.563 141.026 337.921 141.217C338.292 141.396 338.685 141.485 339.101 141.485C339.579 141.485 340.026 141.372 340.442 141.145C340.871 140.907 341.164 140.597 341.318 140.215L343.375 140.788C343.149 141.264 342.82 141.688 342.391 142.057C341.975 142.427 341.479 142.719 340.907 142.934C340.335 143.136 339.704 143.238 339.011 143.238ZM336.561 137.623H341.461C341.414 137.146 341.278 136.734 341.05 136.389C340.835 136.031 340.549 135.757 340.192 135.566C339.834 135.363 339.436 135.262 338.993 135.262C338.564 135.262 338.171 135.363 337.813 135.566C337.469 135.757 337.183 136.031 336.955 136.389C336.74 136.734 336.611 137.146 336.561 137.623ZM354.079 143.059H351.683V137.801C351.683 137.05 351.554 136.502 351.29 136.156C351.028 135.81 350.664 135.638 350.199 135.638C349.877 135.638 349.551 135.721 349.215 135.888C348.894 136.055 348.603 136.287 348.339 136.585C348.078 136.871 347.888 137.205 347.767 137.587V143.059H345.371V133.688H347.535V135.423C347.774 135.018 348.078 134.678 348.447 134.404C348.818 134.118 349.24 133.903 349.716 133.76C350.206 133.605 350.718 133.527 351.254 133.527C351.84 133.527 352.316 133.635 352.685 133.849C353.067 134.052 353.353 134.332 353.543 134.69C353.746 135.036 353.883 135.429 353.954 135.87C354.039 136.311 354.079 136.758 354.079 137.211V143.059Z" fill="#24352D"/>
<path d="M422.764 143.059V130.362H427.377C428.759 130.362 429.917 130.648 430.846 131.221C431.776 131.781 432.474 132.544 432.939 133.51C433.404 134.463 433.636 135.524 433.636 136.693C433.636 137.98 433.379 139.101 432.867 140.055C432.353 141.008 431.627 141.747 430.686 142.272C429.756 142.797 428.651 143.059 427.377 143.059H422.764ZM431.15 136.693C431.15 135.87 431.001 135.149 430.703 134.529C430.404 133.897 429.975 133.408 429.416 133.063C428.855 132.705 428.175 132.526 427.377 132.526H425.231V140.895H427.377C428.187 140.895 428.873 140.716 429.434 140.359C429.993 139.989 430.417 139.488 430.703 138.856C431.001 138.213 431.15 137.491 431.15 136.693ZM439.676 143.238C438.925 143.238 438.245 143.112 437.637 142.862C437.029 142.6 436.511 142.248 436.082 141.807C435.652 141.354 435.319 140.841 435.08 140.269C434.854 139.685 434.74 139.071 434.74 138.427C434.74 137.533 434.937 136.717 435.331 135.977C435.737 135.238 436.31 134.648 437.047 134.207C437.798 133.754 438.681 133.527 439.694 133.527C440.72 133.527 441.596 133.754 442.322 134.207C443.051 134.648 443.606 135.238 443.986 135.977C444.379 136.704 444.576 137.491 444.576 138.338C444.576 138.481 444.571 138.63 444.558 138.785C444.547 138.928 444.535 139.047 444.522 139.143H437.28C437.329 139.619 437.465 140.037 437.691 140.394C437.93 140.752 438.227 141.026 438.585 141.217C438.956 141.396 439.35 141.485 439.765 141.485C440.244 141.485 440.691 141.372 441.107 141.145C441.536 140.907 441.829 140.597 441.983 140.215L444.039 140.788C443.813 141.264 443.485 141.688 443.056 142.057C442.64 142.427 442.144 142.719 441.571 142.934C440.999 143.136 440.369 143.238 439.676 143.238ZM437.226 137.623H442.126C442.079 137.146 441.942 136.734 441.714 136.389C441.5 136.031 441.214 135.757 440.856 135.566C440.499 135.363 440.101 135.262 439.658 135.262C439.229 135.262 438.835 135.363 438.478 135.566C438.134 135.757 437.847 136.031 437.619 136.389C437.405 136.734 437.275 137.146 437.226 137.623ZM454.744 143.059H452.348V137.801C452.348 137.05 452.218 136.502 451.954 136.156C451.693 135.81 451.328 135.638 450.864 135.638C450.542 135.638 450.215 135.721 449.88 135.888C449.558 136.055 449.268 136.287 449.004 136.585C448.742 136.871 448.552 137.205 448.432 137.587V143.059H446.035V133.688H448.199V135.423C448.438 135.018 448.742 134.678 449.111 134.404C449.482 134.118 449.905 133.903 450.381 133.76C450.87 133.605 451.382 133.527 451.919 133.527C452.504 133.527 452.98 133.635 453.349 133.849C453.731 134.052 454.018 134.332 454.208 134.69C454.411 135.036 454.547 135.429 454.619 135.87C454.704 136.311 454.744 136.758 454.744 137.211V143.059ZM461.356 143.059V130.362H465.97C467.353 130.362 468.509 130.648 469.439 131.221C470.369 131.781 471.066 132.544 471.531 133.51C471.996 134.463 472.228 135.524 472.228 136.693C472.228 137.98 471.974 139.101 471.46 140.055C470.948 141.008 470.221 141.747 469.278 142.272C468.348 142.797 467.246 143.059 465.97 143.059H461.356ZM469.743 136.693C469.743 135.87 469.595 135.149 469.296 134.529C468.998 133.897 468.569 133.408 468.008 133.063C467.449 132.705 466.77 132.526 465.97 132.526H463.824V140.895H465.97C466.781 140.895 467.467 140.716 468.026 140.359C468.587 139.989 469.01 139.488 469.296 138.856C469.595 138.213 469.743 137.491 469.743 136.693ZM473.158 140.287C473.158 139.679 473.326 139.149 473.659 138.695C474.006 138.231 474.482 137.873 475.09 137.623C475.698 137.372 476.395 137.247 477.182 137.247C477.575 137.247 477.975 137.277 478.38 137.336C478.787 137.396 479.138 137.491 479.435 137.623V137.122C479.435 136.526 479.256 136.067 478.899 135.745C478.554 135.423 478.036 135.262 477.343 135.262C476.831 135.262 476.341 135.351 475.876 135.53C475.412 135.709 474.924 135.971 474.41 136.317L473.641 134.743C474.263 134.338 474.893 134.034 475.537 133.831C476.194 133.629 476.878 133.527 477.593 133.527C478.93 133.527 479.967 133.861 480.705 134.529C481.456 135.197 481.831 136.15 481.831 137.39V140.376C481.831 140.627 481.874 140.806 481.957 140.913C482.053 141.02 482.202 141.086 482.404 141.11V143.059C482.189 143.095 481.992 143.124 481.813 143.148C481.648 143.172 481.505 143.184 481.384 143.184C480.908 143.184 480.544 143.077 480.293 142.862C480.056 142.647 479.907 142.385 479.846 142.075L479.793 141.592C479.388 142.117 478.881 142.522 478.273 142.808C477.665 143.095 477.046 143.238 476.413 143.238C475.794 143.238 475.233 143.112 474.732 142.862C474.245 142.6 473.856 142.248 473.57 141.807C473.297 141.354 473.158 140.847 473.158 140.287ZM478.988 140.77C479.12 140.627 479.227 140.484 479.31 140.341C479.395 140.198 479.435 140.066 479.435 139.947V138.999C479.149 138.88 478.84 138.791 478.505 138.731C478.172 138.66 477.857 138.624 477.557 138.624C476.938 138.624 476.426 138.761 476.02 139.035C475.626 139.297 475.429 139.649 475.429 140.09C475.429 140.329 475.496 140.555 475.626 140.77C475.758 140.984 475.948 141.157 476.198 141.288C476.449 141.42 476.748 141.485 477.093 141.485C477.45 141.485 477.803 141.42 478.148 141.288C478.494 141.145 478.773 140.973 478.988 140.77ZM492.78 143.059H490.384V137.801C490.384 137.05 490.252 136.502 489.99 136.156C489.729 135.81 489.364 135.638 488.899 135.638C488.577 135.638 488.249 135.721 487.916 135.888C487.594 136.055 487.301 136.287 487.04 136.585C486.778 136.871 486.586 137.205 486.467 137.587V143.059H484.071V133.688H486.235V135.423C486.474 135.018 486.778 134.678 487.147 134.404C487.516 134.118 487.94 133.903 488.416 133.76C488.906 133.605 489.418 133.527 489.954 133.527C490.538 133.527 491.016 133.635 491.385 133.849C491.767 134.052 492.053 134.332 492.243 134.69C492.447 135.036 492.583 135.429 492.655 135.87C492.737 136.311 492.78 136.758 492.78 137.211V143.059ZM498.314 143.238C497.516 143.238 496.754 143.106 496.025 142.844C495.299 142.582 494.673 142.194 494.148 141.682L495.006 140.126C495.567 140.579 496.115 140.913 496.651 141.127C497.201 141.342 497.724 141.449 498.225 141.449C498.69 141.449 499.061 141.366 499.334 141.199C499.62 141.032 499.763 140.782 499.763 140.448C499.763 140.221 499.687 140.048 499.53 139.929C499.376 139.798 499.15 139.685 498.851 139.59C498.565 139.494 498.214 139.387 497.796 139.268C497.105 139.041 496.526 138.821 496.061 138.606C495.596 138.391 495.245 138.123 495.006 137.801C494.78 137.468 494.666 137.044 494.666 136.532C494.666 135.912 494.823 135.381 495.131 134.94C495.453 134.487 495.896 134.135 496.455 133.885C497.027 133.635 497.695 133.51 498.457 133.51C499.126 133.51 499.758 133.617 500.353 133.831C500.95 134.034 501.493 134.368 501.98 134.833L501.015 136.353C500.539 135.983 500.085 135.715 499.656 135.548C499.226 135.369 498.793 135.28 498.35 135.28C498.1 135.28 497.863 135.31 497.635 135.369C497.42 135.429 497.241 135.53 497.098 135.673C496.969 135.805 496.902 135.995 496.902 136.246C496.902 136.472 496.962 136.651 497.081 136.782C497.212 136.901 497.402 137.008 497.653 137.104C497.917 137.199 498.232 137.307 498.601 137.426C499.352 137.64 499.984 137.861 500.496 138.087C501.021 138.314 501.415 138.594 501.676 138.928C501.94 139.25 502.07 139.697 502.07 140.269C502.07 141.199 501.73 141.926 501.05 142.451C500.371 142.975 499.459 143.238 498.314 143.238ZM510.101 143.059L507.365 139.017L506.095 140.269V143.059H503.699V130.005H506.095V137.909L509.869 133.706H512.408L508.921 137.676L512.658 143.059H510.101ZM517.529 143.238C516.778 143.238 516.098 143.112 515.49 142.862C514.882 142.6 514.364 142.248 513.935 141.807C513.505 141.354 513.17 140.841 512.933 140.269C512.705 139.685 512.593 139.071 512.593 138.427C512.593 137.533 512.79 136.717 513.184 135.977C513.588 135.238 514.16 134.648 514.9 134.207C515.651 133.754 516.532 133.527 517.547 133.527C518.571 133.527 519.447 133.754 520.176 134.207C520.902 134.648 521.456 135.238 521.839 135.977C522.232 136.704 522.429 137.491 522.429 138.338C522.429 138.481 522.422 138.63 522.411 138.785C522.397 138.928 522.386 139.047 522.375 139.143H515.133C515.18 139.619 515.316 140.037 515.544 140.394C515.781 140.752 516.08 141.026 516.438 141.217C516.807 141.396 517.2 141.485 517.618 141.485C518.094 141.485 518.542 141.372 518.96 141.145C519.389 140.907 519.679 140.597 519.836 140.215L521.892 140.788C521.664 141.264 521.338 141.688 520.909 142.057C520.491 142.427 519.997 142.719 519.424 142.934C518.852 143.136 518.22 143.238 517.529 143.238ZM515.079 137.623H519.979C519.93 137.146 519.793 136.734 519.568 136.389C519.353 136.031 519.067 135.757 518.709 135.566C518.352 135.363 517.951 135.262 517.511 135.262C517.082 135.262 516.689 135.363 516.331 135.566C515.984 135.757 515.698 136.031 515.473 136.389C515.258 136.734 515.126 137.146 515.079 137.623ZM451.635 155.022V163.176H449.167V150.48H451.134L457.697 158.849V150.498H460.165V163.176H458.108L451.635 155.022ZM461.825 160.405C461.825 159.797 461.993 159.266 462.326 158.813C462.673 158.348 463.149 157.991 463.757 157.74C464.365 157.49 465.062 157.365 465.849 157.365C466.242 157.365 466.643 157.394 467.047 157.454C467.452 157.514 467.805 157.609 468.102 157.74V157.239C468.102 156.643 467.923 156.184 467.566 155.863C467.219 155.541 466.701 155.38 466.01 155.38C465.498 155.38 465.009 155.469 464.544 155.648C464.079 155.827 463.589 156.089 463.077 156.435L462.308 154.861C462.927 154.456 463.56 154.152 464.204 153.949C464.859 153.746 465.545 153.645 466.26 153.645C467.595 153.645 468.632 153.979 469.372 154.647C470.123 155.314 470.498 156.268 470.498 157.508V160.494C470.498 160.744 470.541 160.923 470.624 161.031C470.72 161.138 470.867 161.203 471.071 161.227V163.176C470.856 163.212 470.659 163.242 470.48 163.266C470.313 163.29 470.17 163.302 470.051 163.302C469.575 163.302 469.211 163.194 468.961 162.98C468.721 162.765 468.574 162.503 468.513 162.193L468.46 161.71C468.055 162.235 467.548 162.64 466.94 162.926C466.332 163.212 465.713 163.355 465.08 163.355C464.461 163.355 463.9 163.23 463.399 162.98C462.91 162.718 462.523 162.366 462.237 161.925C461.962 161.472 461.825 160.965 461.825 160.405ZM467.655 160.887C467.787 160.744 467.894 160.601 467.977 160.458C468.06 160.315 468.102 160.184 468.102 160.065V159.117C467.816 158.998 467.505 158.909 467.172 158.849C466.839 158.777 466.522 158.742 466.225 158.742C465.605 158.742 465.091 158.879 464.687 159.153C464.293 159.415 464.096 159.767 464.096 160.208C464.096 160.446 464.161 160.673 464.293 160.887C464.425 161.102 464.615 161.275 464.865 161.406C465.116 161.537 465.413 161.603 465.76 161.603C466.117 161.603 466.468 161.537 466.815 161.406C467.161 161.263 467.441 161.09 467.655 160.887ZM478.266 162.694C478.063 162.777 477.819 162.872 477.533 162.98C477.247 163.087 476.936 163.17 476.603 163.23C476.281 163.302 475.952 163.337 475.619 163.337C475.177 163.337 474.772 163.26 474.403 163.105C474.032 162.95 473.735 162.705 473.509 162.372C473.295 162.026 473.187 161.579 473.187 161.031V155.648H471.954V153.806H473.187V150.766H475.584V153.806H477.551V155.648H475.584V160.226C475.595 160.548 475.684 160.78 475.852 160.923C476.017 161.066 476.227 161.138 476.478 161.138C476.728 161.138 476.972 161.096 477.211 161.013C477.448 160.929 477.64 160.858 477.783 160.798L478.266 162.694ZM479.424 159.671V153.806H481.82V159.153C481.82 159.868 481.952 160.411 482.214 160.78C482.475 161.138 482.864 161.317 483.376 161.317C483.687 161.317 483.991 161.257 484.288 161.138C484.599 161.007 484.878 160.816 485.128 160.566C485.39 160.315 485.611 159.999 485.79 159.618V153.806H488.186V160.494C488.186 160.744 488.229 160.923 488.311 161.031C488.408 161.138 488.555 161.203 488.758 161.227V163.176C488.519 163.212 488.318 163.236 488.15 163.248C487.996 163.272 487.853 163.284 487.721 163.284C487.292 163.284 486.941 163.188 486.666 162.998C486.405 162.795 486.248 162.521 486.201 162.175L486.148 161.424C485.73 162.056 485.193 162.539 484.538 162.872C483.883 163.194 483.161 163.355 482.374 163.355C481.409 163.355 480.676 163.045 480.175 162.425C479.674 161.793 479.424 160.876 479.424 159.671ZM496.146 155.88C495.42 155.88 494.769 156.023 494.197 156.31C493.625 156.584 493.213 156.983 492.963 157.508V163.176H490.567V153.806H492.766V155.809C493.102 155.165 493.524 154.658 494.036 154.289C494.55 153.919 495.091 153.717 495.663 153.681C495.795 153.681 495.896 153.681 495.967 153.681C496.039 153.681 496.099 153.687 496.146 153.699V155.88Z" fill="#24352D"/>
<mask id="mask2_1396_62" style="mask-type:luminance" maskUnits="userSpaceOnUse" x="283" y="45" width="73" height="78">
<path d="M355.454 45.48H283.184V122.175H355.454V45.48Z" fill="white"/>
</mask>
<g mask="url(#mask2_1396_62)">
<path d="M295.227 106.197C295.227 107.892 295.861 109.518 296.99 110.716C298.121 111.915 299.652 112.588 301.248 112.588C302.847 112.588 304.378 111.915 305.509 110.716C306.638 109.518 307.273 107.892 307.273 106.197C307.273 104.502 306.638 102.876 305.509 101.677C304.378 100.479 302.847 99.8054 301.248 99.8054C299.652 99.8054 298.121 100.479 296.99 101.677C295.861 102.876 295.227 104.502 295.227 106.197Z" stroke="#24352D" stroke-linecap="round" stroke-linejoin="round"/>
<path d="M328.352 106.197C328.352 107.892 328.986 109.518 330.115 110.716C331.244 111.915 332.777 112.588 334.373 112.588C335.972 112.588 337.503 111.915 338.632 110.716C339.763 109.518 340.395 107.892 340.395 106.197C340.395 104.502 339.763 102.876 338.632 101.677C337.503 100.479 335.972 99.8054 334.373 99.8054C332.777 99.8054 331.244 100.479 330.115 101.677C328.986 102.876 328.352 104.502 328.352 106.197Z" stroke="#24352D" stroke-linecap="round" stroke-linejoin="round"/>
<path d="M334.373 99.8056H301.248V55.0667H295.227" stroke="#24352D" stroke-linecap="round" stroke-linejoin="round"/>
<path d="M301.248 61.458L343.406 64.6536L340.395 87.0231H301.248" stroke="#24352D" stroke-linecap="round" stroke-linejoin="round"/>
</g>
<path d="M323.154 14.9915V16.0734H319.524V14.9915H320.793V12.2824C320.74 12.3539 320.657 12.4284 320.543 12.5059C320.429 12.5774 320.301 12.646 320.158 12.7115C320.015 12.7771 319.872 12.8308 319.729 12.8725C319.586 12.9142 319.459 12.9351 319.345 12.9351V11.8174C319.452 11.8174 319.579 11.7847 319.729 11.7191C319.883 11.6475 320.035 11.5641 320.185 11.4687C320.339 11.3734 320.471 11.281 320.579 11.1915C320.693 11.0962 320.764 11.0217 320.793 10.968H322.018V14.9915H323.154ZM316.783 27.3392C316.403 27.3392 316.059 27.2767 315.755 27.1515C315.451 27.0205 315.191 26.8417 314.977 26.615C314.769 26.3886 314.608 26.1293 314.494 25.8371C314.382 25.5452 314.324 25.2381 314.324 24.9162C314.324 24.5885 314.382 24.2785 314.494 23.9863C314.608 23.6944 314.769 23.4351 314.977 23.2084C315.191 22.982 315.451 22.8061 315.755 22.6809C316.059 22.5499 316.403 22.4842 316.783 22.4842C317.165 22.4842 317.505 22.5499 317.802 22.6809C318.106 22.8061 318.366 22.982 318.58 23.2084C318.795 23.4351 318.956 23.6944 319.063 23.9863C319.177 24.2785 319.233 24.5885 319.233 24.9162C319.233 25.2381 319.177 25.5452 319.063 25.8371C318.956 26.1293 318.795 26.3886 318.58 26.615C318.372 26.8417 318.115 27.0205 317.811 27.1515C317.507 27.2767 317.165 27.3392 316.783 27.3392ZM316.783 26.32C317.011 26.32 317.217 26.2605 317.4 26.1411C317.585 26.016 317.731 25.8492 317.838 25.6404C317.952 25.4258 318.008 25.1815 318.008 24.9072C318.008 24.639 317.952 24.3976 317.838 24.183C317.731 23.9684 317.585 23.8017 317.4 23.6823C317.217 23.5632 317.011 23.5035 316.783 23.5035C316.551 23.5035 316.343 23.5661 316.157 23.6912C315.974 23.8106 315.826 23.9774 315.719 24.1919C315.612 24.4007 315.558 24.6421 315.558 24.9162C315.558 25.1905 315.612 25.4348 315.719 25.6494C315.826 25.8581 315.974 26.022 316.157 26.1411C316.343 26.2605 316.551 26.32 316.783 26.32ZM314.449 27.2856L315.37 26.1501L315.871 26.5167L315.218 27.2856H314.449ZM315.96 26.4094L315.522 26.0875L317.624 23.3336L318.115 23.5929L315.96 26.4094ZM318.267 23.5214L317.704 23.2352L318.285 22.5289H319.072L318.267 23.5214ZM322.832 23.6018C322.467 23.6018 322.143 23.6734 321.857 23.8164C321.571 23.9537 321.365 24.1533 321.24 24.4155V27.2498H320.042V22.5647H321.142V23.5661C321.31 23.2442 321.52 22.9909 321.777 22.8061C322.034 22.6214 322.304 22.5199 322.59 22.5021C322.655 22.5021 322.707 22.5021 322.742 22.5021C322.778 22.5021 322.807 22.5052 322.832 22.511V23.6018ZM325.612 27.3392C325.237 27.3392 324.897 27.2767 324.593 27.1515C324.289 27.0205 324.03 26.8446 323.815 26.624C323.601 26.3975 323.433 26.1411 323.315 25.855C323.201 25.5631 323.145 25.256 323.145 24.9341C323.145 24.487 323.243 24.0788 323.44 23.7091C323.641 23.3396 323.927 23.0446 324.298 22.8239C324.674 22.5975 325.114 22.4842 325.621 22.4842C326.133 22.4842 326.571 22.5975 326.936 22.8239C327.298 23.0446 327.575 23.3396 327.767 23.7091C327.964 24.0728 328.062 24.4662 328.062 24.8894C328.062 24.9609 328.058 25.0356 328.053 25.1129C328.047 25.1844 328.04 25.2441 328.036 25.2917H324.414C324.437 25.5302 324.506 25.7388 324.62 25.9176C324.738 26.0964 324.888 26.2337 325.067 26.3289C325.25 26.4183 325.447 26.463 325.657 26.463C325.894 26.463 326.118 26.4065 326.328 26.2931C326.542 26.174 326.688 26.0191 326.766 25.8282L327.794 26.1143C327.68 26.3528 327.517 26.5645 327.302 26.7491C327.092 26.934 326.846 27.0799 326.56 27.1872C326.274 27.2887 325.957 27.3392 325.612 27.3392ZM324.388 24.5317H326.837C326.813 24.2934 326.744 24.0878 326.632 23.9148C326.524 23.7359 326.381 23.5989 326.203 23.5035C326.024 23.4022 325.823 23.3515 325.603 23.3515C325.389 23.3515 325.192 23.4022 325.013 23.5035C324.839 23.5989 324.696 23.7359 324.584 23.9148C324.477 24.0878 324.41 24.2934 324.388 24.5317Z" fill="#24352D"/>
<path d="M190.413 14.9915V16.0734H186.782V14.9915H188.052V12.2824C187.998 12.3539 187.915 12.4284 187.802 12.5059C187.689 12.5774 187.56 12.646 187.417 12.7115C187.274 12.7771 187.131 12.8308 186.988 12.8725C186.845 12.9142 186.717 12.9351 186.604 12.9351V11.8174C186.711 11.8174 186.839 11.7847 186.988 11.7191C187.143 11.6475 187.295 11.5641 187.444 11.4687C187.599 11.3734 187.73 11.281 187.837 11.1915C187.951 11.0962 188.022 11.0217 188.052 10.968H189.277V14.9915H190.413ZM184.043 27.3392C183.661 27.3392 183.319 27.2767 183.015 27.1515C182.711 27.0205 182.451 26.8417 182.237 26.615C182.028 26.3886 181.867 26.1293 181.754 25.8371C181.641 25.5452 181.584 25.2381 181.584 24.9162C181.584 24.5885 181.641 24.2785 181.754 23.9863C181.867 23.6944 182.028 23.4351 182.237 23.2084C182.451 22.982 182.711 22.8061 183.015 22.6809C183.319 22.5499 183.661 22.4842 184.043 22.4842C184.424 22.4842 184.764 22.5499 185.062 22.6809C185.366 22.8061 185.625 22.982 185.84 23.2084C186.055 23.4351 186.216 23.6944 186.323 23.9863C186.436 24.2785 186.493 24.5885 186.493 24.9162C186.493 25.2381 186.436 25.5452 186.323 25.8371C186.216 26.1293 186.055 26.3886 185.84 26.615C185.631 26.8417 185.375 27.0205 185.071 27.1515C184.767 27.2767 184.424 27.3392 184.043 27.3392ZM184.043 26.32C184.269 26.32 184.475 26.2605 184.66 26.1411C184.845 26.016 184.991 25.8492 185.098 25.6404C185.211 25.4258 185.268 25.1815 185.268 24.9072C185.268 24.639 185.211 24.3976 185.098 24.183C184.991 23.9684 184.845 23.8017 184.66 23.6823C184.475 23.5632 184.269 23.5035 184.043 23.5035C183.81 23.5035 183.602 23.5661 183.417 23.6912C183.232 23.8106 183.086 23.9774 182.979 24.1919C182.872 24.4007 182.818 24.6421 182.818 24.9162C182.818 25.1905 182.872 25.4348 182.979 25.6494C183.086 25.8581 183.232 26.022 183.417 26.1411C183.602 26.2605 183.81 26.32 184.043 26.32ZM181.709 27.2856L182.63 26.1501L183.131 26.5167L182.478 27.2856H181.709ZM183.22 26.4094L182.782 26.0875L184.883 23.3336L185.375 23.5929L183.22 26.4094ZM185.527 23.5214L184.964 23.2352L185.545 22.5289H186.332L185.527 23.5214ZM190.091 23.6018C189.727 23.6018 189.403 23.6734 189.116 23.8164C188.83 23.9537 188.625 24.1533 188.5 24.4155V27.2498H187.301V22.5647H188.401V23.5661C188.568 23.2442 188.78 22.9909 189.036 22.8061C189.292 22.6214 189.564 22.5199 189.85 22.5021C189.915 22.5021 189.966 22.5021 190.002 22.5021C190.037 22.5021 190.067 22.5052 190.091 22.511V23.6018ZM192.871 27.3392C192.495 27.3392 192.155 27.2767 191.851 27.1515C191.547 27.0205 191.288 26.8446 191.073 26.624C190.859 26.3975 190.692 26.1411 190.573 25.855C190.459 25.5631 190.403 25.256 190.403 24.9341C190.403 24.487 190.501 24.0788 190.698 23.7091C190.901 23.3396 191.187 23.0446 191.556 22.8239C191.932 22.5975 192.373 22.4842 192.88 22.4842C193.392 22.4842 193.83 22.5975 194.194 22.8239C194.558 23.0446 194.835 23.3396 195.025 23.7091C195.222 24.0728 195.321 24.4662 195.321 24.8894C195.321 24.9609 195.318 25.0356 195.312 25.1129C195.306 25.1844 195.3 25.2441 195.294 25.2917H191.673C191.696 25.5302 191.765 25.7388 191.878 25.9176C191.997 26.0964 192.146 26.2337 192.325 26.3289C192.51 26.4183 192.707 26.463 192.915 26.463C193.154 26.463 193.377 26.4065 193.586 26.2931C193.801 26.174 193.947 26.0191 194.024 25.8282L195.052 26.1143C194.939 26.3528 194.775 26.5645 194.561 26.7491C194.352 26.934 194.105 27.0799 193.818 27.1872C193.532 27.2887 193.216 27.3392 192.871 27.3392ZM191.646 24.5317H194.096C194.072 24.2934 194.003 24.0878 193.89 23.9148C193.783 23.7359 193.64 23.5989 193.461 23.5035C193.282 23.4022 193.082 23.3515 192.862 23.3515C192.647 23.3515 192.45 23.4022 192.272 23.5035C192.099 23.5989 191.956 23.7359 191.842 23.9148C191.735 24.0878 191.67 24.2934 191.646 24.5317Z" fill="#24352D"/>
<path d="M50.2973 14.9915V16.0734H46.6672V14.9915H47.9368V12.2824C47.8832 12.3539 47.7998 12.4284 47.6864 12.5059C47.5733 12.5774 47.445 12.646 47.302 12.7115C47.1589 12.7771 47.0159 12.8308 46.8728 12.8725C46.7297 12.9142 46.6017 12.9351 46.4883 12.9351V11.8174C46.5956 11.8174 46.7239 11.7847 46.8728 11.7191C47.0279 11.6475 47.1799 11.5641 47.3288 11.4687C47.4839 11.3734 47.6149 11.281 47.7222 11.1915C47.8355 11.0962 47.9071 11.0217 47.9368 10.968H49.1617V14.9915H50.2973ZM43.9276 27.3392C43.546 27.3392 43.2033 27.2767 42.8993 27.1515C42.5953 27.0205 42.336 26.8417 42.1215 26.615C41.9129 26.3886 41.752 26.1293 41.6386 25.8371C41.5253 25.5452 41.4688 25.2381 41.4688 24.9162C41.4688 24.5885 41.5253 24.2785 41.6386 23.9863C41.752 23.6944 41.9129 23.4351 42.1215 23.2084C42.336 22.982 42.5953 22.8061 42.8993 22.6809C43.2033 22.5499 43.546 22.4842 43.9276 22.4842C44.3091 22.4842 44.6489 22.5499 44.9469 22.6809C45.2509 22.8061 45.5102 22.982 45.7248 23.2084C45.9393 23.4351 46.1003 23.6944 46.2076 23.9863C46.3209 24.2785 46.3775 24.5885 46.3775 24.9162C46.3775 25.2381 46.3209 25.5452 46.2076 25.8371C46.1003 26.1293 45.9393 26.3886 45.7248 26.615C45.5162 26.8417 45.2598 27.0205 44.9558 27.1515C44.6518 27.2767 44.3091 27.3392 43.9276 27.3392ZM43.9276 26.32C44.154 26.32 44.3597 26.2605 44.5445 26.1411C44.7294 26.016 44.8753 25.8492 44.9826 25.6404C45.096 25.4258 45.1525 25.1815 45.1525 24.9072C45.1525 24.639 45.096 24.3976 44.9826 24.183C44.8753 23.9684 44.7294 23.8017 44.5445 23.6823C44.3597 23.5632 44.154 23.5035 43.9276 23.5035C43.6951 23.5035 43.4866 23.5661 43.3017 23.6912C43.1168 23.8106 42.9709 23.9774 42.8636 24.1919C42.7563 24.4007 42.7026 24.6421 42.7026 24.9162C42.7026 25.1905 42.7563 25.4348 42.8636 25.6494C42.9709 25.8581 43.1168 26.022 43.3017 26.1411C43.4866 26.2605 43.6951 26.32 43.9276 26.32ZM41.5939 27.2856L42.5149 26.1501L43.0156 26.5167L42.3629 27.2856H41.5939ZM43.105 26.4094L42.6669 26.0875L44.768 23.3336L45.2598 23.5929L43.105 26.4094ZM45.4118 23.5214L44.8485 23.2352L45.4297 22.5289H46.2165L45.4118 23.5214ZM49.9758 23.6018C49.6122 23.6018 49.2874 23.6734 49.0012 23.8164C48.7151 23.9537 48.5095 24.1533 48.3843 24.4155V27.2498H47.1862V22.5647H48.286V23.5661C48.4527 23.2442 48.6644 22.9909 48.9208 22.8061C49.1769 22.6214 49.4483 22.5199 49.7344 22.5021C49.7999 22.5021 49.8507 22.5021 49.8864 22.5021C49.9222 22.5021 49.9519 22.5052 49.9758 22.511V23.6018ZM52.7554 27.3392C52.3799 27.3392 52.0401 27.2767 51.7361 27.1515C51.4321 27.0205 51.1728 26.8446 50.9582 26.624C50.7437 26.3975 50.5767 26.1411 50.4575 25.855C50.3442 25.5631 50.2877 25.256 50.2877 24.9341C50.2877 24.487 50.386 24.0788 50.5827 23.7091C50.7855 23.3396 51.0716 23.0446 51.4411 22.8239C51.8166 22.5975 52.2576 22.4842 52.7644 22.4842C53.2769 22.4842 53.715 22.5975 54.0787 22.8239C54.4424 23.0446 54.7196 23.3396 54.9102 23.7091C55.1069 24.0728 55.2053 24.4662 55.2053 24.8894C55.2053 24.9609 55.2024 25.0356 55.1964 25.1129C55.1903 25.1844 55.1845 25.2441 55.1785 25.2917H51.5573C51.5812 25.5302 51.6496 25.7388 51.763 25.9176C51.8821 26.0964 52.0312 26.2337 52.21 26.3289C52.3949 26.4183 52.5916 26.463 52.8001 26.463C53.0386 26.463 53.2622 26.4065 53.4707 26.2931C53.6853 26.174 53.8313 26.0191 53.9088 25.8282L54.9371 26.1143C54.8237 26.3528 54.6599 26.5645 54.4453 26.7491C54.2368 26.934 53.9893 27.0799 53.7032 27.1872C53.4171 27.2887 53.1012 27.3392 52.7554 27.3392ZM51.5305 24.5317H53.9804C53.9564 24.2934 53.888 24.0878 53.7747 23.9148C53.6674 23.7359 53.5244 23.5989 53.3455 23.5035C53.1667 23.4022 52.9671 23.3515 52.7465 23.3515C52.5319 23.3515 52.3352 23.4022 52.1564 23.5035C51.9836 23.5989 51.8405 23.7359 51.7272 23.9148C51.6199 24.0878 51.5544 24.2934 51.5305 24.5317Z" fill="#24352D"/>
<path d="M321.161 1.11768C330.48 1.11785 338.111 8.99483 338.111 18.8058C338.111 28.6163 330.48 36.4914 321.161 36.4917C311.842 36.4917 304.211 28.6165 304.211 18.8058C304.211 8.99472 311.842 1.11768 321.161 1.11768Z" stroke="#24352D"/>
<mask id="mask3_1396_62" style="mask-type:luminance" maskUnits="userSpaceOnUse" x="150" y="45" width="73" height="78">
<path d="M222.71 45.48H150.439V122.175H222.71V45.48Z" fill="white"/>
</mask>
<g mask="url(#mask3_1396_62)">
<path d="M159.473 112.588H213.675" stroke="#24352D" stroke-linecap="round" stroke-linejoin="round"/>
<path d="M159.473 77.4363H213.675" stroke="#24352D" stroke-linecap="round" stroke-linejoin="round"/>
<path d="M165.496 67.6033L186.575 58.0166L207.654 67.6033" stroke="#24352D" stroke-linecap="round" stroke-linejoin="round"/>
<path d="M162.484 77.4363V112.588" stroke="#24352D" stroke-linecap="round" stroke-linejoin="round"/>
<path d="M210.664 77.4363V112.588" stroke="#24352D" stroke-linecap="round" stroke-linejoin="round"/>
<path d="M174.529 90.2188V99.8055" stroke="#24352D" stroke-linecap="round" stroke-linejoin="round"/>
<path d="M186.574 90.2188V99.8055" stroke="#24352D" stroke-linecap="round" stroke-linejoin="round"/>
<path d="M198.619 90.2188V99.8055" stroke="#24352D" stroke-linecap="round" stroke-linejoin="round"/>
</g>
<path d="M188.419 1.11768C197.738 1.11785 205.369 8.99483 205.369 18.8058C205.369 28.6163 197.738 36.4914 188.419 36.4917C179.1 36.4917 171.469 28.6165 171.469 18.8058C171.469 8.99472 179.099 1.11768 188.419 1.11768Z" stroke="#24352D"/>
<path d="M48.3038 1.85522C57.6435 1.8554 65.254 9.58826 65.254 19.1744C65.2538 28.7602 57.6435 36.4934 48.3038 36.4934C38.9638 36.4934 31.3537 28.7604 31.3535 19.1744C31.3535 9.58817 38.9636 1.85522 48.3038 1.85522Z" stroke="#24352D"/>
<mask id="mask4_1396_62" style="mask-type:luminance" maskUnits="userSpaceOnUse" x="12" y="45" width="73" height="78">
<path d="M84.8075 45.48H12.5371V122.175H84.8075V45.48Z" fill="white"/>
</mask>
<g mask="url(#mask4_1396_62)">
<path d="M48.6717 106.197H30.604C28.2082 106.197 25.9104 105.187 24.2162 103.389C22.5221 101.591 21.5703 99.1524 21.5703 96.6098V71.045C21.5703 68.5023 22.5221 66.0638 24.2162 64.266C25.9104 62.4679 28.2082 61.458 30.604 61.458H66.7393C69.1351 61.458 71.433 62.4679 73.1272 64.266C74.8213 66.0638 75.7731 68.5023 75.7731 71.045V85.4253" stroke="#24352D" stroke-linecap="round" stroke-linejoin="round"/>
<path d="M21.5703 77.436H75.7731" stroke="#24352D" stroke-linecap="round" stroke-linejoin="round"/>
<path d="M60.7168 106.197H78.7845" stroke="#24352D" stroke-linecap="round" stroke-linejoin="round"/>
<path d="M69.75 96.6099L78.7837 106.197L69.75 115.784" stroke="#24352D" stroke-linecap="round" stroke-linejoin="round"/>
<path d="M54.5703 93.4143H60.5929" stroke="#24352D" stroke-linecap="round" stroke-linejoin="round"/>
</g>
<path d="M376.482 82.7097H393.421" stroke="#24352D" stroke-linecap="round"/>
<path d="M376.482 91.5591H393.421" stroke="#24352D" stroke-linecap="round"/>
<path d="M469.756 90.8815C469.734 90.8815 469.323 90.7863 468.542 90.4217C466.823 89.6179 466.435 87.1394 465.554 85.5476C464.747 84.0884 463.312 82.9335 461.68 81.8764C461.296 81.66 460.965 81.5038 460.629 81.365C460.292 81.2264 459.959 81.1097 459.434 80.8987" stroke="#24352D" stroke-linecap="round"/>
<path d="M472.338 46.5977C492.225 46.5977 508.46 63.75 508.462 85.0539C508.462 106.358 492.225 123.512 472.338 123.512C452.45 123.512 436.213 106.358 436.213 85.0539C436.215 63.7502 452.45 46.5981 472.338 46.5977Z" stroke="#24352D"/>
<path d="M466.282 112.273C466.282 111.312 466.765 107.394 467.482 104.631C468.119 102.185 469.107 99.3704 469.512 97.5024C469.722 96.5334 469.691 94.8131 469.516 93.0224C469.315 90.971 465.544 90.9661 463.716 90.1288C460.866 88.8216 457.917 85.227 456.362 83.0411C454.817 80.8684 453.778 77.5052 453.534 73.2485C453.498 72.6477 454.745 75.1083 456.187 76.2621C457.607 77.3977 459.484 77.1574 461.228 77.4484C462.73 77.6988 464.315 78.2511 465.761 79.0822C467.189 79.9008 467.961 81.6172 468.812 83.4799C469.702 85.426 469.57 88.1213 469.601 90.3512C469.612 91.1441 470.504 87.9585 471.211 86.1066C471.984 84.0745 473.699 82.7461 474.993 81.4505C476.285 80.1576 477.849 79.6806 479.24 79.2009C482.852 77.9536 489.75 78.0113 493.032 74.222C493.932 73.1819 494.232 71.6764 494.668 70.4716C495.305 68.7035 493.903 76.154 493.286 78.2069C492.488 80.8646 490.356 84.7131 489.082 86.7323C487.656 88.9901 485.483 90.0463 483.024 91.4751C478.978 93.8264 471.812 91.7261 470.346 91.332C470.006 91.2408 469.798 90.851 469.849 90.6905C470.33 89.1976 472.816 89.2461 474.443 88.3647C476.081 87.4786 477.733 86.4338 479.043 85.7579C479.779 85.4521 480.489 85.1432 481.073 84.7185C481.339 84.454 481.549 84.0904 482.322 83.1962" stroke="#24352D" stroke-linecap="round"/>
<path d="M470.062 86.355C470.062 85.9173 469.688 84.4621 467.742 81.5019C467.042 80.4388 467.028 78.2055 467.272 76.0722C467.339 75.4769 467.824 74.7724 468.671 73.5309C469.203 72.7534 470.071 71.7643 470.878 70.8863C472.382 69.2469 473.714 68.1881 474.55 67.5912C475.411 66.9786 476.26 66.7863 476.45 66.7642C477.125 66.686 475.965 70.3044 476.019 71.9619C476.057 73.1426 476.891 73.9073 477.32 74.5884C477.673 75.1506 477.653 75.9099 477.492 76.6766C477.398 77.1272 476.654 78.181 475.393 79.8981C474.02 81.7684 472.413 83.0973 471.416 83.9976C470.52 84.8073 470.384 85.3448 470.386 85.6057C470.386 85.8648 470.511 83.6335 470.504 80.0186C470.846 77.9704 471.526 76.6905 471.928 76.1131C472.029 75.9854 472.125 75.8947 472.373 75.7056" stroke="#24352D" stroke-linecap="round"/>
<path d="M468.63 104.8C468.61 104.418 468.688 103.417 469.05 102.806C469.705 101.695 471.292 100.456 472.821 99.5802C475.177 98.2321 477.262 97.5895 478.078 97.3447C479.102 97.038 480.061 96.9084 481.067 96.806C484.089 96.4991 485.848 95.62 486.628 95.0996C486.753 95.0162 486.838 94.9114 486.838 94.9114C486.709 94.9726 486.237 95.858 485.216 97.625C484.616 98.6586 483.731 99.9003 482.855 100.945C481.981 101.99 481.109 102.782 480.287 103.483C478.749 104.797 477.423 105.6 476.33 106.013C474.352 106.761 472.812 106.585 471.875 106.632C470.691 106.692 469.964 106.248 469.405 105.79C468.943 105.411 468.35 104.993 467.749 104.805C467.613 104.762 467.474 104.754 467.481 104.764C468.314 105.951 471.869 104.75 472.801 104.423C473.746 104.092 474.578 103.021 475.114 102.38C475.557 101.851 476.415 100.912 477.079 100.355C477.204 100.278 477.343 100.215 477.555 100.147C477.765 100.078 478.047 100.007 478.541 99.9314" stroke="#24352D" stroke-linecap="round"/>
</svg>
