<svg width="91" height="23" viewBox="0 0 91 23" fill="none" xmlns="http://www.w3.org/2000/svg">
<g clip-path="url(#clip0_798_225)">
<path d="M53.44 19.51C53.44 19.39 53.5 18.91 53.58 18.57C53.66 18.27 53.77 17.92 53.82 17.69C53.84 17.57 53.84 17.36 53.82 17.14C53.8 16.89 53.35 16.89 53.13 16.78C52.79 16.62 52.44 16.18 52.26 15.91C52.08 15.64 51.95 15.23 51.92 14.71C51.92 14.64 52.06 14.94 52.24 15.08C52.41 15.22 52.63 15.19 52.84 15.23C53.02 15.26 53.21 15.33 53.38 15.43C53.55 15.53 53.64 15.74 53.74 15.97C53.85 16.21 53.83 16.54 53.83 16.82C53.83 16.92 53.94 16.53 54.02 16.3C54.11 16.05 54.32 15.89 54.47 15.73C54.62 15.57 54.81 15.51 54.98 15.45C55.41 15.3 56.23 15.3 56.62 14.84C56.73 14.71 56.76 14.53 56.81 14.38C56.89 14.16 56.72 15.08 56.65 15.33C56.55 15.66 56.3 16.13 56.15 16.38C55.98 16.66 55.72 16.79 55.43 16.96C54.95 17.25 54.1 16.99 53.92 16.94C53.88 16.93 53.85 16.88 53.86 16.86C53.92 16.68 54.21 16.68 54.41 16.57C54.6 16.46 54.8 16.33 54.96 16.25C55.05 16.21 55.13 16.17 55.2 16.12C55.23 16.09 55.26 16.04 55.35 15.93" stroke="#24352D" stroke-width="0.2" stroke-miterlimit="10"/>
<path d="M53.85 16.88C53.85 16.88 53.8 16.87 53.71 16.82C53.51 16.72 53.46 16.42 53.35 16.22C53.25 16.04 53.08 15.9 52.89 15.77C52.84 15.74 52.81 15.72 52.77 15.71C52.73 15.69 52.69 15.68 52.63 15.65" stroke="#24352D" stroke-width="0.2" stroke-miterlimit="10"/>
<path d="M53.89 16.32C53.89 16.27 53.85 16.09 53.61 15.72C53.53 15.59 53.53 15.31 53.55 15.05C53.55 14.98 53.62 14.89 53.72 14.74C53.78 14.64 53.89 14.52 53.98 14.41C54.16 14.21 54.32 14.08 54.42 14C54.52 13.92 54.62 13.9 54.65 13.9C54.73 13.9 54.59 14.34 54.6 14.54C54.6 14.69 54.7 14.78 54.75 14.86C54.79 14.93 54.79 15.02 54.77 15.12C54.76 15.18 54.67 15.31 54.52 15.52C54.36 15.75 54.17 15.91 54.05 16.02C53.94 16.12 53.93 16.19 53.93 16.22C53.93 16.25 53.94 15.98 53.94 15.53C53.98 15.28 54.06 15.12 54.11 15.05C54.12 15.03 54.13 15.02 54.16 15" stroke="#24352D" stroke-width="0.2" stroke-miterlimit="10"/>
<path d="M54.68 19.03C54.68 19.03 54.68 18.86 54.73 18.78C54.81 18.64 55 18.49 55.18 18.38C55.46 18.21 55.71 18.14 55.81 18.1C55.93 18.06 56.05 18.05 56.17 18.03C56.53 17.99 56.74 17.88 56.83 17.82C56.84 17.81 56.86 17.8 56.85 17.8C56.83 17.8 56.78 17.92 56.66 18.13C56.59 18.26 56.48 18.41 56.38 18.54C56.28 18.67 56.17 18.77 56.07 18.85C55.89 19.01 55.73 19.11 55.6 19.16C55.36 19.25 55.18 19.23 55.07 19.24C54.93 19.24 54.84 19.19 54.78 19.14C54.73 19.09 54.65 19.04 54.58 19.02C54.56 19.02 54.55 19.02 54.55 19.02C54.65 19.17 55.07 19.02 55.18 18.98C55.29 18.94 55.39 18.81 55.46 18.73C55.51 18.66 55.61 18.55 55.69 18.48C55.7 18.48 55.72 18.46 55.75 18.45C55.78 18.45 55.81 18.43 55.87 18.42" stroke="#24352D" stroke-width="0.2" stroke-miterlimit="10"/>
<path d="M54.68 10.79H53.88C53.6646 10.79 53.49 10.9646 53.49 11.18V11.98C53.49 12.1954 53.6646 12.37 53.88 12.37H54.68C54.8954 12.37 55.07 12.1954 55.07 11.98V11.18C55.07 10.9646 54.8954 10.79 54.68 10.79Z" fill="#24352D"/>
<path d="M54.67 21.06H53.89C53.6691 21.06 53.49 21.2391 53.49 21.46V22.24C53.49 22.4609 53.6691 22.64 53.89 22.64H54.67C54.8909 22.64 55.07 22.4609 55.07 22.24V21.46C55.07 21.2391 54.8909 21.06 54.67 21.06Z" fill="#24352D"/>
<path d="M49.52 15.92H48.74C48.5191 15.92 48.34 16.0991 48.34 16.32V17.1C48.34 17.3209 48.5191 17.5 48.74 17.5H49.52C49.7409 17.5 49.92 17.3209 49.92 17.1V16.32C49.92 16.0991 49.7409 15.92 49.52 15.92Z" fill="#24352D"/>
<path d="M59.79 15.92H59.01C58.7891 15.92 58.61 16.0991 58.61 16.32V17.1C58.61 17.3209 58.7891 17.5 59.01 17.5H59.79C60.0109 17.5 60.19 17.3209 60.19 17.1V16.32C60.19 16.0991 60.0109 15.92 59.79 15.92Z" fill="#24352D"/>
<path d="M56.2586 20.5751L55.4957 20.8756C55.3004 20.9525 55.2045 21.1732 55.2814 21.3685L55.5819 22.1314C55.6588 22.3267 55.8795 22.4226 56.0747 22.3457L56.8377 22.0452C57.0329 21.9682 57.1289 21.7476 57.052 21.5523L56.7514 20.7894C56.6745 20.5941 56.4539 20.4982 56.2586 20.5751Z" fill="#24352D"/>
<path d="M55.5647 11.308L55.2789 12.0337C55.1979 12.2393 55.2989 12.4715 55.5044 12.5525L56.2302 12.8384C56.4357 12.9193 56.668 12.8183 56.7489 12.6128L57.0348 11.8871C57.1158 11.6815 57.0148 11.4493 56.8092 11.3683L56.0835 11.0824C55.878 11.0015 55.6457 11.1024 55.5647 11.308Z" fill="#24352D"/>
<path d="M49.6087 17.7138L48.8666 18.0125C48.6667 18.093 48.57 18.3202 48.6504 18.52L48.9492 19.2621C49.0297 19.4619 49.2568 19.5587 49.4566 19.4782L50.1988 19.1794C50.3986 19.099 50.4953 18.8718 50.4149 18.672L50.1161 17.9299C50.0357 17.7301 49.8085 17.6333 49.6087 17.7138Z" fill="#24352D"/>
<path d="M58.4181 17.9482L58.1343 18.6532C58.0497 18.8633 58.1515 19.1021 58.3615 19.1867L59.0665 19.4705C59.2766 19.5551 59.5154 19.4534 59.6 19.2433L59.8838 18.5383C59.9684 18.3283 59.8667 18.0894 59.6566 18.0049L58.9516 17.721C58.7415 17.6365 58.5027 17.7382 58.4181 17.9482Z" fill="#24352D"/>
<path d="M51.813 20.8095L51.5271 21.5352C51.4462 21.7408 51.5471 21.973 51.7527 22.054L52.4784 22.3399C52.684 22.4208 52.9162 22.3199 52.9972 22.1143L53.2831 21.3886C53.364 21.183 53.263 20.9508 53.0575 20.8698L52.3318 20.5839C52.1262 20.503 51.894 20.604 51.813 20.8095Z" fill="#24352D"/>
<path d="M52.4613 11.0788L51.7355 11.3647C51.53 11.4457 51.429 11.6779 51.51 11.8835L51.7958 12.6092C51.8768 12.8147 52.1091 12.9157 52.3146 12.8348L53.0403 12.5489C53.2459 12.4679 53.3469 12.2357 53.2659 12.0301L52.98 11.3044C52.8991 11.0988 52.6668 10.9979 52.4613 11.0788Z" fill="#24352D"/>
<path d="M48.8972 14.1831L48.6168 14.9109C48.5373 15.1171 48.6401 15.3486 48.8462 15.428L49.5741 15.7084C49.7802 15.7878 50.0117 15.6851 50.0911 15.4789L50.3715 14.7511C50.451 14.545 50.3482 14.3135 50.1421 14.234L49.4142 13.9536C49.2081 13.8742 48.9766 13.9769 48.8972 14.1831Z" fill="#24352D"/>
<path d="M59.0955 13.9529L58.3863 14.2261C58.175 14.3075 58.0697 14.5448 58.1511 14.7561L58.4243 15.4653C58.5057 15.6766 58.743 15.7819 58.9543 15.7005L59.6635 15.4273C59.8748 15.3459 59.9801 15.1086 59.8987 14.8973L59.6254 14.1881C59.544 13.9768 59.3067 13.8715 59.0955 13.9529Z" fill="#24352D"/>
<path d="M57.6047 12.2596L57.0604 12.8183C56.9063 12.9765 56.9096 13.2298 57.0678 13.3839L57.6266 13.9282C57.7848 14.0823 58.038 14.079 58.1922 13.9208L58.7365 13.3621C58.8906 13.2038 58.8873 12.9506 58.7291 12.7964L58.1704 12.2522C58.0121 12.098 57.7589 12.1013 57.6047 12.2596Z" fill="#24352D"/>
<path d="M57.6008 19.5016L57.0565 20.0603C56.9023 20.2185 56.9056 20.4718 57.0639 20.6259L57.6226 21.1702C57.7808 21.3243 58.0341 21.321 58.1882 21.1628L58.7325 20.6041C58.8867 20.4458 58.8833 20.1926 58.7251 20.0384L58.1664 19.4942C58.0081 19.34 57.7549 19.3433 57.6008 19.5016Z" fill="#24352D"/>
<path d="M50.3768 12.2696L49.8038 12.8278C49.6495 12.9781 49.6463 13.225 49.7966 13.3793L50.3548 13.9524C50.5051 14.1067 50.752 14.1099 50.9063 13.9596L51.4793 13.4014C51.6336 13.2511 51.6369 13.0042 51.4866 12.8499L50.9283 12.2768C50.778 12.1225 50.5311 12.1193 50.3768 12.2696Z" fill="#24352D"/>
<path d="M50.3645 19.5196L49.8201 20.0499C49.6579 20.2079 49.6545 20.4675 49.8125 20.6297L50.3428 21.1741C50.5008 21.3363 50.7604 21.3397 50.9226 21.1817L51.467 20.6513C51.6292 20.4933 51.6326 20.2338 51.4746 20.0716L50.9443 19.5272C50.7863 19.365 50.5267 19.3616 50.3645 19.5196Z" fill="#24352D"/>
<path d="M0.649994 8.75999V0.23999H3.74999C4.44999 0.23999 5.05999 0.34999 5.57999 0.57999C6.09999 0.79999 6.53999 1.10999 6.88999 1.48999C7.23999 1.86999 7.50999 2.31999 7.67999 2.83999C7.84999 3.35999 7.93999 3.90999 7.93999 4.48999C7.93999 5.13999 7.83999 5.71999 7.64999 6.24999C7.44999 6.76999 7.16999 7.21999 6.79999 7.58999C6.42999 7.95999 5.98999 8.24999 5.46999 8.44999C4.94999 8.64999 4.37999 8.75999 3.73999 8.75999H0.649994ZM6.27999 4.48999C6.27999 4.07999 6.21999 3.70999 6.10999 3.35999C5.99999 3.01999 5.82999 2.71999 5.61999 2.46999C5.39999 2.21999 5.13999 2.02999 4.81999 1.88999C4.49999 1.74999 4.14999 1.68999 3.74999 1.68999H2.30999V7.30999H3.74999C4.15999 7.30999 4.51999 7.23999 4.83999 7.08999C5.15999 6.93999 5.41999 6.74999 5.62999 6.49999C5.83999 6.24999 5.99999 5.94999 6.11999 5.60999C6.22999 5.26999 6.28999 4.88999 6.28999 4.48999H6.27999Z" fill="#E21E26"/>
<path d="M10.8 8.88C10.5 8.88 10.21 8.82999 9.94999 8.72999C9.68999 8.62999 9.45999 8.49 9.26999 8.31C9.07999 8.13 8.92999 7.91999 8.81999 7.68C8.70999 7.44 8.65999 7.18 8.65999 6.89C8.65999 6.6 8.72999 6.32 8.85999 6.07C8.98999 5.82 9.17999 5.6 9.40999 5.43C9.63999 5.25999 9.92999 5.12 10.26 5.02C10.59 4.92 10.95 4.87 11.34 4.87C11.62 4.87 11.89 4.89 12.16 4.94C12.43 4.99 12.67 5.06 12.87 5.14V4.78C12.87 4.36 12.75 4.04 12.52 3.82C12.28 3.6 11.93 3.48 11.47 3.48C11.13 3.48 10.81 3.54 10.49 3.66C10.17 3.78 9.83999 3.96 9.50999 4.19L9.01999 3.17C9.82999 2.63 10.7 2.37 11.64 2.37C12.58 2.37 13.25 2.59 13.75 3.04C14.25 3.49 14.5 4.13 14.5 4.97V6.93C14.5 7.1 14.53 7.22 14.59 7.29C14.65 7.36 14.75 7.39999 14.88 7.41V8.77999C14.61 8.83999 14.37 8.85999 14.17 8.85999C13.87 8.85999 13.63 8.79 13.47 8.66C13.31 8.52 13.2 8.33999 13.16 8.12L13.12 7.77C12.84 8.14 12.5 8.41999 12.1 8.60999C11.7 8.79999 11.27 8.89999 10.82 8.89999L10.8 8.88ZM11.26 7.7C11.53 7.7 11.79 7.65 12.03 7.56C12.27 7.46 12.46 7.33999 12.6 7.18C12.78 7.04 12.86 6.89 12.86 6.72V6C12.67 5.93 12.46 5.87 12.24 5.83C12.02 5.79 11.8 5.76 11.59 5.76C11.17 5.76 10.83 5.85 10.57 6.04C10.31 6.23 10.17 6.47 10.17 6.75C10.17 7.02 10.27 7.25 10.48 7.43C10.69 7.60999 10.94 7.7 11.25 7.7H11.26Z" fill="#E21E26"/>
<path d="M21.82 8.75998H20.21V5.22998C20.21 4.72998 20.12 4.35998 19.95 4.12998C19.77 3.89998 19.53 3.77998 19.22 3.77998C19.06 3.77998 18.9 3.80998 18.73 3.87998C18.56 3.94998 18.4 4.02998 18.26 4.14998C18.11 4.26998 17.98 4.39998 17.86 4.55998C17.74 4.71998 17.65 4.89998 17.6 5.08998V8.75998H15.99V2.46998H17.44V3.62998C17.67 3.22998 18.01 2.91998 18.45 2.68998C18.89 2.46998 19.39 2.34998 19.94 2.34998C20.33 2.34998 20.65 2.41998 20.9 2.56998C21.15 2.70998 21.34 2.89998 21.48 3.12998C21.62 3.35998 21.71 3.62998 21.76 3.91998C21.81 4.21998 21.84 4.51998 21.84 4.81998V8.73998L21.82 8.75998Z" fill="#E21E26"/>
<path d="M27.52 8.76L25.7 6.04L24.84 6.89V8.76H23.23V0H24.84V5.32L27.36 2.49H29.08L26.74 5.15L29.25 8.76H27.53H27.52Z" fill="#E21E26"/>
<path d="M32.5 8.88C31.99 8.88 31.53 8.79 31.12 8.62C30.71 8.44 30.37 8.21 30.08 7.91C29.8 7.60999 29.58 7.25999 29.43 6.87C29.28 6.48 29.2 6.07 29.2 5.63C29.2 5.19 29.28 4.77 29.43 4.38C29.58 3.99 29.8 3.64 30.08 3.34C30.36 3.04 30.71 2.8 31.12 2.63C31.53 2.45 31.99 2.37 32.5 2.37C33.01 2.37 33.47 2.46 33.87 2.63C34.27 2.81 34.62 3.04 34.9 3.34C35.18 3.64 35.4 3.99 35.55 4.38C35.7 4.77 35.78 5.19 35.78 5.63C35.78 6.07 35.7 6.47 35.55 6.87C35.4 7.27 35.18 7.60999 34.9 7.91C34.62 8.21 34.28 8.45 33.87 8.62C33.46 8.79999 33 8.88 32.49 8.88H32.5ZM30.85 5.63C30.85 5.91 30.89 6.16 30.98 6.39C31.07 6.62 31.18 6.82 31.33 6.98C31.48 7.14 31.65 7.27999 31.85 7.37C32.05 7.46 32.27 7.51 32.5 7.51C32.73 7.51 32.95 7.46 33.15 7.37C33.35 7.27999 33.52 7.15 33.67 6.98C33.82 6.81 33.93 6.61 34.02 6.38C34.11 6.15 34.15 5.89 34.15 5.61C34.15 5.33 34.11 5.09 34.02 4.85C33.93 4.61 33.82 4.42 33.67 4.25C33.52 4.08 33.35 3.95 33.15 3.86C32.95 3.77 32.73 3.72 32.5 3.72C32.27 3.72 32.05 3.77 31.85 3.86C31.65 3.96 31.48 4.09 31.33 4.26C31.18 4.43 31.07 4.63 30.98 4.86C30.9 5.09 30.85 5.34 30.85 5.62V5.63Z" fill="#E21E26"/>
<path d="M40.61 3.86001C40.12 3.86001 39.69 3.96001 39.3 4.14001C38.92 4.32001 38.64 4.59001 38.47 4.95001V8.75001H36.86V2.47001H38.34V3.81001C38.45 3.59001 38.58 3.40001 38.74 3.23001C38.9 3.06001 39.06 2.91001 39.23 2.78001C39.41 2.65001 39.58 2.55001 39.76 2.49001C39.94 2.42001 40.11 2.39001 40.28 2.39001H40.48C40.48 2.39001 40.57 2.39001 40.61 2.40001V3.86001Z" fill="#E21E26"/>
<path d="M45.28 8.43999C45.06 8.53999 44.8 8.62999 44.49 8.72999C44.18 8.82999 43.85 8.86999 43.51 8.86999C43.29 8.86999 43.08 8.83999 42.88 8.78999C42.68 8.72999 42.51 8.63999 42.36 8.51999C42.21 8.39999 42.09 8.23999 42.01 8.03999C41.92 7.83999 41.88 7.60999 41.88 7.32999V3.71999H41.05V2.47999H41.88V0.429993H43.49V2.46999H44.81V3.70999H43.49V6.77999C43.49 6.99999 43.55 7.15999 43.66 7.24999C43.78 7.33999 43.92 7.38999 44.09 7.38999C44.26 7.38999 44.42 7.35999 44.58 7.30999C44.74 7.24999 44.87 7.20999 44.96 7.16999L45.28 8.43999Z" fill="#E21E26"/>
<path d="M7.74001 11.6L6.94001 12.78C7.33001 13.2 7.64001 13.68 7.85001 14.22C8.07001 14.76 8.17001 15.32 8.17001 15.88C8.17001 16.44 8.07001 16.99 7.86001 17.51C7.66001 18.03 7.37001 18.49 7.00001 18.88C6.63001 19.28 6.20001 19.59 5.70001 19.83C5.20001 20.07 4.66001 20.18 4.07001 20.18C3.71001 20.18 3.37001 20.14 3.06001 20.05C2.75001 19.96 2.45001 19.85 2.17001 19.7L1.88001 20.12H0.430005L1.22001 18.96C0.830006 18.55 0.530005 18.08 0.310005 17.54C0.0900055 17 -0.00999451 16.44 -0.00999451 15.87C-0.00999451 15.3 0.0900055 14.76 0.300005 14.24C0.510005 13.72 0.790005 13.26 1.16001 12.86C1.52001 12.46 1.96001 12.14 2.46001 11.91C2.96001 11.67 3.51001 11.56 4.10001 11.56C4.45001 11.56 4.78001 11.6 5.10001 11.69C5.42001 11.78 5.70001 11.9 5.98001 12.06L6.28001 11.63H7.74001V11.6ZM1.37001 15.86C1.37001 16.23 1.42001 16.58 1.53001 16.93C1.64001 17.28 1.79001 17.59 1.99001 17.87L5.28001 13.07C4.92001 12.87 4.53001 12.77 4.10001 12.77C3.67001 12.77 3.28001 12.86 2.95001 13.04C2.62001 13.22 2.33001 13.45 2.10001 13.74C1.87001 14.03 1.69001 14.36 1.57001 14.73C1.45001 15.1 1.38001 15.48 1.38001 15.86H1.37001ZM6.79001 15.86C6.79001 15.49 6.74001 15.14 6.63001 14.8C6.53001 14.46 6.37001 14.15 6.17001 13.87L2.88001 18.68C3.06001 18.77 3.24001 18.84 3.44001 18.89C3.64001 18.94 3.85001 18.97 4.08001 18.97C4.51001 18.97 4.89001 18.88 5.23001 18.7C5.56001 18.52 5.84001 18.28 6.08001 17.99C6.31001 17.69 6.49001 17.36 6.61001 16.99C6.73001 16.62 6.79001 16.25 6.79001 15.86Z" fill="#24352D"/>
<path d="M15.01 20.12H13.69V16.6C13.69 16.01 13.6 15.58 13.41 15.31C13.22 15.04 12.94 14.91 12.58 14.91C12.39 14.91 12.2 14.95 12 15.02C11.81 15.09 11.63 15.19 11.46 15.33C11.29 15.47 11.14 15.62 11.01 15.8C10.88 15.98 10.78 16.18 10.7 16.39V20.12H9.38V13.84H10.58V15.1C10.82 14.68 11.17 14.34 11.62 14.1C12.08 13.86 12.58 13.73 13.13 13.73C13.51 13.73 13.81 13.8 14.05 13.93C14.29 14.07 14.48 14.25 14.62 14.49C14.76 14.73 14.86 15 14.91 15.31C14.97 15.62 14.99 15.94 14.99 16.29V20.12H15.01Z" fill="#24352D"/>
<path d="M18.83 20.24C18.33 20.24 17.82 20.16 17.32 19.99C16.82 19.82 16.39 19.59 16.03 19.29L16.56 18.45C16.94 18.72 17.31 18.93 17.68 19.07C18.05 19.21 18.42 19.28 18.81 19.28C19.2 19.28 19.51 19.2 19.74 19.05C19.97 18.9 20.08 18.68 20.08 18.4C20.08 18.14 19.95 17.94 19.7 17.82C19.44 17.7 19.04 17.57 18.5 17.42C18.11 17.32 17.77 17.22 17.49 17.12C17.21 17.02 16.98 16.91 16.81 16.78C16.63 16.65 16.51 16.5 16.43 16.34C16.35 16.17 16.31 15.97 16.31 15.73C16.31 15.41 16.37 15.13 16.5 14.88C16.63 14.63 16.8 14.42 17.02 14.25C17.24 14.08 17.5 13.95 17.79 13.86C18.09 13.77 18.41 13.73 18.75 13.73C19.22 13.73 19.66 13.8 20.07 13.95C20.48 14.09 20.84 14.3 21.16 14.57L20.6 15.36C20.02 14.9 19.4 14.66 18.74 14.66C18.4 14.66 18.12 14.73 17.89 14.87C17.66 15.01 17.55 15.23 17.55 15.54C17.55 15.67 17.57 15.78 17.62 15.86C17.67 15.95 17.75 16.02 17.85 16.09C17.95 16.16 18.1 16.21 18.27 16.26C18.44 16.31 18.66 16.37 18.91 16.43C19.33 16.53 19.7 16.64 20.01 16.74C20.32 16.84 20.57 16.97 20.77 17.11C20.97 17.25 21.12 17.41 21.21 17.6C21.31 17.79 21.35 18.01 21.35 18.28C21.35 18.88 21.12 19.35 20.67 19.7C20.22 20.05 19.6 20.22 18.83 20.22V20.24Z" fill="#24352D"/>
<path d="M26.87 20.12L24.87 17.23L23.83 18.21V20.12H22.51V11.36H23.83V16.92L26.71 13.86H28.15L25.71 16.49L28.28 20.13H26.88L26.87 20.12Z" fill="#24352D"/>
<path d="M31.6 20.24C31.11 20.24 30.67 20.15 30.27 19.98C29.87 19.81 29.53 19.57 29.24 19.28C28.96 18.98 28.74 18.64 28.58 18.25C28.42 17.86 28.35 17.44 28.35 17C28.35 16.56 28.43 16.14 28.58 15.75C28.74 15.35 28.96 15.01 29.24 14.71C29.52 14.41 29.87 14.17 30.27 14C30.67 13.83 31.12 13.74 31.61 13.74C32.1 13.74 32.54 13.83 32.94 14C33.34 14.18 33.67 14.41 33.95 14.7C34.23 14.99 34.44 15.33 34.59 15.72C34.74 16.11 34.81 16.51 34.81 16.94C34.81 17.04 34.81 17.13 34.8 17.21C34.79 17.29 34.78 17.36 34.78 17.42H29.75C29.77 17.7 29.84 17.95 29.95 18.18C30.06 18.4 30.2 18.6 30.37 18.76C30.54 18.92 30.74 19.05 30.96 19.14C31.18 19.23 31.41 19.27 31.65 19.27C31.83 19.27 32 19.25 32.17 19.2C32.34 19.16 32.5 19.09 32.64 19.01C32.78 18.93 32.91 18.82 33.02 18.7C33.13 18.58 33.22 18.45 33.28 18.3L34.41 18.62C34.19 19.09 33.84 19.48 33.34 19.78C32.84 20.08 32.26 20.23 31.59 20.23L31.6 20.24ZM33.5 16.51C33.48 16.25 33.41 16 33.3 15.78C33.19 15.56 33.05 15.37 32.89 15.21C32.72 15.05 32.53 14.93 32.3 14.84C32.08 14.75 31.84 14.71 31.59 14.71C31.34 14.71 31.11 14.75 30.89 14.84C30.67 14.93 30.48 15.05 30.31 15.21C30.14 15.37 30.01 15.56 29.9 15.78C29.8 16 29.73 16.25 29.71 16.51H33.5Z" fill="#24352D"/>
<path d="M39.27 20.24C38.79 20.24 38.36 20.13 37.97 19.9C37.58 19.67 37.28 19.37 37.05 18.98V20.12H35.89V11.36H37.21V15.03C37.46 14.63 37.77 14.31 38.14 14.08C38.51 13.85 38.95 13.73 39.45 13.73C39.87 13.73 40.25 13.82 40.59 14C40.93 14.18 41.23 14.42 41.47 14.72C41.71 15.02 41.9 15.37 42.03 15.76C42.16 16.16 42.23 16.57 42.23 17C42.23 17.43 42.15 17.87 42 18.26C41.85 18.65 41.64 18.99 41.38 19.29C41.12 19.58 40.8 19.81 40.44 19.98C40.08 20.15 39.69 20.23 39.27 20.23V20.24ZM38.93 19.11C39.22 19.11 39.48 19.05 39.72 18.94C39.96 18.82 40.17 18.67 40.34 18.48C40.51 18.29 40.65 18.07 40.74 17.81C40.84 17.56 40.88 17.29 40.88 17.01C40.88 16.73 40.83 16.46 40.74 16.2C40.65 15.94 40.52 15.71 40.36 15.52C40.2 15.32 40 15.17 39.77 15.05C39.54 14.93 39.29 14.87 39.02 14.87C38.61 14.87 38.25 15 37.93 15.27C37.61 15.53 37.37 15.85 37.2 16.23V17.89C37.25 18.07 37.33 18.24 37.45 18.39C37.57 18.54 37.71 18.67 37.87 18.78C38.03 18.89 38.2 18.98 38.39 19.04C38.58 19.1 38.75 19.13 38.92 19.13L38.93 19.11Z" fill="#24352D"/>
<path d="M46.96 14.98C46.45 15 45.99 15.11 45.6 15.33C45.2 15.55 44.92 15.86 44.75 16.27V20.11H43.43V13.83H44.65V15.23C44.87 14.8 45.15 14.45 45.5 14.19C45.85 13.93 46.22 13.79 46.62 13.76H46.82C46.87 13.76 46.92 13.76 46.96 13.77V14.96V14.98Z" fill="#24352D"/>
<path d="M68.07 20.12H66.75V16.6C66.75 16.01 66.66 15.58 66.47 15.31C66.28 15.04 66 14.91 65.64 14.91C65.45 14.91 65.26 14.95 65.06 15.02C64.87 15.09 64.69 15.19 64.52 15.33C64.35 15.47 64.2 15.62 64.07 15.8C63.94 15.98 63.84 16.18 63.76 16.39V20.12H62.44V13.84H63.64V15.1C63.88 14.68 64.23 14.34 64.68 14.1C65.14 13.86 65.64 13.73 66.19 13.73C66.57 13.73 66.87 13.8 67.11 13.93C67.35 14.07 67.54 14.25 67.68 14.49C67.82 14.73 67.92 15 67.97 15.31C68.03 15.62 68.05 15.94 68.05 16.29V20.12H68.07Z" fill="#24352D"/>
<path d="M72.17 20.24C71.75 20.24 71.35 20.15 70.99 19.98C70.63 19.81 70.32 19.57 70.05 19.28C69.79 18.98 69.58 18.64 69.43 18.24C69.28 17.84 69.21 17.42 69.21 16.96C69.21 16.5 69.28 16.11 69.42 15.72C69.56 15.33 69.76 14.99 70.01 14.69C70.26 14.39 70.56 14.16 70.9 13.99C71.24 13.82 71.61 13.73 72.02 13.73C72.52 13.73 72.97 13.85 73.35 14.1C73.73 14.34 74.03 14.65 74.25 15.03V11.36H75.57V18.56C75.57 18.71 75.6 18.82 75.65 18.88C75.7 18.94 75.8 18.98 75.93 18.99V20.12C75.79 20.14 75.68 20.16 75.6 20.17C75.52 20.18 75.45 20.18 75.39 20.18C75.13 20.18 74.91 20.11 74.74 19.98C74.57 19.84 74.48 19.67 74.46 19.45L74.44 18.98C74.21 19.37 73.89 19.68 73.49 19.9C73.09 20.12 72.65 20.24 72.16 20.24H72.17ZM72.49 19.11C72.68 19.11 72.87 19.08 73.07 19.01C73.27 18.94 73.44 18.86 73.6 18.75C73.76 18.64 73.9 18.51 74.01 18.35C74.13 18.2 74.21 18.03 74.26 17.86V16.22C74.19 16.02 74.09 15.84 73.95 15.67C73.82 15.5 73.67 15.36 73.5 15.24C73.33 15.12 73.15 15.03 72.97 14.96C72.78 14.9 72.59 14.86 72.4 14.86C72.14 14.86 71.89 14.92 71.67 15.04C71.45 15.16 71.26 15.32 71.1 15.52C70.94 15.72 70.81 15.95 70.72 16.2C70.63 16.46 70.58 16.72 70.58 16.99C70.58 17.28 70.63 17.55 70.73 17.81C70.83 18.07 70.97 18.29 71.14 18.48C71.32 18.67 71.52 18.82 71.75 18.94C71.98 19.05 72.22 19.11 72.49 19.11Z" fill="#24352D"/>
<path d="M80.1 20.24C79.61 20.24 79.17 20.15 78.77 19.98C78.37 19.81 78.03 19.57 77.74 19.28C77.46 18.98 77.24 18.64 77.08 18.25C76.92 17.86 76.85 17.44 76.85 17C76.85 16.56 76.93 16.14 77.08 15.75C77.24 15.35 77.46 15.01 77.74 14.71C78.02 14.41 78.37 14.17 78.77 14C79.17 13.83 79.62 13.74 80.11 13.74C80.6 13.74 81.04 13.83 81.44 14C81.84 14.18 82.17 14.41 82.45 14.7C82.73 14.99 82.94 15.33 83.09 15.72C83.24 16.11 83.31 16.51 83.31 16.94C83.31 17.04 83.31 17.13 83.3 17.21C83.29 17.29 83.28 17.36 83.28 17.42H78.25C78.27 17.7 78.34 17.95 78.45 18.18C78.56 18.4 78.7 18.6 78.87 18.76C79.04 18.92 79.24 19.05 79.46 19.14C79.68 19.23 79.91 19.27 80.15 19.27C80.33 19.27 80.5 19.25 80.67 19.2C80.84 19.16 81 19.09 81.14 19.01C81.28 18.93 81.41 18.82 81.52 18.7C81.63 18.58 81.72 18.45 81.78 18.3L82.91 18.62C82.69 19.09 82.34 19.48 81.84 19.78C81.34 20.08 80.76 20.23 80.09 20.23L80.1 20.24ZM82.01 16.51C81.99 16.25 81.92 16 81.81 15.78C81.7 15.56 81.56 15.37 81.4 15.21C81.23 15.05 81.04 14.93 80.81 14.84C80.59 14.75 80.35 14.71 80.1 14.71C79.85 14.71 79.62 14.75 79.4 14.84C79.18 14.93 78.99 15.05 78.82 15.21C78.65 15.37 78.52 15.56 78.41 15.78C78.31 16 78.24 16.25 78.22 16.51H82.01Z" fill="#24352D"/>
<path d="M90.02 20.12H88.7V16.6C88.7 16.01 88.61 15.58 88.42 15.31C88.23 15.04 87.95 14.91 87.59 14.91C87.4 14.91 87.21 14.95 87.01 15.02C86.82 15.09 86.64 15.19 86.47 15.33C86.3 15.47 86.15 15.62 86.02 15.8C85.89 15.98 85.79 16.18 85.71 16.39V20.12H84.39V13.84H85.59V15.1C85.83 14.68 86.18 14.34 86.63 14.1C87.09 13.86 87.59 13.73 88.14 13.73C88.52 13.73 88.82 13.8 89.06 13.93C89.3 14.07 89.49 14.25 89.63 14.49C89.77 14.73 89.87 15 89.92 15.31C89.98 15.62 90 15.94 90 16.29V20.12H90.02Z" fill="#24352D"/>
</g>
<defs>
<clipPath id="clip0_798_225">
<rect width="90.02" height="22.64" fill="white"/>
</clipPath>
</defs>
</svg>
