<svg width="333" height="84" viewBox="0 0 333 84" fill="none" xmlns="http://www.w3.org/2000/svg">
<path d="M202.043 39.8621H199.088C198.292 39.8621 197.647 40.5071 197.647 41.3029V44.2583C197.647 45.0541 198.292 45.6991 199.088 45.6991H202.043C202.839 45.6991 203.484 45.0541 203.484 44.2583V41.3029C203.484 40.5071 202.839 39.8621 202.043 39.8621Z" fill="#24352D"/>
<path d="M202.007 77.803H199.125C198.309 77.803 197.647 78.4646 197.647 79.2807V82.1623C197.647 82.9784 198.309 83.64 199.125 83.64H202.007C202.823 83.64 203.484 82.9784 203.484 82.1623V79.2807C203.484 78.4646 202.823 77.803 202.007 77.803Z" fill="#24352D"/>
<path d="M182.981 58.814H180.099C179.283 58.814 178.621 59.4756 178.621 60.2917V63.1733C178.621 63.9894 179.283 64.651 180.099 64.651H182.981C183.797 64.651 184.458 63.9894 184.458 63.1733V60.2917C184.458 59.4756 183.797 58.814 182.981 58.814Z" fill="#24352D"/>
<path d="M220.922 58.814H218.04C217.224 58.814 216.562 59.4756 216.562 60.2917V63.1733C216.562 63.9894 217.224 64.651 218.04 64.651H220.922C221.738 64.651 222.399 63.9894 222.399 63.1733V60.2917C222.399 59.4756 221.738 58.814 220.922 58.814Z" fill="#24352D"/>
<path d="M207.875 76.0113L205.057 77.1215C204.335 77.4057 203.981 78.2208 204.265 78.9422L205.375 81.7608C205.66 82.4822 206.475 82.8366 207.196 82.5524L210.015 81.4422C210.736 81.158 211.09 80.3429 210.806 79.6215L209.696 76.8029C209.412 76.0815 208.597 75.7271 207.875 76.0113Z" fill="#24352D"/>
<path d="M205.312 41.7756L204.256 44.4567C203.957 45.216 204.33 46.0741 205.089 46.3732L207.77 47.4293C208.53 47.7284 209.388 47.3553 209.687 46.596L210.743 43.9149C211.042 43.1556 210.669 42.2975 209.91 41.9984L207.228 40.9423C206.469 40.6432 205.611 41.0163 205.312 41.7756Z" fill="#24352D"/>
<path d="M183.308 65.4406L180.567 66.5444C179.828 66.8416 179.471 67.6809 179.768 68.4191L180.872 71.1607C181.169 71.8988 182.008 72.2563 182.747 71.9591L185.488 70.8553C186.226 70.5581 186.584 69.7188 186.287 68.9807L185.183 66.2391C184.886 65.5009 184.046 65.1434 183.308 65.4406Z" fill="#24352D"/>
<path d="M215.854 66.3068L214.805 68.9114C214.493 69.6874 214.868 70.5697 215.644 70.8822L218.249 71.9308C219.025 72.2432 219.907 71.8674 220.22 71.0914L221.268 68.4868C221.581 67.7108 221.205 66.8285 220.429 66.5161L217.824 65.4675C217.048 65.155 216.166 65.5308 215.854 66.3068Z" fill="#24352D"/>
<path d="M191.452 76.8776L190.396 79.5587C190.096 80.318 190.47 81.1761 191.229 81.4752L193.91 82.5313C194.669 82.8304 195.527 82.4573 195.826 81.698L196.883 79.0169C197.182 78.2575 196.809 77.3995 196.049 77.1004L193.368 76.0443C192.609 75.7452 191.751 76.1183 191.452 76.8776Z" fill="#24352D"/>
<path d="M193.847 40.9292L191.166 41.9853C190.406 42.2844 190.033 43.1424 190.332 43.9018L191.388 46.5828C191.687 47.3422 192.546 47.7153 193.305 47.4162L195.986 46.3601C196.745 46.0609 197.118 45.2029 196.819 44.4436L195.763 41.7625C195.464 41.0031 194.606 40.63 193.847 40.9292Z" fill="#24352D"/>
<path d="M180.68 52.3971L179.644 55.086C179.351 55.8476 179.73 56.7028 180.492 56.9962L183.181 58.0322C183.942 58.3256 184.797 57.9461 185.091 57.1845L186.127 54.4956C186.42 53.734 186.041 52.8788 185.279 52.5854L182.59 51.5494C181.829 51.256 180.973 51.6355 180.68 52.3971Z" fill="#24352D"/>
<path d="M218.356 51.5468L215.736 52.5562C214.955 52.857 214.566 53.7336 214.867 54.5142L215.876 57.1342C216.177 57.9148 217.054 58.3038 217.834 58.003L220.454 56.9936C221.235 56.6929 221.624 55.8163 221.323 55.0357L220.314 52.4157C220.013 51.6351 219.136 51.2461 218.356 51.5468Z" fill="#24352D"/>
<path d="M212.848 45.2913L210.838 47.3554C210.268 47.94 210.28 48.8755 210.865 49.445L212.929 51.4558C213.514 52.0253 214.449 52.013 215.019 51.4284L217.03 49.3643C217.599 48.7797 217.587 47.8442 217.002 47.2747L214.938 45.2639C214.353 44.6944 213.418 44.7067 212.848 45.2913Z" fill="#24352D"/>
<path d="M212.834 72.0454L210.823 74.1095C210.253 74.6941 210.266 75.6296 210.85 76.1991L212.914 78.2099C213.499 78.7793 214.435 78.7671 215.004 78.1825L217.015 76.1184C217.584 75.5338 217.572 74.5983 216.987 74.0288L214.923 72.018C214.339 71.4485 213.403 71.4608 212.834 72.0454Z" fill="#24352D"/>
<path d="M186.146 45.3281L184.029 47.3904C183.459 47.9457 183.447 48.8579 184.002 49.4279L186.065 51.5449C186.62 52.1148 187.532 52.1268 188.102 51.5715L190.219 49.5092C190.789 48.954 190.801 48.0418 190.246 47.4718L188.184 45.3548C187.628 44.7848 186.716 44.7729 186.146 45.3281Z" fill="#24352D"/>
<path d="M186.101 72.1122L184.089 74.0714C183.49 74.6552 183.478 75.6141 184.061 76.2133L186.021 78.2245C186.604 78.8237 187.563 78.8362 188.162 78.2525L190.174 76.2933C190.773 75.7096 190.785 74.7506 190.202 74.1514L188.242 72.1403C187.659 71.5411 186.7 71.5285 186.101 72.1122Z" fill="#24352D"/>
<path d="M2.43835 32.3624V0.886597H13.8908C16.4768 0.886597 18.7304 1.29297 20.6515 2.14267C22.5725 2.95543 24.198 4.10067 25.491 5.50452C26.7841 6.90837 27.7815 8.57082 28.4096 10.4919C29.0376 12.4129 29.3701 14.4448 29.3701 16.5875C29.3701 18.9889 29.0007 21.1316 28.2987 23.0896C27.5599 25.0106 26.5255 26.6731 25.1585 28.04C23.7916 29.4069 22.1661 30.4783 20.2451 31.2171C18.324 31.956 16.2182 32.3624 13.8539 32.3624H2.43835ZM23.2375 16.5875C23.2375 15.0729 23.0158 13.706 22.6095 12.4129C22.2031 11.1569 21.575 10.0486 20.7992 9.12498C19.9865 8.20139 19.0259 7.49947 17.8438 6.98226C16.6616 6.46505 15.3685 6.24339 13.8908 6.24339H8.57096V27.0056H13.8908C15.4055 27.0056 16.7355 26.747 17.9176 26.1928C19.0998 25.6387 20.0604 24.9368 20.8362 24.0132C21.612 23.0896 22.2031 21.9813 22.6464 20.7252C23.0528 19.4691 23.2744 18.0653 23.2744 16.5875H23.2375Z" fill="#E21E26"/>
<path d="M39.936 32.8058C38.8277 32.8058 37.7564 32.621 36.7958 32.2516C35.8353 31.8822 34.9856 31.365 34.2837 30.7C33.5818 30.035 33.0276 29.2592 32.6212 28.3726C32.2149 27.4859 32.0302 26.5254 32.0302 25.454C32.0302 24.3827 32.2888 23.3483 32.769 22.4247C33.2493 21.5011 33.9512 20.6883 34.8009 20.0603C35.6506 19.4323 36.722 18.9151 37.9411 18.5456C39.1602 18.1762 40.4902 17.9915 41.931 17.9915C42.9654 17.9915 43.9629 18.0654 44.9603 18.2501C45.9578 18.4348 46.8445 18.6934 47.5833 18.9889V17.659C47.5833 16.1074 47.14 14.9252 46.2903 14.1124C45.4037 13.2997 44.1106 12.8563 42.4112 12.8563C41.1552 12.8563 39.973 13.078 38.7908 13.5213C37.6086 13.9646 36.3895 14.6296 35.1703 15.4793L33.3601 11.7111C36.3525 9.71614 39.5666 8.75562 43.0393 8.75562C46.512 8.75562 48.9872 9.56837 50.8343 11.2308C52.6815 12.8933 53.6051 15.2577 53.6051 18.3609V25.6018C53.6051 26.2298 53.7159 26.6732 53.9376 26.9318C54.1592 27.1904 54.5287 27.3381 55.0089 27.3751V32.4363C54.0115 32.658 53.1248 32.7319 52.386 32.7319C51.2777 32.7319 50.391 32.4733 49.7999 31.993C49.2088 31.4758 48.8025 30.8108 48.6547 29.9981L48.5069 28.7051C47.4725 30.072 46.2164 31.1064 44.7387 31.8083C43.2609 32.5102 41.6724 32.8797 40.0099 32.8797L39.936 32.8058ZM41.6354 28.4464C42.6329 28.4464 43.5934 28.2617 44.4801 27.9292C45.3667 27.5598 46.0686 27.1165 46.5859 26.5254C47.2508 26.0082 47.5464 25.454 47.5464 24.826V22.1661C46.8445 21.9075 46.0686 21.6858 45.2559 21.538C44.4431 21.3903 43.6304 21.2794 42.8546 21.2794C41.3029 21.2794 40.0469 21.6119 39.0863 22.3138C38.1258 23.0158 37.6086 23.9024 37.6086 24.9368C37.6086 25.9343 37.978 26.784 38.7538 27.449C39.5297 28.114 40.4532 28.4464 41.5985 28.4464H41.6354Z" fill="#E21E26"/>
<path d="M80.6477 32.3622H74.6999V19.3212C74.6999 17.474 74.3674 16.1071 73.7393 15.2574C73.0744 14.4077 72.1877 13.9644 71.0425 13.9644C70.4514 13.9644 69.8603 14.0753 69.2322 14.3339C68.6042 14.5925 68.0131 14.888 67.4959 15.3313C66.9417 15.7747 66.4615 16.2549 66.0182 16.846C65.5748 17.4371 65.2423 18.1021 65.0576 18.804V32.3622H59.1097V9.12484H64.4665V13.4103C65.3162 11.9325 66.5723 10.7873 68.1978 9.93759C69.8233 9.12484 71.6705 8.68152 73.7024 8.68152C75.1432 8.68152 76.3254 8.94012 77.2489 9.49427C78.1725 10.0115 78.8745 10.7134 79.3917 11.5631C79.9089 12.4128 80.2414 13.4103 80.4261 14.4816C80.6108 15.5899 80.7216 16.6982 80.7216 17.8065V32.2884L80.6477 32.3622Z" fill="#E21E26"/>
<path d="M101.705 32.3624L94.9817 22.3138L91.8046 25.454V32.3624H85.8567V0H91.8046V19.6539L101.114 9.19891H107.469L98.8238 19.0259L108.097 32.3624H101.742H101.705Z" fill="#E21E26"/>
<path d="M120.103 32.8058C118.219 32.8058 116.52 32.4733 115.005 31.8452C113.49 31.1803 112.234 30.3306 111.163 29.2223C110.128 28.114 109.316 26.8209 108.761 25.3801C108.207 23.9394 107.912 22.4247 107.912 20.7992C107.912 19.1737 108.207 17.622 108.761 16.1812C109.316 14.7404 110.128 13.4474 111.163 12.3391C112.197 11.2308 113.49 10.3442 115.005 9.71614C116.52 9.05116 118.219 8.75562 120.103 8.75562C121.987 8.75562 123.687 9.08811 125.164 9.71614C126.642 10.3811 127.935 11.2308 128.97 12.3391C130.004 13.4474 130.817 14.7404 131.371 16.1812C131.925 17.622 132.221 19.1737 132.221 20.7992C132.221 22.4247 131.925 23.9024 131.371 25.3801C130.817 26.8579 130.004 28.114 128.97 29.2223C127.935 30.3306 126.679 31.2172 125.164 31.8452C123.65 32.5102 121.95 32.8058 120.066 32.8058H120.103ZM114.007 20.7992C114.007 21.8336 114.155 22.7572 114.488 23.6069C114.82 24.4566 115.227 25.1954 115.781 25.7865C116.335 26.3776 116.963 26.8948 117.702 27.2273C118.441 27.5598 119.253 27.7445 120.103 27.7445C120.953 27.7445 121.766 27.5598 122.504 27.2273C123.243 26.8948 123.871 26.4146 124.425 25.7865C124.98 25.1585 125.386 24.4196 125.718 23.5699C126.051 22.7202 126.199 21.7597 126.199 20.7253C126.199 19.6909 126.051 18.8042 125.718 17.9176C125.386 17.0309 124.98 16.329 124.425 15.701C123.871 15.0729 123.243 14.5927 122.504 14.2602C121.766 13.9277 120.953 13.743 120.103 13.743C119.253 13.743 118.441 13.9277 117.702 14.2602C116.963 14.6296 116.335 15.1099 115.781 15.7379C115.227 16.366 114.82 17.1048 114.488 17.9545C114.192 18.8042 114.007 19.7278 114.007 20.7622V20.7992Z" fill="#E21E26"/>
<path d="M150.064 14.2602C148.254 14.2602 146.665 14.6296 145.225 15.2946C143.821 15.9596 142.786 16.9571 142.158 18.287V32.3255H136.211V9.12508H141.678V14.0755C142.085 13.2627 142.565 12.5608 143.156 11.9328C143.747 11.3047 144.338 10.7506 144.966 10.2703C145.631 9.79006 146.259 9.42062 146.924 9.19896C147.589 8.94036 148.217 8.82953 148.845 8.82953H149.584C149.584 8.82953 149.917 8.82953 150.064 8.86647V14.2602Z" fill="#E21E26"/>
<path d="M167.317 31.1802C166.504 31.5496 165.544 31.8821 164.398 32.2515C163.253 32.621 162.034 32.7687 160.778 32.7687C159.965 32.7687 159.189 32.6579 158.451 32.4732C157.712 32.2515 157.084 31.919 156.529 31.4757C155.975 31.0324 155.532 30.4413 155.236 29.7024C154.904 28.9636 154.756 28.1139 154.756 27.0795V13.7429H151.69V9.1619H154.756V1.5885H160.704V9.12496H165.581V13.7059H160.704V25.0476C160.704 25.8603 160.926 26.4514 161.332 26.7839C161.775 27.1164 162.293 27.3011 162.921 27.3011C163.549 27.3011 164.14 27.1903 164.731 27.0056C165.322 26.7839 165.802 26.6361 166.135 26.4884L167.317 31.1802Z" fill="#E21E26"/>
<path d="M28.6312 42.8544L25.6757 47.2137C27.1165 48.7653 28.2618 50.5386 29.0376 52.5335C29.8503 54.5285 30.2198 56.5973 30.2198 58.6662C30.2198 60.735 29.8503 62.7669 29.0745 64.6879C28.3357 66.609 27.2643 68.3084 25.8974 69.7492C24.5305 71.2269 22.9419 72.3722 21.0947 73.2588C19.2476 74.1454 17.2526 74.5518 15.073 74.5518C13.743 74.5518 12.4869 74.404 11.3417 74.0715C10.1964 73.7391 9.08814 73.3327 8.05372 72.7785L6.98236 74.3302H1.62557L4.5441 70.0447C3.10331 68.53 1.995 66.7937 1.18225 64.7988C0.369495 62.8038 6.10352e-05 60.735 6.10352e-05 58.6292C6.10352e-05 56.5234 0.369495 54.5285 1.14531 52.6074C1.92112 50.6864 2.95553 48.987 4.32244 47.5092C5.6524 46.0315 7.27791 44.8493 9.12508 43.9996C10.9723 43.113 13.0041 42.7066 15.1838 42.7066C16.4768 42.7066 17.696 42.8544 18.8781 43.1869C20.0603 43.5194 21.0947 43.9627 22.1292 44.5538L23.2375 42.9652H28.6312V42.8544ZM5.09825 58.5923C5.09825 59.9592 5.28297 61.2522 5.68934 62.5452C6.09572 63.8382 6.64987 64.9835 7.38874 66.0179L19.5431 48.2851C18.2132 47.5462 16.7724 47.1768 15.1838 47.1768C13.5952 47.1768 12.1544 47.5092 10.9353 48.1742C9.71618 48.8392 8.64482 49.6889 7.79512 50.7603C6.94542 51.8316 6.28044 53.0508 5.83712 54.4177C5.3938 55.7846 5.13519 57.1884 5.13519 58.5923H5.09825ZM25.1216 58.5923C25.1216 57.2254 24.9369 55.9323 24.5305 54.6763C24.161 53.4202 23.57 52.2749 22.8311 51.2405L10.6767 69.0103C11.3417 69.3428 12.0067 69.6014 12.7455 69.7861C13.4844 69.9708 14.2602 70.0817 15.1099 70.0817C16.6985 70.0817 18.1023 69.7492 19.3584 69.0842C20.5775 68.4192 21.612 67.5326 22.4986 66.4612C23.3483 65.3529 24.0133 64.1338 24.4566 62.7669C24.8999 61.4 25.1216 60.0331 25.1216 58.5923Z" fill="#24352D"/>
<path d="M55.4891 74.33H50.6125V61.3259C50.6125 59.1462 50.2801 57.5577 49.5781 56.5602C48.8762 55.5627 47.8418 55.0825 46.5118 55.0825C45.8099 55.0825 45.108 55.2302 44.3691 55.4888C43.6672 55.7475 43.0022 56.1169 42.3742 56.6341C41.7461 57.1513 41.192 57.7055 40.7117 58.3704C40.2315 59.0354 39.862 59.7743 39.5665 60.5501V74.33H34.6899V51.1295H39.1231V55.7844C40.0098 54.2328 41.3028 52.9767 42.9653 52.0901C44.6647 51.2034 46.5118 50.7231 48.5437 50.7231C49.9476 50.7231 51.0559 50.9818 51.9425 51.462C52.8292 51.9792 53.5311 52.6442 54.0483 53.5308C54.5655 54.4175 54.9349 55.415 55.1196 56.5602C55.3413 57.7055 55.4152 58.8876 55.4152 60.1807V74.33H55.4891Z" fill="#24352D"/>
<path d="M69.6014 74.7733C67.7542 74.7733 65.8701 74.4778 64.0229 73.8497C62.1757 73.2217 60.5872 72.372 59.2572 71.2637L61.2152 68.1604C62.619 69.1579 63.986 69.9337 65.3529 70.4509C66.7198 70.9681 68.0867 71.2267 69.5275 71.2267C70.9683 71.2267 72.1135 70.9312 72.9632 70.377C73.8129 69.8229 74.2193 69.0101 74.2193 67.9757C74.2193 67.0152 73.739 66.2763 72.8154 65.833C71.8549 65.3897 70.3772 64.9094 68.3822 64.3553C66.9414 63.9858 65.6854 63.6164 64.6509 63.247C63.6165 62.8775 62.7668 62.4711 62.1388 61.9909C61.4738 61.5106 61.0305 60.9565 60.7349 60.3654C60.4394 59.7373 60.2916 58.9985 60.2916 58.1118C60.2916 56.9296 60.5133 55.8952 60.9935 54.9716C61.4738 54.0481 62.1018 53.2722 62.9146 52.6442C63.7274 52.0162 64.6879 51.5359 65.7592 51.2034C66.8675 50.8709 68.0497 50.7231 69.3058 50.7231C71.0421 50.7231 72.6677 50.9817 74.1823 51.5359C75.697 52.0531 77.027 52.8289 78.2092 53.8264L76.1403 56.7449C73.9976 55.0455 71.7071 54.1589 69.2689 54.1589C68.0128 54.1589 66.9784 54.4175 66.1287 54.9347C65.279 55.4519 64.8726 56.2647 64.8726 57.4099C64.8726 57.8902 64.9465 58.2965 65.1312 58.5921C65.3159 58.9246 65.6115 59.1832 65.9809 59.4418C66.3503 59.7004 66.9045 59.8851 67.5325 60.0698C68.1606 60.2545 68.9733 60.4762 69.8969 60.6979C71.4485 61.0673 72.8154 61.4737 73.9607 61.8431C75.1059 62.2125 76.0295 62.6928 76.7684 63.21C77.5072 63.7272 78.0614 64.3183 78.3939 65.0202C78.7633 65.7222 78.9111 66.5349 78.9111 67.5324C78.9111 69.749 78.0614 71.4853 76.3989 72.7784C74.7365 74.0714 72.446 74.6994 69.6014 74.6994V74.7733Z" fill="#24352D"/>
<path d="M99.304 74.3301L91.9153 63.6534L88.0732 67.2739V74.3301H83.1967V41.9677H88.0732V62.5082L98.7129 51.2035H104.033L95.0185 60.9196L104.513 74.367H99.3409L99.304 74.3301Z" fill="#24352D"/>
<path d="M116.778 74.7734C114.968 74.7734 113.342 74.4409 111.865 73.8129C110.387 73.1848 109.131 72.2982 108.059 71.2268C107.025 70.1185 106.212 68.8625 105.621 67.4217C105.03 65.9809 104.771 64.4293 104.771 62.8037C104.771 61.1782 105.067 59.6266 105.621 58.1858C106.212 56.7081 107.025 55.452 108.059 54.3437C109.094 53.2354 110.387 52.3488 111.865 51.7207C113.342 51.0927 115.005 50.7602 116.815 50.7602C118.625 50.7602 120.251 51.0927 121.728 51.7207C123.206 52.3857 124.425 53.2354 125.46 54.3068C126.494 55.3781 127.27 56.6342 127.824 58.075C128.378 59.5158 128.637 60.9935 128.637 62.5821C128.637 62.9515 128.637 63.284 128.6 63.5795C128.563 63.8751 128.526 64.1337 128.526 64.3554H109.943C110.017 65.3898 110.276 66.3134 110.682 67.1631C111.089 67.9758 111.606 68.7147 112.234 69.3058C112.862 69.8969 113.601 70.3771 114.414 70.7096C115.226 71.0421 116.076 71.1899 116.963 71.1899C117.628 71.1899 118.256 71.116 118.884 70.9313C119.512 70.7835 120.103 70.5249 120.62 70.2294C121.137 69.9338 121.618 69.5274 122.024 69.0841C122.43 68.6408 122.763 68.1605 122.985 67.6064L127.159 68.7886C126.346 70.5249 125.053 71.9657 123.206 73.074C121.359 74.1823 119.216 74.7365 116.741 74.7365L116.778 74.7734ZM123.797 60.9935C123.723 60.033 123.465 59.1094 123.058 58.2966C122.652 57.4839 122.135 56.782 121.544 56.1909C120.916 55.5998 120.214 55.1565 119.364 54.824C118.551 54.4915 117.665 54.3437 116.741 54.3437C115.817 54.3437 114.968 54.4915 114.155 54.824C113.342 55.1565 112.64 55.5998 112.012 56.1909C111.384 56.782 110.904 57.4839 110.498 58.2966C110.128 59.1094 109.87 60.033 109.796 60.9935H123.797Z" fill="#24352D"/>
<path d="M145.114 74.7734C143.341 74.7734 141.752 74.367 140.311 73.5173C138.87 72.6676 137.762 71.5593 136.912 70.1185V74.3301H132.627V41.9677H137.503V55.5259C138.427 54.0481 139.572 52.866 140.939 52.0163C142.306 51.1666 143.932 50.7232 145.779 50.7232C147.33 50.7232 148.734 51.0557 149.99 51.7207C151.246 52.3857 152.355 53.2723 153.241 54.3806C154.128 55.4889 154.83 56.782 155.31 58.2227C155.79 59.7005 156.049 61.2152 156.049 62.8037C156.049 64.3923 155.754 66.0178 155.199 67.4586C154.645 68.8994 153.869 70.1555 152.909 71.2638C151.948 72.3351 150.766 73.1848 149.436 73.8129C148.106 74.4409 146.665 74.7364 145.114 74.7364V74.7734ZM143.858 70.5988C144.929 70.5988 145.89 70.3771 146.776 69.9708C147.663 69.5274 148.439 68.9733 149.067 68.2714C149.695 67.5694 150.212 66.7567 150.545 65.7961C150.914 64.8726 151.062 63.8751 151.062 62.8407C151.062 61.8063 150.877 60.8088 150.545 59.8483C150.212 58.8877 149.732 58.038 149.141 57.3361C148.55 56.5972 147.811 56.0431 146.961 55.5998C146.111 55.1564 145.188 54.9348 144.19 54.9348C142.676 54.9348 141.346 55.4151 140.163 56.4125C138.981 57.3731 138.095 58.5552 137.467 59.9591V66.0917C137.651 66.7567 137.947 67.3847 138.39 67.9389C138.833 68.493 139.351 68.9733 139.942 69.3797C140.533 69.786 141.161 70.1185 141.863 70.3402C142.565 70.5618 143.193 70.6727 143.821 70.6727L143.858 70.5988Z" fill="#24352D"/>
<path d="M173.523 55.3413C171.639 55.4151 169.94 55.8215 168.499 56.6343C167.021 57.447 165.987 58.5923 165.359 60.107V74.2932H160.482V51.0928H164.989V56.2648C165.802 54.6763 166.836 53.3833 168.129 52.4227C169.422 51.4622 170.789 50.945 172.267 50.8342H173.006C173.191 50.8342 173.375 50.8342 173.523 50.8711V55.2674V55.3413Z" fill="#24352D"/>
<path d="M251.511 74.33H246.634V61.3259C246.634 59.1462 246.302 57.5577 245.6 56.5602C244.898 55.5627 243.863 55.0825 242.534 55.0825C241.832 55.0825 241.13 55.2302 240.391 55.4888C239.689 55.7475 239.024 56.1169 238.396 56.6341C237.768 57.1513 237.214 57.7055 236.733 58.3704C236.253 59.0354 235.884 59.7743 235.588 60.5501V74.33H230.712V51.1295H235.145V55.7844C236.031 54.2328 237.324 52.9767 238.987 52.0901C240.686 51.2034 242.534 50.7231 244.565 50.7231C245.969 50.7231 247.078 50.9818 247.964 51.462C248.851 51.9792 249.553 52.6442 250.07 53.5308C250.587 54.4175 250.957 55.415 251.141 56.5602C251.363 57.7055 251.437 58.8876 251.437 60.1807V74.33H251.511Z" fill="#24352D"/>
<path d="M266.658 74.7734C265.106 74.7734 263.628 74.4409 262.298 73.8129C260.968 73.1848 259.823 72.2982 258.826 71.2268C257.865 70.1185 257.089 68.8624 256.535 67.3847C255.981 65.907 255.722 64.3554 255.722 62.656C255.722 60.9566 255.981 59.5158 256.498 58.075C257.015 56.6342 257.754 55.3781 258.678 54.2698C259.601 53.1615 260.71 52.3118 261.966 51.6838C263.222 51.0557 264.589 50.7232 266.103 50.7232C267.951 50.7232 269.613 51.1666 271.017 52.0901C272.421 52.9768 273.529 54.122 274.342 55.5259V41.9677H279.218V68.5669C279.218 69.121 279.329 69.5274 279.514 69.7491C279.699 69.9707 280.068 70.1185 280.548 70.1555V74.3301C280.031 74.404 279.625 74.4778 279.329 74.5148C279.034 74.5517 278.775 74.5517 278.553 74.5517C277.593 74.5517 276.78 74.2931 276.152 73.8129C275.524 73.2957 275.191 72.6676 275.118 71.8549L275.044 70.1185C274.194 71.5593 273.012 72.7046 271.534 73.5173C270.056 74.3301 268.431 74.7734 266.621 74.7734H266.658ZM267.84 70.5988C268.542 70.5988 269.244 70.488 269.982 70.2294C270.721 69.9708 271.349 69.6752 271.94 69.2688C272.532 68.8624 273.049 68.3822 273.455 67.7911C273.898 67.2369 274.194 66.6089 274.379 65.9809V59.9221C274.12 59.1833 273.751 58.5183 273.233 57.8903C272.753 57.2622 272.199 56.745 271.571 56.3017C270.943 55.8584 270.278 55.5259 269.613 55.2673C268.911 55.0456 268.209 54.8978 267.507 54.8978C266.547 54.8978 265.623 55.1195 264.81 55.5628C263.998 56.0061 263.296 56.5972 262.705 57.3361C262.113 58.075 261.633 58.9247 261.301 59.8483C260.968 60.8088 260.784 61.7693 260.784 62.7668C260.784 63.8381 260.968 64.8356 261.338 65.7961C261.707 66.7567 262.224 67.5694 262.852 68.2714C263.517 68.9733 264.256 69.5274 265.106 69.9708C265.956 70.3771 266.842 70.5988 267.84 70.5988Z" fill="#24352D"/>
<path d="M295.954 74.7734C294.143 74.7734 292.518 74.4409 291.04 73.8129C289.562 73.1848 288.306 72.2982 287.235 71.2268C286.201 70.1185 285.388 68.8625 284.797 67.4217C284.206 65.9809 283.947 64.4293 283.947 62.8037C283.947 61.1782 284.243 59.6266 284.797 58.1858C285.388 56.7081 286.201 55.452 287.235 54.3437C288.269 53.2354 289.562 52.3488 291.04 51.7207C292.518 51.0927 294.18 50.7602 295.991 50.7602C297.801 50.7602 299.426 51.0927 300.904 51.7207C302.382 52.3857 303.601 53.2354 304.635 54.3068C305.67 55.3781 306.446 56.6342 307 58.075C307.554 59.5158 307.812 60.9935 307.812 62.5821C307.812 62.9515 307.812 63.284 307.776 63.5795C307.739 63.8751 307.702 64.1337 307.702 64.3554H289.119C289.193 65.3898 289.452 66.3134 289.858 67.1631C290.264 67.9758 290.782 68.7147 291.41 69.3058C292.038 69.8969 292.776 70.3771 293.589 70.7096C294.402 71.0421 295.252 71.1899 296.138 71.1899C296.803 71.1899 297.431 71.116 298.059 70.9313C298.687 70.7835 299.279 70.5249 299.796 70.2294C300.313 69.9338 300.793 69.5274 301.2 69.0841C301.606 68.6408 301.938 68.1605 302.16 67.6064L306.335 68.7886C305.522 70.5249 304.229 71.9657 302.382 73.074C300.535 74.1823 298.392 74.7365 295.917 74.7365L295.954 74.7734ZM303.01 60.9935C302.936 60.033 302.677 59.1094 302.271 58.2966C301.865 57.4839 301.347 56.782 300.756 56.1909C300.128 55.5998 299.426 55.1565 298.577 54.824C297.764 54.4915 296.877 54.3437 295.954 54.3437C295.03 54.3437 294.18 54.4915 293.368 54.824C292.555 55.1565 291.853 55.5998 291.225 56.1909C290.597 56.782 290.117 57.4839 289.71 58.2966C289.341 59.1094 289.082 60.033 289.008 60.9935H303.01Z" fill="#24352D"/>
<path d="M332.601 74.33H327.725V61.3259C327.725 59.1462 327.392 57.5577 326.691 56.5602C325.989 55.5627 324.954 55.0825 323.624 55.0825C322.922 55.0825 322.22 55.2302 321.482 55.4888C320.78 55.7475 320.115 56.1169 319.487 56.6341C318.859 57.1513 318.304 57.7055 317.824 58.3704C317.344 59.0354 316.974 59.7743 316.679 60.5501V74.33H311.802V51.1295H316.236V55.7844C317.122 54.2328 318.415 52.9767 320.078 52.0901C321.777 51.2034 323.624 50.7231 325.656 50.7231C327.06 50.7231 328.168 50.9818 329.055 51.462C329.942 51.9792 330.643 52.6442 331.161 53.5308C331.678 54.4175 332.047 55.415 332.232 56.5602C332.454 57.7055 332.528 58.8876 332.528 60.1807V74.33H332.601Z" fill="#24352D"/>
<path d="M197.943 62.693C197.278 62.4713 195.8 61.8433 195.024 61.2152C194.064 60.4394 192.106 57.5209 191.847 56.0432C191.626 54.9349 191.736 53.4571 191.699 52.4597C191.699 52.3858 191.699 52.3119 191.699 52.2749C191.699 52.3488 191.699 52.3858 191.699 52.4597C191.773 53.0508 192.29 53.9005 193.436 54.4915C195.098 55.3412 197.241 55.9693 197.795 56.8559C198.349 57.7426 197.647 55.7846 198.275 54.6393C198.903 53.4941 201.6 51.4622 202.524 51.1666C203.447 50.8711 203.891 50.28 203.337 51.7947C202.782 53.3094 203.041 53.9374 203.263 54.5285C203.484 55.1565 203.263 56.1171 202.672 56.5973C202.191 57.0037 201.194 57.7795 200.935 58.1489C201.563 57.7795 203.558 56.7451 205.073 56.9298C206.994 57.1884 209.469 57.2254 210.577 55.7107C211.464 54.4915 211.907 53.8266 211.981 53.6419C211.87 54.4177 211.649 55.7107 211.206 57.1145C210.799 58.2967 209.137 60.9566 207.954 61.9541C206.588 63.0624 204.667 63.6905 204.112 63.8013C202.967 63.986 200.012 63.0255 198.682 62.7299C198.645 63.2841 198.46 64.614 198.017 65.279C197.61 65.9071 197.019 67.5326 196.724 68.4192C196.871 68.2714 197.13 68.0498 197.684 67.6803C199.014 66.7937 199.975 65.8701 201.416 65.7593C202.856 65.6485 205.221 65.9071 205.775 65.6485C206.255 65.4268 206.625 65.1682 206.772 65.0574C206.218 65.944 204.962 67.7542 204.445 68.0867C203.78 68.4931 202.376 69.9708 201.231 70.1186C200.086 70.2664 198.201 70.4142 197.721 70.0078C197.315 69.6753 196.613 69.3797 196.28 69.2689C196.096 69.8231 195.763 71.0791 195.652 71.4855C195.542 71.8919 195.505 72.4091 195.505 72.5938L195.098 72.5199C195.357 71.5594 195.948 69.6014 195.985 69.3428C196.022 69.0103 196.354 68.3084 196.502 67.9759C196.613 67.6803 197.093 66.7568 197.167 66.5351C197.241 66.3134 197.943 64.9835 197.98 64.4293C197.98 63.8752 198.164 63.4319 198.054 63.2102C197.98 63.0255 198.017 62.7299 198.054 62.6191L197.943 62.693Z" fill="#24352D"/>
</svg>
