<svg width="191" height="191" viewBox="0 0 191 191" fill="none" xmlns="http://www.w3.org/2000/svg">
<circle cx="95.5" cy="95.5" r="95.5" fill="#24352D"/>
<rect x="82.3354" y="4" width="27.0614" height="27.0614" rx="9" fill="white"/>
<rect x="82.3354" y="160.386" width="27.0614" height="27.0614" rx="9" fill="white"/>
<rect x="4" y="82.0505" width="27.0614" height="27.0614" rx="9" fill="white"/>
<rect x="160.386" y="82.0505" width="27.0614" height="27.0614" rx="9" fill="white"/>
<rect x="107.118" y="160.334" width="27.0614" height="27.0614" rx="9" transform="rotate(-21.4989 107.118 160.334)" fill="white"/>
<rect width="27.0614" height="27.0614" rx="9" transform="matrix(0.930425 0.366483 0.366483 -0.930425 106.833 30.8877)" fill="white"/>
<rect x="31.1257" y="106.718" width="27.0614" height="27.0614" rx="9" transform="rotate(68.0746 31.1257 106.718)" fill="white"/>
<rect width="27.0614" height="27.0614" rx="9" transform="matrix(-0.3734 0.927671 0.927671 0.3734 160.236 106.718)" fill="white"/>
<rect width="27.0614" height="27.0614" rx="9" transform="matrix(-0.930425 -0.366483 -0.366483 0.930425 84.958 160.334)" fill="white"/>
<rect x="84.6731" y="30.8877" width="27.0614" height="27.0614" rx="9" transform="rotate(158.501 84.6731 30.8877)" fill="white"/>
<rect width="27.0614" height="27.0614" rx="9" transform="matrix(0.359545 -0.933128 -0.933128 -0.359545 30.9609 84.5586)" fill="white"/>
<rect x="160.401" y="84.5586" width="27.0614" height="27.0614" rx="9" transform="rotate(-111.072 160.401 84.5586)" fill="white"/>
<rect x="151.283" y="59.6436" width="27.0614" height="27.0614" rx="9" transform="rotate(-135.746 151.283 59.6436)" fill="white"/>
<rect x="151.383" y="59.2673" width="27.0614" height="27.0614" rx="9" transform="rotate(-135.746 151.383 59.2673)" fill="white"/>
<rect x="151.283" y="169.883" width="27.0614" height="27.0614" rx="9" transform="rotate(-135.746 151.283 169.883)" fill="white"/>
<rect width="27.0614" height="27.0614" rx="9" transform="matrix(-0.716254 0.69784 0.69784 0.716254 40.759 21.6611)" fill="white"/>
<rect width="27.0614" height="27.0614" rx="9" transform="matrix(-0.716254 0.69784 0.69784 0.716254 40.759 131.9)" fill="white"/>
<path d="M86.2738 102.703C83.7756 101.804 78.0428 99.4208 75.0976 97.0757C71.4161 94.1443 63.8972 82.7998 62.8506 77.1962C62.0662 72.9964 62.4479 67.2615 62.3029 63.4508C62.2677 63.1864 62.2558 62.9374 62.2659 62.7074C62.2809 62.9457 62.2931 63.1939 62.3029 63.4508C62.5986 65.6709 64.5407 68.9764 68.9646 71.2093C75.3226 74.4186 83.6163 76.8579 85.7113 80.3302C87.8063 83.8025 85.0747 76.148 87.4888 71.7771C89.9028 67.4063 100.351 59.5869 103.842 58.397C107.332 57.2071 109.143 55.0287 106.991 60.8004C104.838 66.5721 105.868 68.9881 106.75 71.3841C107.631 73.7801 106.675 77.4407 104.44 79.4093C102.651 80.9842 98.8197 83.9979 97.7317 85.3149C100.154 83.8268 107.854 79.8774 113.643 80.671C121.013 81.6814 130.581 81.7797 134.852 75.9951C138.269 71.3675 139.922 68.8032 140.321 68.0996C139.962 71.0839 139.07 76.1183 137.276 81.4843C135.738 86.084 129.343 96.322 124.744 100.09C119.463 104.415 112.022 106.839 110.01 107.17C105.633 107.89 94.2355 104.199 89.0943 103.09C88.9434 105.293 88.2212 110.341 86.5393 112.901C84.9762 115.281 82.7012 121.519 81.5506 124.952C82.0571 124.414 83.1502 123.528 85.274 122.131C90.4268 118.743 94.0953 115.15 99.6026 114.692C105.11 114.234 114.186 115.326 116.447 114.271C118.257 113.427 119.723 112.445 120.229 112.06C118.057 115.402 113.214 122.412 111.22 123.717C108.728 125.347 103.269 130.968 98.8012 131.569C94.333 132.17 87.152 132.702 85.2574 131.077C83.7418 129.778 80.9568 128.617 79.7537 128.2C79.1012 130.385 77.7134 135.139 77.3824 136.671C77.0514 138.203 76.8499 140.188 76.7906 140.989L75.1577 140.765C76.2122 137.118 78.358 129.555 78.5049 128.483C78.6886 127.144 79.9671 124.437 80.4272 123.287C80.8874 122.137 82.7336 118.598 83.0045 117.725C83.2754 116.852 85.94 111.757 86.0773 109.653C86.2145 107.548 86.7563 105.802 86.413 104.997C86.1384 104.353 86.2058 103.199 86.2738 102.703Z" fill="white"/>
</svg>
