<svg width="38" height="43" viewBox="0 0 38 43" fill="none" xmlns="http://www.w3.org/2000/svg">
<path d="M11.8684 42.4694C11.8684 41.5826 12.2988 37.9694 12.9393 35.4217C13.5063 33.1664 14.3887 30.5705 14.7496 28.8478C14.9368 27.9542 14.9091 26.3678 14.7524 24.7164C14.573 22.8247 11.21 22.8202 9.58126 22.048C7.03876 20.8425 4.40935 17.5275 3.02264 15.5116C1.64438 13.508 0.719226 10.4064 0.50087 6.48091C0.470053 5.92691 1.58174 8.19604 2.86787 9.26009C4.13354 10.3072 5.8074 10.0858 7.36261 10.3542C8.70082 10.5851 10.1137 11.0943 11.4051 11.8607C12.6771 12.6156 13.3647 14.1987 14.1243 15.9164C14.9179 17.711 14.8002 20.1965 14.8282 22.2531C14.8382 22.9843 15.6345 20.0465 16.2637 18.3386C16.9541 16.4646 18.4812 15.2396 19.6354 14.0449C20.7876 12.8525 22.1839 12.4126 23.4222 11.9703C26.6432 10.82 32.7949 10.8732 35.7205 7.37871C36.5235 6.41955 36.7925 5.03115 37.1799 3.92002C37.7484 2.28955 36.499 9.16034 35.9487 11.0536C35.2363 13.5045 33.3351 17.0535 32.1985 18.9156C30.9274 20.9978 28.9903 21.9719 26.798 23.2895C23.1901 25.4579 16.7998 23.5209 15.4928 23.1576C15.1899 23.0734 15.0035 22.714 15.0496 22.566C15.4783 21.1892 17.6942 21.2338 19.1461 20.4212C20.6062 19.6039 22.0801 18.6404 23.2469 18.017C23.9031 17.7352 24.5379 17.4503 25.0568 17.0586C25.2952 16.8148 25.483 16.4793 26.1718 15.6548" stroke="#24352D" stroke-linecap="round"/>
<path d="M14.9669 22.7414C14.9453 22.7414 14.5787 22.6537 13.8832 22.3174C12.35 21.5762 12.0044 19.2905 11.2186 17.8226C10.4983 16.477 9.21927 15.4118 7.76388 14.437C7.42126 14.2375 7.12737 14.0934 6.82743 13.9654C6.52749 13.8375 6.2304 13.73 5.76074 13.5353" stroke="#24352D" stroke-linecap="round"/>
<path d="M15.2379 18.5675C15.2379 18.1639 14.9063 16.8221 13.1702 14.0922C12.5467 13.1118 12.5334 11.0523 12.7504 9.08478C12.811 8.53582 13.2427 7.88616 13.9999 6.74122C14.4739 6.02432 15.2471 5.11213 15.9656 4.30246C17.3071 2.79068 18.495 1.81412 19.2418 1.2638C20.0086 0.698768 20.7665 0.521369 20.9355 0.501091C21.5371 0.428915 20.502 3.7658 20.5502 5.29428C20.5845 6.38324 21.3279 7.08846 21.7103 7.71645C22.0261 8.23493 22.007 8.9351 21.8648 9.64221C21.7813 10.0578 21.1173 11.0294 19.9933 12.613C18.7691 14.3378 17.3353 15.5634 16.4468 16.3937C15.6478 17.1404 15.5257 17.636 15.5272 17.8766C15.5288 18.1155 15.6387 16.0579 15.6329 12.7242C15.9376 10.8353 16.5447 9.65492 16.9027 9.1225C16.9938 9.00481 17.0785 8.92114 17.3004 8.74668" stroke="#24352D" stroke-linecap="round"/>
<path d="M21.1939 38.8659C21.1765 38.5141 21.2465 37.5911 21.5688 37.0267C22.1537 36.0024 23.5679 34.8599 24.9324 34.0524C27.0333 32.8092 28.893 32.2165 29.6204 31.9908C30.5319 31.7079 31.3877 31.5884 32.2849 31.4941C34.98 31.211 36.5483 30.4003 37.2435 29.9203C37.3547 29.8435 37.4316 29.7463 37.4306 29.7468C37.3157 29.8033 36.895 30.6199 35.9835 32.2492C35.4502 33.2026 34.6607 34.3476 33.8799 35.311C33.099 36.2744 32.322 37.0047 31.59 37.6511C30.217 38.8634 29.0351 39.6038 28.0616 39.9842C26.2962 40.6742 24.924 40.5123 24.0889 40.5556C23.0316 40.6105 22.385 40.2018 21.8854 39.7786C21.4739 39.43 20.9458 39.0443 20.4091 38.8704C20.2874 38.831 20.1632 38.824 20.1692 38.8328C20.9128 39.928 24.082 38.8198 24.9133 38.5184C25.7567 38.2126 26.4991 37.2251 26.9767 36.6346C27.3712 36.1466 28.1367 35.281 28.7289 34.7666C28.8411 34.6959 28.9644 34.6376 29.1528 34.5747C29.3413 34.5118 29.5911 34.4459 30.0322 34.3763" stroke="#24352D" stroke-linecap="round"/>
</svg>
