<svg width="46" height="46" viewBox="0 0 46 46" fill="none" xmlns="http://www.w3.org/2000/svg">
<circle cx="23" cy="23" r="21.5" stroke="#24352D" stroke-width="3"/>
<path d="M28.3773 10H22.7632C22.3985 10 22.0488 10.1449 21.7909 10.4027C21.533 10.6606 21.3882 11.0103 21.3882 11.375V27.1875C21.3883 27.5301 21.3032 27.8673 21.1404 28.1687C20.9775 28.4702 20.7422 28.7263 20.4556 28.914C20.169 29.1017 19.8402 29.215 19.4988 29.2437C19.1574 29.2725 18.8142 29.2158 18.5003 29.0787C18.1863 28.9416 17.9115 28.7284 17.7005 28.4585C17.4896 28.1885 17.3492 27.8703 17.2921 27.5325C17.2349 27.1947 17.2628 26.848 17.3733 26.5237C17.4837 26.1994 17.6731 25.9077 17.9245 25.675L18.0895 25.5375C18.2601 25.4093 18.3984 25.2431 18.4936 25.0522C18.5888 24.8613 18.6383 24.6508 18.6382 24.4375V18.4892C18.6383 18.2817 18.5915 18.0768 18.5012 17.8899C18.4109 17.703 18.2795 17.539 18.1168 17.4102C17.9541 17.2813 17.7643 17.191 17.5617 17.1459C17.3591 17.1009 17.1489 17.1023 16.9469 17.15C14.4844 17.7304 12.3211 19.1957 10.8687 21.2672C9.41628 23.3388 8.77603 25.8719 9.06976 28.3848C9.3635 30.8977 10.5707 33.2149 12.4618 34.8956C14.3528 36.5763 16.7957 37.5032 19.3257 37.5L19.6598 37.4931C22.3353 37.4064 24.8723 36.2827 26.7344 34.3595C28.5965 32.4363 29.6378 29.8644 29.6382 27.1875V23.475L30.0658 23.6854C31.6085 24.4141 33.2737 24.8789 35.002 25.0508C35.1933 25.0698 35.3863 25.0485 35.5688 24.9883C35.7513 24.9281 35.9191 24.8304 36.0615 24.7013C36.2039 24.5723 36.3177 24.4149 36.3955 24.2392C36.4732 24.0635 36.5133 23.8734 36.5132 23.6812V18.1359C36.5131 17.8108 36.3979 17.4963 36.188 17.2481C35.9781 16.9999 35.687 16.8341 35.3664 16.7801C33.9594 16.5414 32.6613 15.8711 31.652 14.862C30.6427 13.853 29.9721 12.5551 29.733 11.1481C29.6794 10.8273 29.5137 10.5359 29.2655 10.3257C29.0173 10.1155 28.7026 10.0001 28.3773 10Z" fill="#24352D"/>
</svg>
