<svg width="236" height="70" viewBox="0 0 236 70" fill="none" xmlns="http://www.w3.org/2000/svg">
<path d="M19.1621 68.0503C19.1621 66.6336 19.8498 60.8612 20.873 56.791C21.7789 53.1878 23.1886 49.0408 23.7651 46.2885C24.0642 44.8609 24.02 42.3265 23.7697 39.6883C23.483 36.6662 18.1104 36.6589 15.5083 35.4252C11.4464 33.4993 7.24565 28.2033 5.03025 24.9827C2.82834 21.7818 1.35033 16.8267 1.00149 10.5554C0.952256 9.67031 2.72828 13.2955 4.78299 14.9954C6.80501 16.6682 9.47916 16.3145 11.9638 16.7432C14.1017 17.1122 16.3588 17.9257 18.4219 19.1501C20.4541 20.3562 21.5526 22.8852 22.7661 25.6295C24.034 28.4965 23.846 32.4673 23.8908 35.7529C23.9067 36.921 25.1789 32.2277 26.1841 29.4991C27.287 26.5052 29.7267 24.5481 31.5708 22.6395C33.4113 20.7345 35.6421 20.0318 37.6205 19.3252C42.7663 17.4875 52.5941 17.5724 57.2681 11.9897C58.551 10.4573 58.9807 8.23925 59.5996 6.46412C60.5079 3.85929 58.5119 14.836 57.6327 17.8606C56.4945 21.7763 53.4572 27.4461 51.6413 30.4209C49.6107 33.7475 46.516 35.3037 43.0137 37.4087C37.2497 40.8729 27.0405 37.7784 24.9525 37.198C24.4686 37.0635 24.1708 36.4893 24.2444 36.2528C24.9294 34.0532 28.4694 34.1244 30.7889 32.8262C33.1216 31.5206 35.4763 29.9813 37.3404 28.9854C38.3887 28.5351 39.4029 28.0799 40.2319 27.4543C40.6127 27.0647 40.9128 26.5287 42.0131 25.2115" stroke="#24352D" stroke-width="2" stroke-linecap="round"/>
<path d="M24.1125 36.5329C24.078 36.5329 23.4923 36.3927 22.3812 35.8555C19.9318 34.6713 19.3796 31.0197 18.1243 28.6746C16.9735 26.5249 14.9301 24.8231 12.605 23.2658C12.0576 22.9471 11.5881 22.7169 11.1089 22.5124C10.6297 22.3079 10.1551 22.1362 9.40479 21.8252" stroke="#24352D" stroke-width="2" stroke-linecap="round"/>
<path d="M24.5453 29.8647C24.5453 29.2198 24.0154 27.0762 21.2419 22.7149C20.2458 21.1486 20.2245 17.8584 20.5713 14.7151C20.668 13.8381 21.3578 12.8002 22.5674 10.971C23.3247 9.82571 24.5599 8.36841 25.7077 7.07488C27.8509 4.65967 29.7488 3.09952 30.9418 2.22034C32.1668 1.31765 33.3776 1.03424 33.6476 1.00184C34.6088 0.886533 32.9551 6.21751 33.0321 8.6594C33.0869 10.3991 34.2746 11.5258 34.8855 12.529C35.39 13.3574 35.3596 14.476 35.1324 15.6056C34.9989 16.2696 33.9382 17.8218 32.1424 20.3518C30.1867 23.1072 27.896 25.0652 26.4766 26.3917C25.2 27.5847 25.0051 28.3764 25.0075 28.7609C25.0099 29.1425 25.1856 25.8552 25.1763 20.5294C25.663 17.5117 26.633 15.6259 27.2049 14.7753C27.3504 14.5873 27.4857 14.4537 27.8402 14.1749" stroke="#24352D" stroke-width="2" stroke-linecap="round"/>
<path d="M34.0608 62.2933C34.0331 61.7312 34.1449 60.2566 34.6598 59.3549C35.5942 57.7186 37.8535 55.8933 40.0335 54.6033C43.3898 52.6172 46.3609 51.6703 47.523 51.3096C48.9791 50.8577 50.3463 50.6667 51.7797 50.5161C56.0854 50.0638 58.5908 48.7687 59.7015 48.0019C59.8792 47.8792 60.0021 47.7238 60.0005 47.7246C59.8169 47.815 59.1448 49.1195 57.6886 51.7225C56.8366 53.2456 55.5753 55.0749 54.3278 56.614C53.0803 58.153 51.8389 59.3199 50.6695 60.3525C48.4761 62.2893 46.5878 63.4722 45.0326 64.0799C42.2121 65.1821 40.0199 64.9235 38.6859 64.9928C36.9966 65.0805 35.9636 64.4275 35.1656 63.7514C34.5081 63.1945 33.6645 62.5783 32.807 62.3005C32.6125 62.2376 32.4141 62.2263 32.4237 62.2403C33.6117 63.9901 38.6748 62.2196 40.0029 61.7381C41.3502 61.2496 42.5364 59.672 43.2993 58.7285C43.9296 57.949 45.1525 56.566 46.0986 55.7442C46.2779 55.6313 46.4749 55.5382 46.776 55.4377C47.077 55.3372 47.4761 55.232 48.1808 55.1207" stroke="#24352D" stroke-width="2" stroke-linecap="round"/>
<path d="M80.4485 30.32L80.1125 32.208H80.6725V34.192H78.9445V32.192L79.4725 30.32H80.4485ZM83.0405 30.32L82.7045 32.208H83.2645V34.192H81.5365V32.192L82.0645 30.32H83.0405ZM93.26 40.416V42H85.468V30.64H93.116V32.224H87.26V35.456H92.332V36.944H87.26V40.416H93.26ZM102.326 42H100.566V37.312C100.566 36.5333 100.438 35.9627 100.182 35.6C99.9368 35.2373 99.5688 35.056 99.0781 35.056C98.7368 35.056 98.3954 35.1413 98.0541 35.312C97.7234 35.4827 97.4248 35.7173 97.1581 36.016C96.8914 36.304 96.6994 36.64 96.5821 37.024V42H94.8221V33.632H96.4221V35.312C96.6354 34.9387 96.9128 34.6187 97.2541 34.352C97.6061 34.0747 98.0008 33.8613 98.4381 33.712C98.8754 33.5627 99.3394 33.488 99.8301 33.488C100.331 33.488 100.742 33.5787 101.062 33.76C101.393 33.9413 101.649 34.192 101.83 34.512C102.022 34.8213 102.15 35.184 102.214 35.6C102.289 36.0053 102.326 36.4373 102.326 36.896V42ZM112.082 42.16C111.421 42.16 110.829 42.048 110.306 41.824C109.783 41.5893 109.33 41.2693 108.946 40.864C108.573 40.4587 108.285 39.9947 108.082 39.472C107.879 38.9493 107.778 38.4 107.778 37.824C107.778 37.248 107.879 36.6987 108.082 36.176C108.285 35.6427 108.573 35.1787 108.946 34.784C109.33 34.3787 109.783 34.064 110.306 33.84C110.839 33.6053 111.431 33.488 112.082 33.488C112.733 33.488 113.319 33.6053 113.842 33.84C114.375 34.064 114.829 34.3787 115.202 34.784C115.586 35.1787 115.879 35.6427 116.082 36.176C116.285 36.6987 116.386 37.248 116.386 37.824C116.386 38.4 116.285 38.9493 116.082 39.472C115.879 39.9947 115.586 40.4587 115.202 40.864C114.829 41.2693 114.375 41.5893 113.842 41.824C113.319 42.048 112.733 42.16 112.082 42.16ZM112.082 40.656C112.541 40.656 112.957 40.5333 113.33 40.288C113.714 40.032 114.018 39.6907 114.242 39.264C114.466 38.8267 114.578 38.3467 114.578 37.824C114.578 37.2907 114.466 36.8107 114.242 36.384C114.018 35.9573 113.714 35.6213 113.33 35.376C112.957 35.12 112.541 34.992 112.082 34.992C111.613 34.992 111.191 35.12 110.818 35.376C110.445 35.6213 110.146 35.9573 109.922 36.384C109.698 36.8107 109.586 37.296 109.586 37.84C109.586 38.3733 109.698 38.8533 109.922 39.28C110.146 39.7067 110.445 40.0427 110.818 40.288C111.191 40.5333 111.613 40.656 112.082 40.656ZM108.13 42.048L109.57 40.272L110.418 40.832L109.41 42.048H108.13ZM110.562 40.688L109.794 40.192L113.618 34.848L114.498 35.264L110.562 40.688ZM114.722 35.152L113.762 34.72L114.674 33.584H115.986L114.722 35.152ZM122.651 35.152C121.968 35.1627 121.36 35.3173 120.827 35.616C120.304 35.9147 119.931 36.336 119.707 36.88V42H117.947V33.632H119.579V35.504C119.867 34.928 120.246 34.4693 120.715 34.128C121.184 33.776 121.68 33.584 122.203 33.552C122.31 33.552 122.395 33.552 122.459 33.552C122.534 33.552 122.598 33.5573 122.651 33.568V35.152ZM127.567 42.16C126.917 42.16 126.325 42.048 125.791 41.824C125.269 41.5893 124.815 41.2747 124.431 40.88C124.047 40.4747 123.749 40.016 123.535 39.504C123.333 38.9813 123.231 38.4267 123.231 37.84C123.231 37.0507 123.413 36.3307 123.775 35.68C124.138 35.0187 124.645 34.4907 125.295 34.096C125.946 33.6907 126.709 33.488 127.583 33.488C128.458 33.488 129.21 33.6907 129.839 34.096C130.479 34.4907 130.975 35.0133 131.327 35.664C131.679 36.3147 131.855 37.0133 131.855 37.76C131.855 37.888 131.85 38.0107 131.839 38.128C131.829 38.2347 131.818 38.3253 131.807 38.4H125.103C125.135 38.8907 125.269 39.3227 125.503 39.696C125.749 40.0587 126.058 40.3467 126.431 40.56C126.805 40.7627 127.205 40.864 127.631 40.864C128.101 40.864 128.543 40.7467 128.959 40.512C129.386 40.2773 129.674 39.968 129.823 39.584L131.327 40.016C131.146 40.4213 130.869 40.7893 130.495 41.12C130.133 41.44 129.701 41.696 129.199 41.888C128.698 42.0693 128.154 42.16 127.567 42.16ZM125.055 37.232H130.111C130.079 36.752 129.941 36.3307 129.695 35.968C129.461 35.5947 129.157 35.3067 128.783 35.104C128.421 34.8907 128.015 34.784 127.567 34.784C127.13 34.784 126.725 34.8907 126.351 35.104C125.989 35.3067 125.69 35.5947 125.455 35.968C125.221 36.3307 125.087 36.752 125.055 37.232ZM137.244 42V33.632H139.004V42H137.244ZM137.244 32.256V30.32H139.004V32.256H137.244ZM149.584 42.16C148.944 42.16 148.363 42.0107 147.84 41.712C147.328 41.4027 146.923 40.992 146.624 40.48V42H145.072V30.32H146.832V35.216C147.163 34.6827 147.573 34.2613 148.064 33.952C148.565 33.6427 149.152 33.488 149.824 33.488C150.379 33.488 150.885 33.6053 151.344 33.84C151.803 34.0747 152.192 34.3947 152.512 34.8C152.843 35.2053 153.093 35.6693 153.264 36.192C153.445 36.7147 153.536 37.2693 153.536 37.856C153.536 38.4427 153.435 38.9973 153.232 39.52C153.04 40.0427 152.763 40.5013 152.4 40.896C152.037 41.2907 151.616 41.6 151.136 41.824C150.667 42.048 150.149 42.16 149.584 42.16ZM149.12 40.656C149.504 40.656 149.856 40.5813 150.176 40.432C150.496 40.272 150.773 40.064 151.008 39.808C151.243 39.552 151.419 39.2533 151.536 38.912C151.664 38.5707 151.728 38.2187 151.728 37.856C151.728 37.3547 151.621 36.8853 151.408 36.448C151.205 36.0107 150.917 35.6587 150.544 35.392C150.171 35.1253 149.739 34.992 149.248 34.992C148.896 34.992 148.565 35.0773 148.256 35.248C147.947 35.408 147.669 35.6267 147.424 35.904C147.189 36.1707 146.992 36.4693 146.832 36.8V39.008C146.896 39.2533 147.008 39.4773 147.168 39.68C147.328 39.872 147.515 40.0427 147.728 40.192C147.941 40.3307 148.171 40.4427 148.416 40.528C148.661 40.6133 148.896 40.656 149.12 40.656ZM159.823 35.152C159.14 35.1627 158.532 35.3173 157.999 35.616C157.476 35.9147 157.103 36.336 156.879 36.88V42H155.119V33.632H156.751V35.504C157.039 34.928 157.418 34.4693 157.887 34.128C158.356 33.776 158.852 33.584 159.375 33.552C159.482 33.552 159.567 33.552 159.631 33.552C159.706 33.552 159.77 33.5573 159.823 33.568V35.152ZM164.707 42.16C164.046 42.16 163.454 42.048 162.931 41.824C162.408 41.5893 161.955 41.2693 161.571 40.864C161.198 40.4587 160.91 39.9947 160.707 39.472C160.504 38.9493 160.403 38.4 160.403 37.824C160.403 37.248 160.504 36.6987 160.707 36.176C160.91 35.6427 161.198 35.1787 161.571 34.784C161.955 34.3787 162.408 34.064 162.931 33.84C163.464 33.6053 164.056 33.488 164.707 33.488C165.358 33.488 165.944 33.6053 166.467 33.84C167 34.064 167.454 34.3787 167.827 34.784C168.211 35.1787 168.504 35.6427 168.707 36.176C168.91 36.6987 169.011 37.248 169.011 37.824C169.011 38.4 168.91 38.9493 168.707 39.472C168.504 39.9947 168.211 40.4587 167.827 40.864C167.454 41.2693 167 41.5893 166.467 41.824C165.944 42.048 165.358 42.16 164.707 42.16ZM164.707 40.656C165.166 40.656 165.582 40.5333 165.955 40.288C166.339 40.032 166.643 39.6907 166.867 39.264C167.091 38.8267 167.203 38.3467 167.203 37.824C167.203 37.2907 167.091 36.8107 166.867 36.384C166.643 35.9573 166.339 35.6213 165.955 35.376C165.582 35.12 165.166 34.992 164.707 34.992C164.238 34.992 163.816 35.12 163.443 35.376C163.07 35.6213 162.771 35.9573 162.547 36.384C162.323 36.8107 162.211 37.296 162.211 37.84C162.211 38.3733 162.323 38.8533 162.547 39.28C162.771 39.7067 163.07 40.0427 163.443 40.288C163.816 40.5333 164.238 40.656 164.707 40.656ZM160.755 42.048L162.195 40.272L163.043 40.832L162.035 42.048H160.755ZM163.187 40.688L162.419 40.192L166.243 34.848L167.123 35.264L163.187 40.688ZM167.347 35.152L166.387 34.72L167.299 33.584H168.611L167.347 35.152ZM178.076 42H176.316V37.312C176.316 36.5333 176.188 35.9627 175.932 35.6C175.687 35.2373 175.319 35.056 174.828 35.056C174.487 35.056 174.145 35.1413 173.804 35.312C173.473 35.4827 173.175 35.7173 172.908 36.016C172.641 36.304 172.449 36.64 172.332 37.024V42H170.572V33.632H172.172V35.312C172.385 34.9387 172.663 34.6187 173.004 34.352C173.356 34.0747 173.751 33.8613 174.188 33.712C174.625 33.5627 175.089 33.488 175.58 33.488C176.081 33.488 176.492 33.5787 176.812 33.76C177.143 33.9413 177.399 34.192 177.58 34.512C177.772 34.8213 177.9 35.184 177.964 35.6C178.039 36.0053 178.076 36.4373 178.076 36.896V42ZM179.591 37.824C179.591 37.024 179.751 36.2987 180.071 35.648C180.402 34.9867 180.85 34.464 181.415 34.08C181.98 33.6853 182.631 33.488 183.367 33.488C184.007 33.488 184.583 33.6533 185.095 33.984C185.618 34.3147 186.023 34.7253 186.311 35.216V30.32H188.071V40.016C188.071 40.2187 188.108 40.3627 188.183 40.448C188.258 40.5333 188.38 40.5813 188.551 40.592V42C188.22 42.0533 187.964 42.08 187.783 42.08C187.452 42.08 187.17 41.984 186.935 41.792C186.711 41.6 186.594 41.3707 186.583 41.104L186.567 40.48C186.247 41.0133 185.815 41.4293 185.271 41.728C184.727 42.016 184.162 42.16 183.575 42.16C182.999 42.16 182.466 42.048 181.975 41.824C181.495 41.6 181.074 41.2853 180.711 40.88C180.359 40.4747 180.082 40.0107 179.879 39.488C179.687 38.9653 179.591 38.4107 179.591 37.824ZM186.311 38.992V36.8C186.194 36.4587 186.002 36.1547 185.735 35.888C185.479 35.6107 185.186 35.392 184.855 35.232C184.535 35.072 184.215 34.992 183.895 34.992C183.522 34.992 183.18 35.072 182.871 35.232C182.572 35.392 182.311 35.6053 182.087 35.872C181.874 36.1387 181.708 36.4427 181.591 36.784C181.474 37.1253 181.415 37.4827 181.415 37.856C181.415 38.24 181.479 38.6027 181.607 38.944C181.735 39.2747 181.916 39.5733 182.151 39.84C182.396 40.096 182.674 40.2987 182.983 40.448C183.303 40.5867 183.65 40.656 184.023 40.656C184.258 40.656 184.492 40.6133 184.727 40.528C184.972 40.4427 185.202 40.3253 185.415 40.176C185.639 40.0267 185.826 39.8507 185.975 39.648C186.135 39.4453 186.247 39.2267 186.311 38.992ZM194.098 42.16C193.448 42.16 192.856 42.048 192.322 41.824C191.8 41.5893 191.346 41.2747 190.962 40.88C190.578 40.4747 190.28 40.016 190.066 39.504C189.864 38.9813 189.762 38.4267 189.762 37.84C189.762 37.0507 189.944 36.3307 190.306 35.68C190.669 35.0187 191.176 34.4907 191.826 34.096C192.477 33.6907 193.24 33.488 194.114 33.488C194.989 33.488 195.741 33.6907 196.37 34.096C197.01 34.4907 197.506 35.0133 197.858 35.664C198.21 36.3147 198.386 37.0133 198.386 37.76C198.386 37.888 198.381 38.0107 198.37 38.128C198.36 38.2347 198.349 38.3253 198.338 38.4H191.634C191.666 38.8907 191.8 39.3227 192.034 39.696C192.28 40.0587 192.589 40.3467 192.962 40.56C193.336 40.7627 193.736 40.864 194.162 40.864C194.632 40.864 195.074 40.7467 195.49 40.512C195.917 40.2773 196.205 39.968 196.354 39.584L197.858 40.016C197.677 40.4213 197.4 40.7893 197.026 41.12C196.664 41.44 196.232 41.696 195.73 41.888C195.229 42.0693 194.685 42.16 194.098 42.16ZM191.586 37.232H196.642C196.61 36.752 196.472 36.3307 196.226 35.968C195.992 35.5947 195.688 35.3067 195.314 35.104C194.952 34.8907 194.546 34.784 194.098 34.784C193.661 34.784 193.256 34.8907 192.882 35.104C192.52 35.3067 192.221 35.5947 191.986 35.968C191.752 36.3307 191.618 36.752 191.586 37.232ZM207.326 42H205.566V37.312C205.566 36.5333 205.438 35.9627 205.182 35.6C204.937 35.2373 204.569 35.056 204.078 35.056C203.737 35.056 203.395 35.1413 203.054 35.312C202.723 35.4827 202.425 35.7173 202.158 36.016C201.891 36.304 201.699 36.64 201.582 37.024V42H199.822V33.632H201.422V35.312C201.635 34.9387 201.913 34.6187 202.254 34.352C202.606 34.0747 203.001 33.8613 203.438 33.712C203.875 33.5627 204.339 33.488 204.83 33.488C205.331 33.488 205.742 33.5787 206.062 33.76C206.393 33.9413 206.649 34.192 206.83 34.512C207.022 34.8213 207.15 35.184 207.214 35.6C207.289 36.0053 207.326 36.4373 207.326 36.896V42ZM213.242 38.416V36.832H220.762V38.416H213.242ZM82.8485 61.16C82.1978 61.16 81.6058 61.048 81.0725 60.824C80.5498 60.5893 80.0965 60.2747 79.7125 59.88C79.3285 59.4747 79.0298 59.016 78.8165 58.504C78.6138 57.9813 78.5125 57.4267 78.5125 56.84C78.5125 56.0507 78.6938 55.3307 79.0565 54.68C79.4192 54.0187 79.9258 53.4907 80.5765 53.096C81.2272 52.6907 81.9898 52.488 82.8645 52.488C83.7392 52.488 84.4912 52.6907 85.1205 53.096C85.7605 53.4907 86.2565 54.0133 86.6085 54.664C86.9605 55.3147 87.1365 56.0133 87.1365 56.76C87.1365 56.888 87.1312 57.0107 87.1205 57.128C87.1098 57.2347 87.0992 57.3253 87.0885 57.4H80.3845C80.4165 57.8907 80.5498 58.3227 80.7845 58.696C81.0298 59.0587 81.3392 59.3467 81.7125 59.56C82.0858 59.7627 82.4858 59.864 82.9125 59.864C83.3818 59.864 83.8245 59.7467 84.2405 59.512C84.6672 59.2773 84.9552 58.968 85.1045 58.584L86.6085 59.016C86.4272 59.4213 86.1498 59.7893 85.7765 60.12C85.4138 60.44 84.9818 60.696 84.4805 60.888C83.9792 61.0693 83.4352 61.16 82.8485 61.16ZM80.3365 56.232H85.3925C85.3605 55.752 85.2218 55.3307 84.9765 54.968C84.7418 54.5947 84.4378 54.3067 84.0645 54.104C83.7018 53.8907 83.2965 53.784 82.8485 53.784C82.4112 53.784 82.0058 53.8907 81.6325 54.104C81.2698 54.3067 80.9712 54.5947 80.7365 54.968C80.5018 55.3307 80.3685 55.752 80.3365 56.232ZM93.15 60.568C93.0007 60.6427 92.814 60.7227 92.59 60.808C92.366 60.8933 92.11 60.968 91.822 61.032C91.5447 61.096 91.2567 61.128 90.958 61.128C90.5953 61.128 90.2593 61.064 89.95 60.936C89.6407 60.808 89.39 60.6053 89.198 60.328C89.0167 60.04 88.926 59.672 88.926 59.224V53.992H87.822V52.632H88.926V49.88H90.686V52.632H92.51V53.992H90.686V58.664C90.7073 58.952 90.798 59.1653 90.958 59.304C91.1287 59.4427 91.3367 59.512 91.582 59.512C91.8273 59.512 92.062 59.4693 92.286 59.384C92.51 59.2987 92.6753 59.2293 92.782 59.176L93.15 60.568ZM102.082 61.16C101.421 61.16 100.829 61.048 100.306 60.824C99.7834 60.5893 99.3301 60.2693 98.9461 59.864C98.5728 59.4587 98.2848 58.9947 98.0821 58.472C97.8794 57.9493 97.7781 57.4 97.7781 56.824C97.7781 56.248 97.8794 55.6987 98.0821 55.176C98.2848 54.6427 98.5728 54.1787 98.9461 53.784C99.3301 53.3787 99.7834 53.064 100.306 52.84C100.839 52.6053 101.431 52.488 102.082 52.488C102.733 52.488 103.319 52.6053 103.842 52.84C104.375 53.064 104.829 53.3787 105.202 53.784C105.586 54.1787 105.879 54.6427 106.082 55.176C106.285 55.6987 106.386 56.248 106.386 56.824C106.386 57.4 106.285 57.9493 106.082 58.472C105.879 58.9947 105.586 59.4587 105.202 59.864C104.829 60.2693 104.375 60.5893 103.842 60.824C103.319 61.048 102.733 61.16 102.082 61.16ZM102.082 59.656C102.541 59.656 102.957 59.5333 103.33 59.288C103.714 59.032 104.018 58.6907 104.242 58.264C104.466 57.8267 104.578 57.3467 104.578 56.824C104.578 56.2907 104.466 55.8107 104.242 55.384C104.018 54.9573 103.714 54.6213 103.33 54.376C102.957 54.12 102.541 53.992 102.082 53.992C101.613 53.992 101.191 54.12 100.818 54.376C100.445 54.6213 100.146 54.9573 99.9221 55.384C99.6981 55.8107 99.5861 56.296 99.5861 56.84C99.5861 57.3733 99.6981 57.8533 99.9221 58.28C100.146 58.7067 100.445 59.0427 100.818 59.288C101.191 59.5333 101.613 59.656 102.082 59.656ZM98.1301 61.048L99.5701 59.272L100.418 59.832L99.4101 61.048H98.1301ZM100.562 59.688L99.7941 59.192L103.618 53.848L104.498 54.264L100.562 59.688ZM104.722 54.152L103.762 53.72L104.674 52.584H105.986L104.722 54.152ZM115.451 61H113.691V56.312C113.691 55.5333 113.563 54.9627 113.307 54.6C113.062 54.2373 112.694 54.056 112.203 54.056C111.862 54.056 111.52 54.1413 111.179 54.312C110.848 54.4827 110.55 54.7173 110.283 55.016C110.016 55.304 109.824 55.64 109.707 56.024V61H107.947V52.632H109.547V54.312C109.76 53.9387 110.038 53.6187 110.379 53.352C110.731 53.0747 111.126 52.8613 111.563 52.712C112 52.5627 112.464 52.488 112.955 52.488C113.456 52.488 113.867 52.5787 114.187 52.76C114.518 52.9413 114.774 53.192 114.955 53.512C115.147 53.8213 115.275 54.184 115.339 54.6C115.414 55.0053 115.451 55.4373 115.451 55.896V61ZM120.47 61.16C119.766 61.16 119.099 61.048 118.47 60.824C117.841 60.5893 117.302 60.2427 116.854 59.784L117.51 58.6C117.99 59.0267 118.47 59.336 118.95 59.528C119.441 59.72 119.926 59.816 120.406 59.816C120.897 59.816 121.297 59.7253 121.606 59.544C121.915 59.352 122.07 59.0747 122.07 58.712C122.07 58.4453 121.99 58.248 121.83 58.12C121.67 57.992 121.435 57.88 121.126 57.784C120.827 57.688 120.465 57.5813 120.038 57.464C119.441 57.2827 118.939 57.096 118.534 56.904C118.129 56.7013 117.825 56.456 117.622 56.168C117.419 55.88 117.318 55.512 117.318 55.064C117.318 54.52 117.457 54.056 117.734 53.672C118.011 53.288 118.395 52.9947 118.886 52.792C119.387 52.5893 119.963 52.488 120.614 52.488C121.222 52.488 121.782 52.584 122.294 52.776C122.817 52.9573 123.275 53.2453 123.67 53.64L122.918 54.808C122.545 54.4667 122.161 54.216 121.766 54.056C121.382 53.896 120.966 53.816 120.518 53.816C120.262 53.816 120.017 53.848 119.782 53.912C119.547 53.9653 119.35 54.072 119.19 54.232C119.041 54.3813 118.966 54.5947 118.966 54.872C118.966 55.096 119.03 55.2773 119.158 55.416C119.286 55.5547 119.478 55.672 119.734 55.768C119.99 55.864 120.305 55.9707 120.678 56.088C121.329 56.28 121.883 56.472 122.342 56.664C122.801 56.8453 123.153 57.0853 123.398 57.384C123.654 57.672 123.782 58.072 123.782 58.584C123.782 59.3947 123.478 60.0293 122.87 60.488C122.273 60.936 121.473 61.16 120.47 61.16ZM131.177 61L128.489 57.144L127.113 58.456V61H125.353V49.32H127.113V56.68L130.985 52.648H132.873L129.625 56.152L133.049 61H131.177ZM137.473 61.16C136.823 61.16 136.231 61.048 135.697 60.824C135.175 60.5893 134.721 60.2747 134.337 59.88C133.953 59.4747 133.655 59.016 133.441 58.504C133.239 57.9813 133.137 57.4267 133.137 56.84C133.137 56.0507 133.319 55.3307 133.681 54.68C134.044 54.0187 134.551 53.4907 135.201 53.096C135.852 52.6907 136.615 52.488 137.489 52.488C138.364 52.488 139.116 52.6907 139.745 53.096C140.385 53.4907 140.881 54.0133 141.233 54.664C141.585 55.3147 141.761 56.0133 141.761 56.76C141.761 56.888 141.756 57.0107 141.745 57.128C141.735 57.2347 141.724 57.3253 141.713 57.4H135.009C135.041 57.8907 135.175 58.3227 135.409 58.696C135.655 59.0587 135.964 59.3467 136.337 59.56C136.711 59.7627 137.111 59.864 137.537 59.864C138.007 59.864 138.449 59.7467 138.865 59.512C139.292 59.2773 139.58 58.968 139.729 58.584L141.233 59.016C141.052 59.4213 140.775 59.7893 140.401 60.12C140.039 60.44 139.607 60.696 139.105 60.888C138.604 61.0693 138.06 61.16 137.473 61.16ZM134.961 56.232H140.017C139.985 55.752 139.847 55.3307 139.601 54.968C139.367 54.5947 139.063 54.3067 138.689 54.104C138.327 53.8907 137.921 53.784 137.473 53.784C137.036 53.784 136.631 53.8907 136.257 54.104C135.895 54.3067 135.596 54.5947 135.361 54.968C135.127 55.3307 134.993 55.752 134.961 56.232ZM147.63 61V54.2H146.51V52.84H147.63V52.504C147.63 51.8213 147.737 51.2293 147.95 50.728C148.174 50.2267 148.484 49.8427 148.878 49.576C149.284 49.2987 149.758 49.16 150.302 49.16C150.644 49.16 150.98 49.208 151.31 49.304C151.641 49.3893 151.956 49.512 152.254 49.672L151.87 50.984C151.71 50.8773 151.518 50.7973 151.294 50.744C151.081 50.68 150.873 50.648 150.67 50.648C150.265 50.648 149.95 50.8027 149.726 51.112C149.502 51.4213 149.39 51.8693 149.39 52.456V52.84H151.534V54.2H149.39V61H147.63ZM156.457 61.16C155.796 61.16 155.204 61.048 154.681 60.824C154.158 60.5893 153.705 60.2693 153.321 59.864C152.948 59.4587 152.66 59 152.457 58.488C152.254 57.9653 152.153 57.4107 152.153 56.824C152.153 56.2373 152.254 55.6827 152.457 55.16C152.66 54.6373 152.948 54.1787 153.321 53.784C153.705 53.3787 154.158 53.064 154.681 52.84C155.214 52.6053 155.806 52.488 156.457 52.488C157.108 52.488 157.694 52.6053 158.217 52.84C158.75 53.064 159.204 53.3787 159.577 53.784C159.961 54.1787 160.254 54.6373 160.457 55.16C160.66 55.6827 160.761 56.2373 160.761 56.824C160.761 57.4107 160.66 57.9653 160.457 58.488C160.254 59 159.961 59.4587 159.577 59.864C159.204 60.2693 158.75 60.5893 158.217 60.824C157.694 61.048 157.108 61.16 156.457 61.16ZM153.961 56.84C153.961 57.3733 154.073 57.8533 154.297 58.28C154.521 58.7067 154.82 59.0427 155.193 59.288C155.566 59.5333 155.988 59.656 156.457 59.656C156.916 59.656 157.332 59.5333 157.705 59.288C158.089 59.032 158.393 58.6907 158.617 58.264C158.841 57.8267 158.953 57.3467 158.953 56.824C158.953 56.2907 158.841 55.8107 158.617 55.384C158.393 54.9573 158.089 54.6213 157.705 54.376C157.332 54.12 156.916 53.992 156.457 53.992C155.988 53.992 155.566 54.12 155.193 54.376C154.82 54.632 154.521 54.9733 154.297 55.4C154.073 55.816 153.961 56.296 153.961 56.84ZM167.026 54.152C166.343 54.1627 165.735 54.3173 165.202 54.616C164.679 54.9147 164.306 55.336 164.082 55.88V61H162.322V52.632H163.954V54.504C164.242 53.928 164.621 53.4693 165.09 53.128C165.559 52.776 166.055 52.584 166.578 52.552C166.685 52.552 166.77 52.552 166.834 52.552C166.909 52.552 166.973 52.5573 167.026 52.568V54.152ZM179.404 61H177.644V56.312C177.644 55.5333 177.516 54.9627 177.26 54.6C177.015 54.2373 176.647 54.056 176.156 54.056C175.815 54.056 175.474 54.1413 175.132 54.312C174.802 54.4827 174.503 54.7173 174.236 55.016C173.97 55.304 173.778 55.64 173.66 56.024V61H171.9V52.632H173.5V54.312C173.714 53.9387 173.991 53.6187 174.332 53.352C174.684 53.0747 175.079 52.8613 175.516 52.712C175.954 52.5627 176.418 52.488 176.908 52.488C177.41 52.488 177.82 52.5787 178.14 52.76C178.471 52.9413 178.727 53.192 178.908 53.512C179.1 53.8213 179.228 54.184 179.292 54.6C179.367 55.0053 179.404 55.4373 179.404 55.896V61ZM180.839 58.552C180.839 58.0187 180.988 57.5547 181.287 57.16C181.596 56.7547 182.018 56.4453 182.551 56.232C183.084 56.008 183.703 55.896 184.407 55.896C184.78 55.896 185.159 55.9227 185.543 55.976C185.938 56.0293 186.284 56.1147 186.583 56.232V55.704C186.583 55.1173 186.407 54.6587 186.055 54.328C185.703 53.9973 185.196 53.832 184.535 53.832C184.066 53.832 183.623 53.9173 183.207 54.088C182.791 54.248 182.348 54.4773 181.879 54.776L181.287 53.592C181.842 53.2187 182.396 52.9413 182.951 52.76C183.516 52.5787 184.108 52.488 184.727 52.488C185.847 52.488 186.727 52.7867 187.367 53.384C188.018 53.9707 188.343 54.808 188.343 55.896V59.016C188.343 59.2187 188.375 59.3627 188.439 59.448C188.514 59.5333 188.636 59.5813 188.807 59.592V61C188.647 61.032 188.503 61.0533 188.375 61.064C188.247 61.0747 188.14 61.08 188.055 61.08C187.682 61.08 187.399 60.9893 187.207 60.808C187.015 60.6267 186.903 60.4133 186.871 60.168L186.823 59.688C186.46 60.1573 185.996 60.52 185.431 60.776C184.866 61.032 184.295 61.16 183.719 61.16C183.164 61.16 182.668 61.048 182.231 60.824C181.794 60.5893 181.452 60.2747 181.207 59.88C180.962 59.4853 180.839 59.0427 180.839 58.552ZM186.167 59.064C186.295 58.9253 186.396 58.7867 186.471 58.648C186.546 58.5093 186.583 58.3867 186.583 58.28V57.32C186.284 57.2027 185.97 57.1173 185.639 57.064C185.308 57 184.983 56.968 184.663 56.968C184.023 56.968 183.5 57.096 183.095 57.352C182.7 57.608 182.503 57.96 182.503 58.408C182.503 58.6533 182.567 58.888 182.695 59.112C182.834 59.336 183.026 59.5173 183.271 59.656C183.527 59.7947 183.842 59.864 184.215 59.864C184.599 59.864 184.967 59.7893 185.319 59.64C185.671 59.4907 185.954 59.2987 186.167 59.064ZM195.072 60.568C194.923 60.6427 194.736 60.7227 194.512 60.808C194.288 60.8933 194.032 60.968 193.744 61.032C193.467 61.096 193.179 61.128 192.88 61.128C192.517 61.128 192.181 61.064 191.872 60.936C191.563 60.808 191.312 60.6053 191.12 60.328C190.939 60.04 190.848 59.672 190.848 59.224V53.992H189.744V52.632H190.848V49.88H192.608V52.632H194.432V53.992H192.608V58.664C192.629 58.952 192.72 59.1653 192.88 59.304C193.051 59.4427 193.259 59.512 193.504 59.512C193.749 59.512 193.984 59.4693 194.208 59.384C194.432 59.2987 194.597 59.2293 194.704 59.176L195.072 60.568ZM196.211 57.752V52.632H197.971V57.4C197.971 58.1467 198.104 58.712 198.371 59.096C198.648 59.4693 199.048 59.656 199.571 59.656C199.902 59.656 200.222 59.5867 200.531 59.448C200.851 59.3093 201.139 59.1067 201.395 58.84C201.662 58.5627 201.875 58.232 202.035 57.848V52.632H203.795V59.016C203.795 59.2187 203.832 59.3627 203.907 59.448C203.982 59.5333 204.104 59.5813 204.275 59.592V61C204.094 61.032 203.944 61.0533 203.827 61.064C203.71 61.0747 203.598 61.08 203.491 61.08C203.171 61.08 202.904 60.9947 202.691 60.824C202.478 60.6427 202.355 60.4133 202.323 60.136L202.291 59.304C201.918 59.912 201.432 60.376 200.835 60.696C200.238 61.0053 199.582 61.16 198.867 61.16C197.992 61.16 197.331 60.872 196.883 60.296C196.435 59.72 196.211 58.872 196.211 57.752ZM210.745 54.152C210.062 54.1627 209.454 54.3173 208.921 54.616C208.398 54.9147 208.025 55.336 207.801 55.88V61H206.041V52.632H207.673V54.504C207.961 53.928 208.34 53.4693 208.809 53.128C209.278 52.776 209.774 52.584 210.297 52.552C210.404 52.552 210.489 52.552 210.553 52.552C210.628 52.552 210.692 52.5573 210.745 52.568V54.152ZM215.661 61.16C215.01 61.16 214.418 61.048 213.885 60.824C213.362 60.5893 212.909 60.2747 212.525 59.88C212.141 59.4747 211.842 59.016 211.629 58.504C211.426 57.9813 211.325 57.4267 211.325 56.84C211.325 56.0507 211.506 55.3307 211.869 54.68C212.232 54.0187 212.738 53.4907 213.389 53.096C214.04 52.6907 214.802 52.488 215.677 52.488C216.552 52.488 217.304 52.6907 217.933 53.096C218.573 53.4907 219.069 54.0133 219.421 54.664C219.773 55.3147 219.949 56.0133 219.949 56.76C219.949 56.888 219.944 57.0107 219.933 57.128C219.922 57.2347 219.912 57.3253 219.901 57.4H213.197C213.229 57.8907 213.362 58.3227 213.597 58.696C213.842 59.0587 214.152 59.3467 214.525 59.56C214.898 59.7627 215.298 59.864 215.725 59.864C216.194 59.864 216.637 59.7467 217.053 59.512C217.48 59.2773 217.768 58.968 217.917 58.584L219.421 59.016C219.24 59.4213 218.962 59.7893 218.589 60.12C218.226 60.44 217.794 60.696 217.293 60.888C216.792 61.0693 216.248 61.16 215.661 61.16ZM213.149 56.232H218.205C218.173 55.752 218.034 55.3307 217.789 54.968C217.554 54.5947 217.25 54.3067 216.877 54.104C216.514 53.8907 216.109 53.784 215.661 53.784C215.224 53.784 214.818 53.8907 214.445 54.104C214.082 54.3067 213.784 54.5947 213.549 54.968C213.314 55.3307 213.181 55.752 213.149 56.232ZM228.889 61H227.129V56.312C227.129 55.5333 227.001 54.9627 226.745 54.6C226.499 54.2373 226.131 54.056 225.641 54.056C225.299 54.056 224.958 54.1413 224.617 54.312C224.286 54.4827 223.987 54.7173 223.721 55.016C223.454 55.304 223.262 55.64 223.145 56.024V61H221.385V52.632H222.985V54.312C223.198 53.9387 223.475 53.6187 223.817 53.352C224.169 53.0747 224.563 52.8613 225.001 52.712C225.438 52.5627 225.902 52.488 226.393 52.488C226.894 52.488 227.305 52.5787 227.625 52.76C227.955 52.9413 228.211 53.192 228.393 53.512C228.585 53.8213 228.713 54.184 228.777 54.6C228.851 55.0053 228.889 55.4373 228.889 55.896V61ZM230.84 53.144L231.176 51.256H230.616V49.272H232.344V51.272L231.816 53.144H230.84ZM233.432 53.144L233.768 51.256H233.208V49.272H234.936V51.272L234.408 53.144H233.432Z" fill="#24352D"/>
</svg>
